<svg xmlns="http://www.w3.org/2000/svg" width="35.388" height="37.715" viewBox="0 0 35.388 37.715"><g transform="translate(35.137 -0.13) rotate(88)"><ellipse cx="15.469" cy="15.723" rx="15.469" ry="15.723" transform="translate(0 3.713)"/><g transform="translate(0.391 27.263) rotate(-76)"><path d="M20.18,16.96a1.766,1.766,0,0,1,.208-.043c.156-.026.312-.043.468-.069l.234-.052.286-.078c.113-.026.217-.061.33-.087.069-.026.139-.061.2-.087.078-.026.147-.061.225-.087.061-.026.113-.052.173-.078.035-.017.069-.035.113-.052l.13-.078.286-.156.156-.1a4.765,4.765,0,0,0,1.387-1.431.861.861,0,0,1-.225-.078c-.269-.217-.442-.173-.676.113a4.443,4.443,0,0,1-3.061,1.613c-.1.009-.269-.061-.286-.121a4.167,4.167,0,0,0-1.821-2.489c.356-.113.65-.2.937-.295a15.562,15.562,0,0,0,4.995-2.437,7.763,7.763,0,0,0,3.235-5.532A7.061,7.061,0,0,0,27.2,2.122a1.734,1.734,0,0,0-2.489-1.067,7.807,7.807,0,0,0-2.315,1.57,36.7,36.7,0,0,0-4.449,5.047,7.228,7.228,0,0,1-.555.581.557.557,0,0,1,.026-.156c.659-1.8,1.344-3.59,1.986-5.394A12.076,12.076,0,0,0,19.773,1a1.183,1.183,0,0,0,0-.3c-.061-.581-.512-.876-1.023-.59a5.548,5.548,0,0,0-1.3.928,12.9,12.9,0,0,0-3.772,7.735c-.017.156-.035.312-.061.538-.087-.121-.156-.2-.208-.286a9.691,9.691,0,0,0-6.72-4.561,11.881,11.881,0,0,0-5.853.5A.065.065,0,0,0,.8,4.975,1.088,1.088,0,0,0,0,6.129c.026.113.043.217.069.33a12.573,12.573,0,0,0,1.994,4.96A9.366,9.366,0,0,0,8.422,15.5c.4.069.8.121,1.275.2-.191.122-.312.191-.434.269a13.693,13.693,0,0,0-4.4,4.839,8.272,8.272,0,0,0-1.084,3.174c-.035.382-.1.815.295,1.067a.9.9,0,0,0,1.11-.191c.832-.694,1.656-1.388,2.428-2.151.928-.919,1.778-1.916,2.671-2.87.165-.173.347-.338.52-.512.026.017.043.035.069.052a2.041,2.041,0,0,1-.147.382A39.578,39.578,0,0,0,7.78,26.715a7.272,7.272,0,0,0-.434,3.391A1.388,1.388,0,0,0,8.37,31.311a1.462,1.462,0,0,0,.39.035,6.326,6.326,0,0,0,3.529-1.474,8.734,8.734,0,0,0,3.486-5.932,16.651,16.651,0,0,0-.139-5.6c-.017-.113-.035-.234-.052-.4a4.03,4.03,0,0,0,3.234.512,4.606,4.606,0,0,1-.13,4.084c.182.121.356.243.564.373A4.66,4.66,0,0,0,19.9,20.9a5.457,5.457,0,0,0-.347-2.5.39.39,0,0,1,.1-.468,4.77,4.77,0,0,0,.477-.789c.026-.052.061-.113.087-.165ZM4.311,5.556a1.856,1.856,0,0,1-.113.165A9.9,9.9,0,0,0,2.065,9.06c-.017.052-.078.087-.139.147a10.94,10.94,0,0,1-.911-3.07A.338.338,0,0,1,1.2,5.869c.486-.121.98-.217,1.466-.321A3.137,3.137,0,0,1,4.519,5.4c-.069.052-.139.1-.217.165Zm8.819,8.36a2.714,2.714,0,0,1-.512.382A5.455,5.455,0,0,1,9.6,14.67c-.069,0-.191-.191-.173-.269a8,8,0,0,1,2.584-4.284c.182-.182.364-.356.564-.564a5.889,5.889,0,0,1,1.11,3.078,1.368,1.368,0,0,1-.564,1.275ZM8.257,6.562a2.379,2.379,0,0,1-.191.226,11.66,11.66,0,0,0-3.451,5.819c0,.026-.035.043-.069.1a8.28,8.28,0,0,1-1.8-2.02.454.454,0,0,1-.009-.286,6.446,6.446,0,0,1,.876-2.3A8.727,8.727,0,0,1,5.725,5.661c.165-.1.33-.286.486-.269a7.649,7.649,0,0,1,2.6.746c-.208.165-.382.295-.546.434Zm3.2,2.68a.637.637,0,0,1-.087.1,9.388,9.388,0,0,0-2.922,4.969c-.009.069-.182.165-.251.147-.633-.191-1.249-.407-1.873-.6-.347-.1-.39-.33-.33-.65A10.209,10.209,0,0,1,9.627,7.36c.165-.156.338-.312.564-.52.633.642,1.249,1.257,1.873,1.89C11.812,8.938,11.63,9.086,11.457,9.242Zm3.8,4.084a.761.761,0,0,0-.069-.1c.217-.347.416-.7.642-1.041a51.006,51.006,0,0,1,6.443-8.3,8.6,8.6,0,0,1,2.775-2.073.906.906,0,0,1,1.379.642,6.983,6.983,0,0,1-.416,5.021,8.2,8.2,0,0,1-3.46,3.495,18.067,18.067,0,0,1-5.22,1.951c-.685.156-1.379.269-2.064.4Zm-1.231,2.281c.043.087.078.121.1.174A21.692,21.692,0,0,1,15,19.969a12.643,12.643,0,0,1-.477,5.428,7.8,7.8,0,0,1-5.108,5.012c-.954.338-1.353-.035-1.309-1.058A11.75,11.75,0,0,1,8.9,25.944a56.374,56.374,0,0,1,4.951-10.12,2.588,2.588,0,0,1,.182-.226Zm-.954-.3c-.087.1-.147.147-.191.2C11.118,17.5,9.384,19.518,7.6,21.486c-.789.867-1.682,1.63-2.541,2.428a3.228,3.228,0,0,1-.46.3C5.1,20.09,9.453,15.8,13.07,15.3ZM18.871,1c.13.867-3.451,10.258-4.206,11.013C13.564,7.846,16.391,2.374,18.871,1ZM15.3,16.162a1.847,1.847,0,0,1,2.073-2.125,2.786,2.786,0,0,1,2.09,2.714,1.1,1.1,0,0,1-.72.928,2.9,2.9,0,0,1-2.575-.225,1.7,1.7,0,0,1-.859-1.292Z" transform="translate(0.561 0)" fill="#fff"/><path d="M9.806,9.842c.121-.078.243-.147.434-.269-.477-.078-.876-.13-1.275-.2A9.4,9.4,0,0,1,2.609,5.29,12.573,12.573,0,0,1,.615.33C.6.217.571.113.545,0,.441.026.328.052.224.087A.268.268,0,0,0,.008.434,11.516,11.516,0,0,0,3.19,7.154,8.988,8.988,0,0,0,8.705,9.712c.364.043.728.078,1.093.121Z" transform="translate(0 6.12)" fill="#fcb700"/><path d="M.468,0C.312.026.156.043,0,.069.156.043.312.026.468,0Z" transform="translate(20.941 16.847)" fill="#929291"/><path d="M.286,0,0,.078Z" transform="translate(21.643 16.725)" fill="#929291"/><path d="M.2,0C.13.026.061.061,0,.087.069.061.139.026.2,0Z" transform="translate(22.259 16.543)" fill="#929291"/><path d="M.156,0,0,.1Z" transform="translate(23.378 15.988)" fill="#929291"/><path d="M.13,0,0,.078Z" transform="translate(22.961 16.248)" fill="#929291"/><path d="M.173,0C.113.026.061.052,0,.078.061.052.113.026.173,0Z" transform="translate(22.684 16.378)" fill="#929291"/><path d="M.087,0C.061.052.026.113,0,.165.026.113.061.052.087,0Z" transform="translate(20.655 16.959)" fill="#929291"/><path d="M3.656,0A10.138,10.138,0,0,0,.023,5.845c-.061.312-.017.538.33.65.624.191,1.249.407,1.873.6a.3.3,0,0,0,.251-.147A9.476,9.476,0,0,1,5.4,1.977c.035-.035.061-.069.087-.1C4.879,1.257,4.263.633,3.656,0Z" transform="translate(6.532 7.369)" fill="#fcb700"/><path d="M3,.009A8.852,8.852,0,0,0,.894,2.445a6.288,6.288,0,0,0-.876,2.3.455.455,0,0,0,.009.286,8.835,8.835,0,0,0,1.8,2.02c.035-.043.069-.069.069-.1A11.661,11.661,0,0,1,5.343,1.136,2.367,2.367,0,0,0,5.534.911,3.1,3.1,0,0,0,5.091.676C4.4.442,3.7.226,2.993,0Z" transform="translate(3.276 5.643)" fill="#fcb700"/><path d="M2.586,0A7.94,7.94,0,0,0,0,4.284c-.017.078.1.269.173.269A5.616,5.616,0,0,0,3.193,4.18,3.561,3.561,0,0,0,3.7,3.8c.009-.226.043-.442.035-.668A6.116,6.116,0,0,0,2.594,0Z" transform="translate(9.987 10.118)" fill="#fcb700"/><path d="M1.648.043C1.154.147.668.234.183.364A.352.352,0,0,0,0,.633,10.855,10.855,0,0,0,.911,3.7c.061-.061.121-.1.139-.147A9.9,9.9,0,0,1,3.183.217,1.115,1.115,0,0,0,3.3.052,2.693,2.693,0,0,0,2.94,0c-.425,0-.858.026-1.283.035Z" transform="translate(1.577 5.504)" fill="#fcb700"/></g></g></svg>