<svg xmlns="http://www.w3.org/2000/svg" width="114.991" height="172.415" viewBox="0 0 114.991 172.415"><g transform="translate(113.124 2.935) rotate(104)"><g transform="translate(0 0)" opacity="0.75"><path d="M48.794,2.877C32.4-.4,15.642-1.476,0,2.877" transform="translate(0 0)" fill="none" stroke="#fff" stroke-linecap="round" stroke-linejoin="round" stroke-width="3" stroke-dasharray="0 0 0 0 0 0 1 17 1 19 1 19"/><path d="M35.026,17.973C25.428,9.134,12.178,4.078,0,0" transform="translate(52.834 3.754)" fill="none" stroke="#fff" stroke-linecap="round" stroke-linejoin="round" stroke-width="3" stroke-dasharray="0 0 0 0 0 0 3 14 2 15 1 16"/><path d="M10.5,49.405C25.362,32.9,17.594,11.344,0,0" transform="translate(87.111 21.717)" fill="none" stroke="#fff" stroke-linecap="round" stroke-linejoin="round" stroke-width="3" stroke-dasharray="0 0 0 0 0 0 6 16 5 17 4 20"/><path d="M0,5.065C12.425,10.831,21.331,10.7,30.939,0" transform="translate(63.922 72.175)" fill="none" stroke="#fff" stroke-linecap="round" stroke-linejoin="round" stroke-width="3" stroke-dasharray="0 0 0 0 0 0 6 16 5 17 4 20"/><path d="M19.328,0C7.3,4.723,1.222,11.97.074,23.237-.476,28.662,1.867,45.516,12.9,46.294" transform="translate(51.024 30.946)" fill="none" stroke="#fff" stroke-linecap="round" stroke-linejoin="round" stroke-width="3" stroke-dasharray="0 0 0 0 0 0 6 15 6 17 6 20"/><path d="M59.743,3C41.884-.538,17.793-1.647,0,3.579" transform="translate(67.744 28.069)" fill="none" stroke="#fff" stroke-linecap="round" stroke-linejoin="round" stroke-width="3" stroke-dasharray="0 0 0 0 0 0 9 13 8 10 7 20"/></g><g transform="translate(138.964 24.773)"><path d="M30.08,25.28a2.626,2.626,0,0,1,.31-.064c.233-.039.465-.065.7-.1l.349-.078.427-.116c.168-.039.323-.091.491-.129.1-.039.207-.091.3-.129.116-.039.22-.091.336-.129.09-.039.168-.078.259-.116.052-.026.1-.052.168-.078l.194-.116.427-.233.233-.155A7.1,7.1,0,0,0,36.337,21.7,1.281,1.281,0,0,1,36,21.583c-.4-.323-.659-.258-1.008.168a6.623,6.623,0,0,1-4.563,2.4c-.142.013-.4-.091-.427-.181a6.211,6.211,0,0,0-2.714-3.71c.53-.168.969-.3,1.4-.44a23.2,23.2,0,0,0,7.445-3.632,11.572,11.572,0,0,0,4.821-8.247,10.524,10.524,0,0,0-.414-4.783,2.584,2.584,0,0,0-3.71-1.59,11.637,11.637,0,0,0-3.451,2.34,54.706,54.706,0,0,0-6.631,7.523,10.782,10.782,0,0,1-.827.866.831.831,0,0,1,.039-.232c.982-2.676,2-5.352,2.96-8.04A18,18,0,0,0,29.473,1.5a1.763,1.763,0,0,0,0-.452c-.09-.866-.763-1.306-1.525-.879a8.271,8.271,0,0,0-1.939,1.383,19.229,19.229,0,0,0-5.623,11.53c-.026.233-.052.465-.09.8-.129-.181-.233-.3-.31-.426a14.445,14.445,0,0,0-10.017-6.8,17.71,17.71,0,0,0-8.725.75.1.1,0,0,0-.052.013A1.622,1.622,0,0,0,0,9.135c.039.168.065.323.1.491A18.741,18.741,0,0,0,3.078,17.02a13.961,13.961,0,0,0,9.475,6.088c.595.1,1.189.181,1.9.3-.284.181-.465.284-.646.4a20.41,20.41,0,0,0-6.553,7.213A12.33,12.33,0,0,0,5.638,35.75c-.052.569-.155,1.215.439,1.59a1.336,1.336,0,0,0,1.654-.284c1.241-1.034,2.469-2.068,3.619-3.206,1.383-1.37,2.65-2.857,3.981-4.279.246-.258.517-.5.776-.763.039.026.065.052.1.078a3.042,3.042,0,0,1-.22.569A59,59,0,0,0,11.6,39.821a10.839,10.839,0,0,0-.646,5.054,2.068,2.068,0,0,0,1.525,1.8,2.178,2.178,0,0,0,.582.051,9.43,9.43,0,0,0,5.261-2.2,13.018,13.018,0,0,0,5.2-8.841,24.82,24.82,0,0,0-.207-8.35c-.026-.168-.052-.349-.078-.595a6.007,6.007,0,0,0,4.821.763,6.865,6.865,0,0,1-.194,6.088c.272.181.53.362.84.556a6.946,6.946,0,0,0,.969-3,8.133,8.133,0,0,0-.517-3.723.582.582,0,0,1,.142-.7A7.109,7.109,0,0,0,30,25.551c.039-.078.09-.168.129-.246Zm-23.654-17a2.758,2.758,0,0,1-.168.246A14.751,14.751,0,0,0,3.078,13.5c-.026.077-.116.129-.207.22A16.308,16.308,0,0,1,1.514,9.148a.5.5,0,0,1,.271-.4c.724-.181,1.461-.323,2.184-.478a4.676,4.676,0,0,1,2.766-.22c-.1.078-.207.155-.323.246ZM19.572,20.743a4.046,4.046,0,0,1-.763.569,8.131,8.131,0,0,1-4.5.556c-.1,0-.284-.284-.259-.4A11.929,11.929,0,0,1,17.9,15.081c.271-.272.543-.53.84-.84A8.778,8.778,0,0,1,20.4,18.83a2.039,2.039,0,0,1-.84,1.9ZM12.307,9.782a3.546,3.546,0,0,1-.284.336,17.38,17.38,0,0,0-5.145,8.673c0,.039-.052.064-.1.142A12.344,12.344,0,0,1,4.1,15.921a.677.677,0,0,1-.013-.427A9.609,9.609,0,0,1,5.392,12.07,13.008,13.008,0,0,1,8.533,8.438c.246-.142.491-.427.724-.4a11.4,11.4,0,0,1,3.878,1.111c-.31.246-.569.44-.814.646Zm4.77,3.994a.95.95,0,0,1-.129.142,13.994,13.994,0,0,0-4.356,7.407c-.013.1-.271.246-.375.22-.944-.284-1.861-.607-2.792-.892-.517-.155-.582-.491-.491-.969a15.217,15.217,0,0,1,5.416-8.712c.246-.233.5-.465.84-.776.944.956,1.861,1.874,2.792,2.818C17.607,13.323,17.336,13.543,17.077,13.776Zm5.662,6.088a1.136,1.136,0,0,0-.1-.142c.323-.517.62-1.047.957-1.551A76.028,76.028,0,0,1,33.2,5.8a12.811,12.811,0,0,1,4.136-3.089,1.351,1.351,0,0,1,2.055.956,10.408,10.408,0,0,1-.62,7.484,12.229,12.229,0,0,1-5.157,5.209,26.929,26.929,0,0,1-7.781,2.908c-1.021.233-2.055.4-3.076.595Zm-1.835,3.4c.065.129.116.181.142.259a32.335,32.335,0,0,1,1.318,6.243,18.846,18.846,0,0,1-.711,8.091,11.625,11.625,0,0,1-7.613,7.471c-1.422.5-2.016-.052-1.952-1.577a17.516,17.516,0,0,1,1.176-5.08,84.031,84.031,0,0,1,7.381-15.084,3.87,3.87,0,0,1,.271-.336Zm-1.422-.452c-.129.142-.22.22-.284.3-2.624,2.973-5.209,5.985-7.872,8.919-1.176,1.292-2.508,2.43-3.787,3.619a4.815,4.815,0,0,1-.685.452c.75-6.152,7.238-12.551,12.629-13.288ZM28.129,1.5c.194,1.293-5.144,15.291-6.269,16.416C20.218,11.695,24.432,3.539,28.129,1.5ZM22.8,24.091a2.753,2.753,0,0,1,3.089-3.167,4.153,4.153,0,0,1,3.115,4.046,1.633,1.633,0,0,1-1.073,1.383,4.324,4.324,0,0,1-3.839-.336,2.54,2.54,0,0,1-1.28-1.926Z" transform="translate(0.836 0)" fill="#fff"/><path d="M14.617,14.671c.181-.116.362-.22.646-.4-.711-.116-1.305-.194-1.9-.3A14.006,14.006,0,0,1,3.889,7.885,18.742,18.742,0,0,1,.916.491C.89.323.851.168.813,0,.658.039.49.078.334.129A.4.4,0,0,0,.011.646,17.166,17.166,0,0,0,4.755,10.664a13.4,13.4,0,0,0,8.221,3.813c.543.065,1.086.116,1.629.181Z" transform="translate(0 9.122)" fill="#fcb700"/><path d="M.7,0C.465.039.233.065,0,.1.233.065.465.039.7,0Z" transform="translate(31.214 25.112)" fill="#929291"/><path d="M.427,0,0,.116Z" transform="translate(32.261 24.931)" fill="#929291"/><path d="M.3,0C.194.039.09.091,0,.129.1.09.207.039.3,0Z" transform="translate(33.179 24.659)" fill="#929291"/><path d="M.233,0,0,.155Z" transform="translate(34.846 23.832)" fill="#929291"/><path d="M.194,0,0,.116Z" transform="translate(34.226 24.22)" fill="#929291"/><path d="M.259,0C.168.039.091.078,0,.116.091.078.168.039.259,0Z" transform="translate(33.812 24.413)" fill="#929291"/><path d="M.129,0C.09.078.039.168,0,.246.039.168.09.078.129,0Z" transform="translate(30.788 25.28)" fill="#929291"/><path d="M5.45,0A15.112,15.112,0,0,0,.034,8.712c-.09.465-.026.8.491.969.931.284,1.861.607,2.792.892a.446.446,0,0,0,.375-.22A14.126,14.126,0,0,1,8.048,2.947c.052-.052.091-.1.129-.142C7.273,1.874,6.355.944,5.45,0Z" transform="translate(9.736 10.984)" fill="#fcb700"/><path d="M4.474.013A13.2,13.2,0,0,0,1.333,3.645,9.373,9.373,0,0,0,.028,7.071.678.678,0,0,0,.041,7.5a13.169,13.169,0,0,0,2.676,3.012c.052-.065.1-.1.1-.142A17.382,17.382,0,0,1,7.964,1.693a3.527,3.527,0,0,0,.284-.336,4.619,4.619,0,0,0-.659-.349C6.555.659,5.508.336,4.461,0Z" transform="translate(4.883 8.412)" fill="#fcb700"/><path d="M3.854,0A11.835,11.835,0,0,0,0,6.385c-.026.116.155.4.258.4a8.371,8.371,0,0,0,4.5-.556,5.307,5.307,0,0,0,.763-.569c.013-.336.065-.659.052-1A9.116,9.116,0,0,0,3.867,0Z" transform="translate(14.886 15.081)" fill="#fcb700"/><path d="M2.457.064C1.72.22,1,.349.272.543A.525.525,0,0,0,0,.943,16.181,16.181,0,0,0,1.358,5.519c.091-.091.181-.142.207-.22A14.752,14.752,0,0,1,4.745.323,1.66,1.66,0,0,0,4.913.078,4.014,4.014,0,0,0,4.383,0C3.749,0,3.1.039,2.47.052Z" transform="translate(2.35 8.205)" fill="#fcb700"/></g></g></svg>