<svg xmlns="http://www.w3.org/2000/svg" width="322.402" height="205.522" viewBox="0 0 322.402 205.522"><g transform="translate(-120.627 -545.346)" opacity="0.75"><path d="M179.433,629.82c-40.983,8.206-82.9,10.886-122.013,0" transform="translate(65.054 112.444)" fill="none" stroke="#fff" stroke-linecap="round" stroke-linejoin="round" stroke-width="3" stroke-dasharray="0 0 0 0 0 0 1 17 1 19 1 19"/><path d="M223.456,609.35c-24,22.1-57.134,34.745-87.587,44.944" transform="translate(118.72 85.778)" fill="none" stroke="#fff" stroke-linecap="round" stroke-linejoin="round" stroke-width="3" stroke-dasharray="0 0 0 0 0 0 3 14 2 15 1 16"/><path d="M198.265,557.27c37.164,41.267,17.74,95.176-26.255,123.541" transform="translate(168.293 14.341)" fill="none" stroke="#fff" stroke-linecap="round" stroke-linejoin="round" stroke-width="3" stroke-dasharray="0 0 0 0 0 0 6 16 5 17 4 20"/><path d="M147.56,556.313c31.069-14.42,53.339-14.088,77.365,12.665" transform="translate(134.755 0)" fill="none" stroke="#fff" stroke-linecap="round" stroke-linejoin="round" stroke-width="3" stroke-dasharray="0 0 0 0 0 0 6 16 5 17 4 20"/><path d="M182.292,666.582c-30.073-11.811-45.276-29.931-48.145-58.106-1.376-13.566,4.482-55.711,32.065-57.656" transform="translate(116.102 5.493)" fill="none" stroke="#fff" stroke-linecap="round" stroke-linejoin="round" stroke-width="3" stroke-dasharray="0 0 0 0 0 0 6 15 6 17 6 20"/><path d="M300.983,600.337c-44.659,8.846-104.9,11.621-149.393-1.447" transform="translate(140.283 71.43)" fill="none" stroke="#fff" stroke-linecap="round" stroke-linejoin="round" stroke-width="3" stroke-dasharray="0 0 0 0 0 0 9 13 8 10 7 20"/></g></svg>