<svg xmlns="http://www.w3.org/2000/svg" width="158.252" height="74" viewBox="0 0 158.252 74"><g transform="translate(-469.154 -84.16)"><path d="M502.141,90.98H504.3c.093.106.159.252.265.318a3.1,3.1,0,0,1,1.868,2.676c.093,1.722.04,3.458.04,5.193,0,.371.172.583.49.45a2.6,2.6,0,0,0,1.523-1.033c1.457-2.6,3.418-3.206,6.16-2.173,1.987.742,2.848,2.557,1.6,4.491a13.133,13.133,0,0,1-1.894,1.947c-.848.848-1.7,1.682-2.543,2.53a.552.552,0,0,0,.411.119,12.9,12.9,0,0,1,6.69.437,3.032,3.032,0,0,1,2.186,2.04c.026.093.172.159.252.238v1.908a2.454,2.454,0,0,0-.384.53,2.461,2.461,0,0,1-1.378,1.417,9.554,9.554,0,0,1-4.04.583c-1.139-.053-2.265-.159-3.4-.225-.411-.026-.821,0-1.351,0,.172.212.252.318.358.424a10.933,10.933,0,0,0,3.206,2.133,2.153,2.153,0,0,1,1.338,1.351,5.366,5.366,0,0,0,.742,1.417,2.326,2.326,0,0,1,.212,2.835,5.172,5.172,0,0,1-2.941,2.292,2.733,2.733,0,0,1-2.861-.49,9.016,9.016,0,0,1-1.1-1.364c-.861-1.3-1.669-2.636-2.557-3.908a11.9,11.9,0,0,0-1.351-1.378c-.159.53-.252.848-.344,1.179.066-.026.133-.04.2-.066a6.161,6.161,0,0,1,.636,1.7c.119,1.881.133,3.762.146,5.643a2.119,2.119,0,0,1-1.086,1.881,3.9,3.9,0,0,1-2.755.49c-1.4-.2-2.914-.768-3.179-2.345a6.006,6.006,0,0,1-.026-1.947c.3-1.762,1.113-3.418,1.113-5.259a4.9,4.9,0,0,1,.331-1.417,1.98,1.98,0,0,1,1.841-1.5l2.318-.159a1.907,1.907,0,0,1,1.55-1.722c.556-.172,1.113-.371,1.709-.57a2.146,2.146,0,0,1,.093-2.438,3.954,3.954,0,0,1-.914-3.206,2.358,2.358,0,0,1-2.212-1.762c-1.325.609-2.411,1.749-3.948,1.656a2.837,2.837,0,0,0-2.61,1.206c-.278.358-.424.543-.212.954a4.065,4.065,0,0,1,.3,3.193.546.546,0,0,0,.013.411,9.267,9.267,0,0,0,.98,1.272,2.591,2.591,0,0,1,.358,3.219,16.369,16.369,0,0,1-4.928,5.869c-1.047.835-2.106,1.219-3.338.291a1.543,1.543,0,0,0-1.02-.093,1.77,1.77,0,0,1-2.212-1.3,1.088,1.088,0,0,0-.57-.543c-.079-.04-.358.265-.49.45-.477.689-.835,1.484-1.749,1.749s-.914.278-.874,1.232c0,.172.053.331.066.5.146,1.272.344,2.543.424,3.828a2.659,2.659,0,0,1-1.523,2.808c-.053.027-.079.146-.119.212h-1.4c-1.669-1.947-2.464-4.385-3.67-6.438a24.581,24.581,0,0,1-2.543,2.014,1.849,1.849,0,0,1-2.8-1.285,4.8,4.8,0,0,1,.146-2.08,6.563,6.563,0,0,1,2.173-2.981,2.235,2.235,0,0,0,.344-.543l-.172-.119a4.713,4.713,0,0,1-.914.49,3.549,3.549,0,0,1-1.126.132,3.142,3.142,0,0,1-3.166-2.424c-.027-.093-.159-.159-.238-.238v-1.523c.132-.146.291-.278.411-.437a2.019,2.019,0,0,1,1.616-.848c.874-.026,1.749-.172,2.835-.291-.411-.49-.7-.861-1.02-1.206a6.352,6.352,0,0,1-.954-1.033,8.018,8.018,0,0,1-.437-1.311,1.7,1.7,0,0,1,.477-1.947,3.781,3.781,0,0,0,.623-.755,1.792,1.792,0,0,1,2.212-.848c1.55.318,2.994,1.192,4.663.927a1.042,1.042,0,0,1,.186.026,2,2,0,0,1,1.311,3.1,1.8,1.8,0,0,0-.079.927c.026.371.238.742.172,1.1a2,2,0,0,1-2.053,1.7c-.53,0-.609.238-.517.676a1.024,1.024,0,0,0,.556.755,2.218,2.218,0,0,1,.967,1.007,7.988,7.988,0,0,1,.212,1.8c.026.238.066.49.119.782a8.8,8.8,0,0,1,1.086-.53,3.814,3.814,0,0,0,2.517-2.146,1.837,1.837,0,0,1,2.053-1.153c.49.066.954.331,1.444.437a1.231,1.231,0,0,0,.848-.013c.941-.636,1.815-1.378,2.769-1.987.57-.371,1.007-.689.7-1.444a.731.731,0,0,1,.04-.371c.079-.384.172-.755.265-1.126a16.245,16.245,0,0,0-1.961,1.073,4.476,4.476,0,0,1-4.372.238,5.116,5.116,0,0,1-2.557-3.8,4,4,0,0,1,.252-2.716,4.241,4.241,0,0,1,3.987-2.239,6.123,6.123,0,0,1,3.471,1.06,1.673,1.673,0,0,0,1.762-.04c-.98-.994-2.014-1.934-2.928-2.981a5.164,5.164,0,0,1-1.325-2.967c-.2-2.358,2.332-3.8,4.146-3.987,1.391-.146,2.226.768,2.914,1.735,1.007,1.4,1.881,2.9,2.782,4.385a.766.766,0,0,0,1.1.4c-.2-.609-.411-1.192-.583-1.8-.424-1.51-1.086-2.994-.768-4.637a.552.552,0,0,0-.133-.331,1.54,1.54,0,0,1,.04-1.974,6.277,6.277,0,0,1,2.358-1.881,3.931,3.931,0,0,0,.464-.358Z" transform="translate(0.418 2.215)" fill="#fff"/><path d="M489.907,122.05h-.967c-.318.636-1.007.676-1.6.835a1.331,1.331,0,0,1-.994-.225,2.471,2.471,0,0,1-.914-.795c-.556-1.007-1.206-1.961-1.815-2.941a10.567,10.567,0,0,0-.755-1.232c-.185-.238-.132-.464-.159-.729a4.223,4.223,0,0,0,1.5-2.2,2.4,2.4,0,0,0,.172-1.6c-.225-.53-.119-1.219-.755-1.59H482.7c-.3-.344-.517-.768-1.033-.861v-.6c-.2-.212-.4-.411-.6-.609h-1.722c-.358-1.206-.583-2.438-.874-3.656a8.534,8.534,0,0,1-.424-2.318,2.193,2.193,0,0,1,1.4-1.921,1.585,1.585,0,0,1,1.4,0c.079.053.225,0,.344,0,.212-.172.424-.344.649-.517a.454.454,0,0,1,.49.225c.146.212.278.437.4.623h.49a3.013,3.013,0,0,1-.238.331,4.043,4.043,0,0,0-1.311,2.808c0,.238-.185.49-.146.7a8.648,8.648,0,0,0,.517,2.014,5.845,5.845,0,0,0,1.086,1.51,4.426,4.426,0,0,0,2.4,1.245c.318.066.636.119.954.172a3.135,3.135,0,0,0,1.457-.238,4.715,4.715,0,0,1,1.113-.106v.2a18.6,18.6,0,0,0-1.709,1.073,4.637,4.637,0,0,0-1.55,2.53,3.993,3.993,0,0,0-.2,1.378,5.44,5.44,0,0,0,1.431,3.365,4.771,4.771,0,0,0,2.676,1.417,2.465,2.465,0,0,0,.7.159.736.736,0,0,1-.053.3,3.728,3.728,0,0,0-.45,1.232Z" transform="translate(2.888 5.495)" fill="#fff"/><g transform="translate(469.154 92.572)"><path d="M486.052,105.612a5.155,5.155,0,0,1,2.04-1.086,3.3,3.3,0,0,1,.464-.106c.344-.013.689,0,1.033,0a6.327,6.327,0,0,1,2.173.344c.079.026.159,0,.358-.026a2.738,2.738,0,0,0-.729-.556,6.45,6.45,0,0,1-2.4-2.226,2.132,2.132,0,0,1-.3-.808,3.908,3.908,0,0,1-.079-2.49,1.571,1.571,0,0,0,0-.609c.331-.5.53-1.007.835-1.444a5.122,5.122,0,0,1,2.067-1.643,5.746,5.746,0,0,1,3.047-.278,3.707,3.707,0,0,1,2.12,1.073,8.541,8.541,0,0,1,1.828,2.517,4.11,4.11,0,0,0-.2-1.894,4.093,4.093,0,0,1,.04-1.788c.079-.278.146-.57.212-.861a3.783,3.783,0,0,1,1.033-1.669,4.992,4.992,0,0,1,1.563-1.153,6.674,6.674,0,0,1,1.55-.4,10.938,10.938,0,0,1,1.735.132,5.292,5.292,0,0,1,2.186,1.166,4.923,4.923,0,0,1,1.51,2.543,5.32,5.32,0,0,1,.04.927,6.83,6.83,0,0,1-.517,2.967c.146-.026.252-.013.291-.066.371-.53.729-1.073,1.073-1.616a3.575,3.575,0,0,1,2.08-1.616,4.261,4.261,0,0,0,.636-.331c.543,0,1.166.026,1.788,0a3.518,3.518,0,0,1,2.318.795,4.613,4.613,0,0,1,1.788,2.239,3.373,3.373,0,0,1,.3,1.245c-.026.318,0,.636,0,.941a3.915,3.915,0,0,1-1.02,2.755,7.53,7.53,0,0,1-2.755,2.053c.464.318.914-.013,1.325-.106a4.9,4.9,0,0,1,1.311-.132,6.989,6.989,0,0,1,1.735.146,4.526,4.526,0,0,1,2.49,1.735,6.206,6.206,0,0,1,.662,1.1,4.312,4.312,0,0,1,.384,1.47,6.561,6.561,0,0,1-.318,2.265,3.808,3.808,0,0,1-.676,1.179,5.246,5.246,0,0,1-1.55,1.4,4.75,4.75,0,0,1-1.179.464,5.431,5.431,0,0,1-2.358.053,13.3,13.3,0,0,0-2.782-.57c-.08,0-.159-.132-.318-.278-.106.331-.2.57-.278.808-.411.093-.808.318-1.232,0-.517-.371-1.1-.676-1.616-1.06a5.164,5.164,0,0,0-1.8-.821c-.106-.026-.225.04-.45.093.2.212.3.331.424.437.7.715,1.417,1.417,2.133,2.12a1.616,1.616,0,0,1,.517.941c-.133.212-.265.45-.384.662h-1.086c-.835-.874-1.722-1.8-2.623-2.729-.013-.013-.053,0-.079,0a.6.6,0,0,0-.106.026,1.784,1.784,0,0,0,.318,1.364c.477.861,1.047,1.682,1.576,2.53.5.795,1.02,1.576,1.484,2.385a3.968,3.968,0,0,0,1.537,1.828,8.575,8.575,0,0,0,.848.45c.331,0,.676-.026,1.02,0a2.491,2.491,0,0,0,1.4-.344,3.317,3.317,0,0,0,1.894-3.02,4.347,4.347,0,0,0-.331-1.232,2.56,2.56,0,0,0-1.033-1.417c-.291-.2-.583-.384-.861-.57v-1.073c.252-.079.5-.159.782-.252a3.9,3.9,0,0,1,1.59,1.073,4.726,4.726,0,0,1,1.285,2.133,1.973,1.973,0,0,1,.106.556c0,.371-.013.742,0,1.113a4.277,4.277,0,0,1-.768,2.517,4.8,4.8,0,0,1-2.914,2.067,4.419,4.419,0,0,1-3.126-.2,5.589,5.589,0,0,1-2.769-2.583c-.159-.278-.318-.556-.49-.835-.079.013-.159.04-.252.053.159.53.318,1.033.464,1.537a2.124,2.124,0,0,1,.053.583c0,.344-.027.689,0,1.033a3.775,3.775,0,0,1-.994,2.676,4.633,4.633,0,0,1-2.61,1.775c-.159.04-.318.066-.477.093a2.465,2.465,0,0,1-.954.146,5.5,5.5,0,0,1-2.305-.662,1.858,1.858,0,0,0-.6-.2,17.987,17.987,0,0,0-.967,2.173,21.625,21.625,0,0,0-.755,2.265c-.159.755-.344,1.5-.543,2.358a4.061,4.061,0,0,1,2.424-.927c1.457-.026,2.914,0,4.345,0a3.025,3.025,0,0,1,.464.212,1.827,1.827,0,0,1,.742,1.5,11.959,11.959,0,0,1,0,1.378,6.314,6.314,0,0,1-.636,2.318,9.484,9.484,0,0,1-.795.954.99.99,0,0,1-.795-.159l-.371-.742a5.1,5.1,0,0,0,.835-3.895c-1.126,0-2.239-.026-3.338.013a4.6,4.6,0,0,0-1.152.291,3.8,3.8,0,0,0-1.364,1.047,2.107,2.107,0,0,0-.6,1.378c-.066.676-.013,1.351-.013,2.067h3.881c.146.185.278.358.411.53v.6l-.424.424h-3.815c-.2,1.351.185,13.353-.278,14.758-.331.066-.7.132-1.02.185l-.45-.45V142.532c-.821,0-1.616-.04-2.411,0a3.721,3.721,0,0,1-3.153-1.325,3.681,3.681,0,0,1-.715-1.086,2.709,2.709,0,0,1-.278-1.179,10.091,10.091,0,0,0,0-1.55,1.517,1.517,0,0,1,1.06-1.749h3.5a3.605,3.605,0,0,1,1.047.172,9.286,9.286,0,0,1,.98.477,15.938,15.938,0,0,0-.238-1.8,11.233,11.233,0,0,0-.941-2.358,7.5,7.5,0,0,0-1.974-2.424,7.1,7.1,0,0,0-1.881-1.232,4.991,4.991,0,0,0-1.457-.424,3.012,3.012,0,0,1-1.815-.795c-.291-.252-.49-.623-.967-.795a3.1,3.1,0,0,1-.45,2.782,3.6,3.6,0,0,1-2.517,1.722c-2.438.344-4.425-1.047-4.676-4.279a4.117,4.117,0,0,1-3.789,1.364,3.835,3.835,0,0,1-2.994-2.769c-.146-2.716.04-2.689,1.576-4.252h-.98a3.36,3.36,0,0,1-2.358-.954,5.674,5.674,0,0,1-1.06-1.537c-.172-.331,0-.649-.2-.954a.78.78,0,0,1,.053-.927c.119-.159.079-.424.132-.623a4.155,4.155,0,0,1,2.517-2.517,1.06,1.06,0,0,1,.411-.04h1.51l-.57-.57a3.013,3.013,0,0,1-1.073-2.133c0-.3-.291-.583-.053-.914.212-.278-.119-.689.238-.927a3.466,3.466,0,0,1,2.332-2.318,4.143,4.143,0,0,1,2.6,0,3.933,3.933,0,0,1,1.709,1.245,4.691,4.691,0,0,1,1.378-3.391,4.424,4.424,0,0,1,3.524-.927c.146.079.265.132.424.212a1.359,1.359,0,0,1,.212.98c-.212.172-.424.344-.649.517a1,1,0,0,1-.344,0,1.585,1.585,0,0,0-1.4,0,2.215,2.215,0,0,0-1.4,1.921,8.533,8.533,0,0,0,.424,2.318c.278,1.219.517,2.451.874,3.656h1.722c.2.2.4.4.6.609v.6c-.291.185-.57.371-.848.543a.909.909,0,0,0-.954-.172c-.464.2-1.073.238-1.285.835a2.1,2.1,0,0,0-.808,2.305,3.215,3.215,0,0,0,1.126,1.51c.079.079.252.093.371.132a7.041,7.041,0,0,1,.729.3c.318.212.517-.106.768-.146a1.679,1.679,0,0,0,1.47-.954,4.383,4.383,0,0,1,.477-.662,4.679,4.679,0,0,0-.026-1.431,2.121,2.121,0,0,1,.026-1.4h.914c.636.371.53,1.06.755,1.59a2.384,2.384,0,0,1-.172,1.6,4.33,4.33,0,0,1-1.5,2.2c.026.252-.04.49.159.729a12.748,12.748,0,0,1,.755,1.232c.609.98,1.259,1.934,1.815,2.941.225.411.6.556.914.795a1.358,1.358,0,0,0,.994.225c.583-.146,1.272-.2,1.6-.835h.967c.119.172.238.358.344.5,0,.53-.4.808-.729,1.166a11.1,11.1,0,0,1,4.345,4.716,37.878,37.878,0,0,1,2.212-5.71,1.964,1.964,0,0,0-.159-1.007,6.079,6.079,0,0,1-.517-1.921c-.159-.609.2-1.192.185-1.8.318-.344.093-.729.079-1.1a10.682,10.682,0,0,0-.623.954,6.036,6.036,0,0,1-1.735,1.788,5.622,5.622,0,0,1-2.9.861,2.464,2.464,0,0,1-.7-.159,4.651,4.651,0,0,1-2.676-1.417,5.378,5.378,0,0,1-1.431-3.365,3.66,3.66,0,0,1,.2-1.378,4.654,4.654,0,0,1,1.55-2.53,16.957,16.957,0,0,1,1.709-1.073v-.2a4.714,4.714,0,0,0-1.113.106,2.974,2.974,0,0,1-1.457.238c-.318-.053-.636-.106-.954-.172a4.516,4.516,0,0,1-2.4-1.245,5.758,5.758,0,0,1-1.086-1.51,7.893,7.893,0,0,1-.517-2.014c-.04-.212.132-.464.146-.7a4.043,4.043,0,0,1,1.311-2.808,2.12,2.12,0,0,0,.238-.331Zm16.824,0a2.979,2.979,0,0,0-1.934.689,3.69,3.69,0,0,0-1.47,2.53,3.412,3.412,0,0,0,.662,2.623,3.238,3.238,0,0,0,1.841,1.417c.358.093.715.2,1.073.3.49-.066.98-.132,1.537-.212a5.714,5.714,0,0,0,1.391-.967A3.3,3.3,0,0,0,507,109.52c-.013-.146,0-.291,0-.424a3.544,3.544,0,0,0-1.828-3.007A3.775,3.775,0,0,0,502.877,105.612Zm-4.756,2.265a11.348,11.348,0,0,0-2.027-.384c-.3-.252-.715-.212-1.06-.331a9.393,9.393,0,0,0-1.033-.185,4.812,4.812,0,0,0-1.06-.318,6.053,6.053,0,0,1-1.126-.212,10.484,10.484,0,0,1-1.722-.384,2.584,2.584,0,0,0-1.974.185,3.174,3.174,0,0,0-2.053,3.047v.861a5.6,5.6,0,0,0,1.206,1.735,2.618,2.618,0,0,0,1.841.755,5.986,5.986,0,0,0,1.815-.159c.689-.212,1.4-.358,2.106-.517a7.5,7.5,0,0,1,.782-.2c.636-.093,1.245-.3,1.881-.411a9.923,9.923,0,0,1,2.053-.424c.053,0,.093-.04.159-.066.066-.066.132-.159.2-.225l-.265-.57h-4.014l-.53-.4v-.729a1.42,1.42,0,0,1,1.139-.424c1.139.013,2.279,0,3.4,0,.093-.212.185-.411.3-.649Zm22.269.45a3.46,3.46,0,0,0-1.245-1.629,2.921,2.921,0,0,0-1.828-.742c-.291,0-.623-.132-.9.093s-.689-.106-.927.238a21.526,21.526,0,0,0-2.437.517c-.649.132-1.3.4-1.934.477-.9.106-1.709.477-2.544.583v.662h4.08c.252.185.411.318.517.4v.848c-.106.132-.172.225-.238.3H508.8l-.291.291c.066.172.133.358.212.543.782,0,1.417.45,2.146.358.2.344.623.066.914.318.212.185.623.132.941.2a5.782,5.782,0,0,1,.954.185,15.429,15.429,0,0,0,1.722.4,5.9,5.9,0,0,0,1.6.278c.371-.027.742,0,1.033,0a6.109,6.109,0,0,0,1.179-.623,3,3,0,0,0,1.206-2.49c-.027-.4,0-.795,0-1.206Zm-9.989-6.134c.265.7.238.874-.212,1.351-.093.106-.2.2-.3.3l-2,2a2.48,2.48,0,0,0-.265.371c.57.212.994-.132,1.457-.185.755-.623,1.656-1.007,2.451-1.563.848-.6,1.762-1.113,2.663-1.643a6.937,6.937,0,0,0,1.378-1.033,3.5,3.5,0,0,0,.874-1.788,3.216,3.216,0,0,0-.45-2.12,2.511,2.511,0,0,0-.848-1.007c-.4-.238-.755-.662-1.311-.543a2.908,2.908,0,0,0-3.047.782c-.344.344-.768.649-.848,1.192-1.166,1.55-2.053,3.285-3.14,4.875a2.077,2.077,0,0,0-.411,1.735h.132c1.007-.967,2.014-1.934,3.06-2.954.238.066.517.132.835.225Zm-10.518,11.658-2.755,2.755h-.689c-.132-.132-.278-.278-.424-.437v-.861l2.835-2.835c-.04-.04-.119-.106-.225-.2-.132.066-.252.2-.358.185a2.808,2.808,0,0,0-1.55.609c-1.219.729-2.4,1.55-3.6,2.305a10.008,10.008,0,0,0-2.252,1.616,2.552,2.552,0,0,0-.689,1.7c-.026.477,0,.967,0,1.4a6.033,6.033,0,0,0,2.384,2.345h1.378c.146,0,.318.053.424,0a4.528,4.528,0,0,0,2-1.51c.583-.954,1.113-1.961,1.762-2.875.6-.835,1.02-1.775,1.656-2.6a1.4,1.4,0,0,0,.384-1.047c-.013-.106.106-.238.159-.358.013-.04-.027-.106-.04-.185-.093,0-.212-.013-.371-.026Zm4.8-9.777a1.835,1.835,0,0,0,.238-.662c-.066-.7.49-1.3.358-2,.344-.212.066-.623.318-.914.159-.172,0-.556.172-.861a3.6,3.6,0,0,0,.2-.941,4.517,4.517,0,0,1,.2-.941c.185-.331-.026-.742.3-.994.013-.609.344-1.219.146-1.815a3.962,3.962,0,0,0-.715-1.51,3.861,3.861,0,0,0-1.735-1.206c-.252-.066-.517-.079-.782-.159-.238-.079-.57.079-.861.146a2.055,2.055,0,0,0-.768.2,3.264,3.264,0,0,0-1.8,2.928c.013.464.08.927.133,1.391a16.962,16.962,0,0,1,.556,2.782c.331.45.252,1.02.464,1.523s.2,1.1.384,1.643a8.057,8.057,0,0,1,.238,1.272c.172.04.371.093.609.159v-4.093c.079-.53.53-.6.927-.768.265.2.556.4.848.609v4.213h.556Zm-2.994,10.651a6.633,6.633,0,0,1-.212,1.431c-.344.914-.424,1.881-.676,2.808-.159.57-.252,1.153-.4,1.722a13.743,13.743,0,0,0-.464,2.636,2.929,2.929,0,0,0,1.51,2.7,3.064,3.064,0,0,0,3.709-.093,3.253,3.253,0,0,0,1.47-3.06c0-.358-.291-.7-.3-1.06a4.572,4.572,0,0,0-.2-1.047,8.254,8.254,0,0,0-.291-1.086c-.119-.331.079-.729-.225-1.02-.291-1.311-.57-2.623-.861-3.934a.983.983,0,0,0-.106-.2c-.212.106-.4.212-.57.291V118.1a1.5,1.5,0,0,1-.291,1.1c-.265.066-.556.132-.782.185a1.631,1.631,0,0,1-.662-1.431c.04-1.007,0-2,0-3.007a1.118,1.118,0,0,0-.053-.225h-.609Zm-5.272-12.7a1.371,1.371,0,0,1,1.206.49l2.305,2.305c.08.079.212.093.358.159-.066-.384-.106-.662-.159-.954a1.388,1.388,0,0,0-.172-.53c-.358-.45-.6-.954-.914-1.417-1.033-1.563-2-3.179-3.034-4.743a1.193,1.193,0,0,0-.477-.45,6.837,6.837,0,0,0-1.378-.623,2.82,2.82,0,0,0-1.325-.04,3.388,3.388,0,0,0-2.557,2.371,6.5,6.5,0,0,0-.093,1.245,2.722,2.722,0,0,0,1.02,2.226,9.933,9.933,0,0,0,1.735,1.166c1.272.795,2.544,1.576,3.815,2.371a2.772,2.772,0,0,0,.888.517c.358.066.729.411,1.219.04l-2.835-2.835v-.835c.159-.172.291-.318.411-.45Zm-17.42,14.466c-.132-.093-.212-.2-.3-.212-.53-.093-1.047-.212-1.576-.331a9.265,9.265,0,0,0-1.391-.344,7.486,7.486,0,0,1-1.974-.424,2.207,2.207,0,0,0-2.808,2.08c.013.225,0,.45,0,.6.146.265.238.45.344.636a2.2,2.2,0,0,0,2.067,1.033c.517-.146,1.06-.212,1.563-.358.954-.252,1.921-.477,2.888-.662a9.8,9.8,0,0,0,1.206-.384V116.5Zm-5.153-5.683a4.744,4.744,0,0,1,.344.583,1.525,1.525,0,0,0,.729.742c1.285.782,2.544,1.576,3.815,2.385a2.316,2.316,0,0,0,1.047.371,1.864,1.864,0,0,1,.954-.98,4.4,4.4,0,0,0-.4-1.033c-.848-1.206-1.563-2.5-2.371-3.736a2.82,2.82,0,0,0-1.417-1.086,1.775,1.775,0,0,0-1.192.106,2.032,2.032,0,0,0-1.5,1.987v.636Zm0,14.042a3.985,3.985,0,0,1,.344.649c.132.464.583.57.9.795a1.612,1.612,0,0,0,.994.238,2.4,2.4,0,0,0,1.126-.358,3.071,3.071,0,0,0,.768-.874c.623-.9,1.166-1.855,1.749-2.782a10.9,10.9,0,0,0,1.033-1.894c-.2-.159-.384-.278-.543-.424s-.291-.358-.477-.57a5.262,5.262,0,0,0-.689.238c-.4.212-.782.45-1.166.689-.821.5-1.629,1.033-2.451,1.537a3.084,3.084,0,0,0-1.444,1.457c-.185.464-.04.888-.146,1.3Zm11.353,3.246v-.6a4.172,4.172,0,0,0-.159-1.563,4.655,4.655,0,0,1-.331-1.311,13.617,13.617,0,0,0-.358-1.656c-.119-.583-.252-1.153-.384-1.775-.583.371-1.219.132-1.8.238a21.462,21.462,0,0,1-.437,2.159c-.331,1.047-.477,2.133-.768,3.193a1.726,1.726,0,0,0,.106,1.219,1.872,1.872,0,0,0,1.682,1.3c.265.358.53.026.808,0a1.263,1.263,0,0,0,.888-.344c.278-.3.556-.609.795-.874Zm10.836,12.89a6.764,6.764,0,0,0-.252-2.557l-.609-.609a2.043,2.043,0,0,0-1.378-.6c-.9-.053-1.815-.013-2.755-.013,0,.477-.026.914,0,1.325a3.78,3.78,0,0,0,.212,1.02,2.542,2.542,0,0,0,1.139,1.139,2.8,2.8,0,0,0,1.086.278c.821.04,1.656,0,2.557,0ZM479.3,108.01h-.053v.172h.053Zm-.053,18.546h.053v-.172h-.053Z" transform="translate(-469.154 -90.51)"/><path d="M495.027,129.268c-.132-.172-.265-.344-.411-.53h-3.881c0-.7-.053-1.391.013-2.067a2.134,2.134,0,0,1,.6-1.378,3.959,3.959,0,0,1,1.364-1.047,4.1,4.1,0,0,1,1.153-.291c1.113-.04,2.212-.013,3.338-.013a5.1,5.1,0,0,1-.835,3.895l.371.742a2.362,2.362,0,0,0-.543.291,1.4,1.4,0,0,1-1.179.384Z" transform="translate(-462.152 -79.656)" fill="#95d779"/><path d="M495,101.912a3.684,3.684,0,0,1,2.292.477,3.544,3.544,0,0,1,1.828,3.007c0,.146-.013.291,0,.424a3.348,3.348,0,0,1-1.02,2.477,5.576,5.576,0,0,1-1.391.967c-.556.079-1.047.146-1.537.212.079-.358-.238-.5-.424-.676-.57-.5-.7-1.258-1.113-1.855.04-.729-.437-1.444,0-2.173a2.96,2.96,0,0,1,.835-1.881,5.526,5.526,0,0,0,.543-.98Z" transform="translate(-461.264 -86.809)" fill="#fbd202"/><path d="M481.555,108.52c.5.093.729.517,1.033.861a2.041,2.041,0,0,0-.026,1.4,4.3,4.3,0,0,1,.026,1.431,4.384,4.384,0,0,0-.477.662,1.679,1.679,0,0,1-1.47.954c-.252.04-.45.358-.768.146a3.248,3.248,0,0,0-.729-.3c0-.053.026-.132,0-.172-.278-.49-.556-.967-.861-1.47,0-.384-.026-.782,0-1.179s.106-.755.159-1.126c.225-.6.821-.636,1.285-.835a.879.879,0,0,1,.954.172c.278-.172.556-.358.848-.543Z" transform="translate(-466.193 -84.661)" fill="#f9d003"/><path d="M490.669,129.536c-.9,0-1.722.027-2.557,0a2.8,2.8,0,0,1-1.086-.278,2.48,2.48,0,0,1-1.139-1.139,3.886,3.886,0,0,1-.212-1.02c-.04-.424,0-.848,0-1.325.941,0,1.841-.04,2.755.013a1.984,1.984,0,0,1,1.378.6c.2.212.4.411.609.609a6.763,6.763,0,0,1,.252,2.557Z" transform="translate(-463.795 -79.063)" fill="#92d377"/><path d="M495.471,101.912a6.032,6.032,0,0,1-.543.98,3.029,3.029,0,0,0-.835,1.881c-.437.729.04,1.444,0,2.173.411.6.543,1.351,1.113,1.855.2.172.5.318.424.676-.358-.106-.715-.212-1.073-.3a3.238,3.238,0,0,1-1.841-1.417,3.36,3.36,0,0,1-.662-2.623,3.768,3.768,0,0,1,1.47-2.53,2.934,2.934,0,0,1,1.934-.689Z" transform="translate(-461.735 -86.81)" fill="#f3c100"/><path d="M478.614,109.42c-.053.371-.132.755-.159,1.126-.026.4,0,.795,0,1.179.291.5.583.98.861,1.47.026.04,0,.106,0,.172-.132-.04-.291-.04-.371-.132a3.215,3.215,0,0,1-1.126-1.51,2.145,2.145,0,0,1,.808-2.305Z" transform="translate(-466.351 -84.369)" fill="#eebd00"/></g><g transform="translate(479.455 105.483)"><path d="M490.628,121.073a2.611,2.611,0,0,0-.3-1.3,4.254,4.254,0,0,1-2.808-2.954,1.855,1.855,0,0,1,0-.715h-.066a9.621,9.621,0,0,1-1.378-.424c-.517-.146-1.033-.291-1.55-.411-.093-.026-.172-.132-.291-.238l.093-1.616c.4-.106.808-.252,1.219-.318.98-.132,1.947-.3,2.928-.5l.265-.04a8,8,0,0,1,1.908-1.749h-.079c-.3-.013-.609-.04-.98-.053.066-.066.132-.119.185-.172a1.24,1.24,0,0,1-1.086-.808c-.053-.132-.093-.252-.146-.371-.146.079-.278.159-.437.238-.848.45-1.682.927-2.53,1.391-.4.212-.795.437-1.206.623a5.431,5.431,0,0,1-.7.2c-.172-.225-.291-.424-.437-.6s-.331-.291-.517-.464a10.939,10.939,0,0,1,1.139-1.841l.2-.278a1.57,1.57,0,0,1-.384-.4c-.967-1.55-.5-4,.662-5.511a3.728,3.728,0,0,0-4.067-2.49,3.878,3.878,0,0,0-3.325,3.511c.49,1.1.848,2.252,1.259,3.4.53,1.47,1.02,2.954,1.537,4.411a.291.291,0,0,0,.106-.013c.252-.026.464-.331.768-.106a4.315,4.315,0,0,0,.7.344,1.546,1.546,0,0,1,.371.146,3.225,3.225,0,0,1,1.047,1.576,2.131,2.131,0,0,1-.941,2.265.706.706,0,0,1-.172.252c.265.477.556.927.848,1.391a1.833,1.833,0,0,0,.914-.874,2.239,2.239,0,0,1,1.02.424c1.219.874,2.438,1.735,3.669,2.6a1.554,1.554,0,0,1,.676.782,4.349,4.349,0,0,0,.3.609c0,.185-.026.411-.04.636a2,2,0,0,1-1.4,1.828,10.6,10.6,0,0,1,1.192,1.245,3.392,3.392,0,0,0,1.523-1.8c.371-.225.066-.649.291-.914.265-.318,0-.623,0-.914Zm-9.233-11.168c-.6.079-1.206-.2-1.815.146-.106-.636-.2-1.219-.291-1.8a11.833,11.833,0,0,1-.265-1.669,4.136,4.136,0,0,0-.265-1.325,4.459,4.459,0,0,1-.079-1.563c0-.172.013-.344.026-.6l.835-.835a1.231,1.231,0,0,1,.914-.291c.278,0,.556-.318.808.053a1.862,1.862,0,0,1,1.6,1.391,1.8,1.8,0,0,1,.04,1.232c-.358,1.033-.556,2.12-.954,3.14a20.928,20.928,0,0,0-.556,2.133Z" transform="translate(-476.93 -100.256)" fill="#060606"/><path d="M479.843,111.685a14.639,14.639,0,0,0,.848,1.709.932.932,0,0,0,.172-.252,10.576,10.576,0,0,0,.225-1.126c.053-.4.053-.795.066-1.179-.265-.517-.517-1.007-.768-1.51-.026-.04,0-.106,0-.172a5.757,5.757,0,0,1-.7-.344c-.3-.225-.517.079-.768.106a.291.291,0,0,0-.106.013c.331.927.662,1.841,1.047,2.742Z" transform="translate(-476.319 -97.504)" fill="#f9d003"/><path d="M480.47,113.037a10.577,10.577,0,0,0,.225-1.126c.053-.4.053-.795.066-1.179-.265-.517-.517-1.007-.768-1.51-.026-.04,0-.106,0-.172a1.548,1.548,0,0,1,.371.146,3.225,3.225,0,0,1,1.047,1.576,2.131,2.131,0,0,1-.941,2.265Z" transform="translate(-475.939 -97.4)" fill="#eebd00"/></g><path d="M525.119,84.63h-2.159c-.093.106-.159.252-.265.318a3.1,3.1,0,0,0-1.868,2.676c-.093,1.722-.04,3.458-.04,5.193,0,.371-.172.583-.49.45a2.605,2.605,0,0,1-1.523-1.033c-1.457-2.6-3.418-3.206-6.16-2.173-1.987.742-2.848,2.557-1.6,4.491A13.133,13.133,0,0,0,512.9,96.5c.848.848,1.7,1.682,2.543,2.53a.552.552,0,0,1-.411.119,12.9,12.9,0,0,0-6.69.437,3.032,3.032,0,0,0-2.186,2.04c-.026.093-.172.159-.252.238v1.908a2.452,2.452,0,0,1,.384.53,2.461,2.461,0,0,0,1.378,1.417,9.553,9.553,0,0,0,4.04.583c1.139-.053,2.265-.159,3.4-.225.411-.026.821,0,1.351,0-.172.212-.252.318-.358.424a10.933,10.933,0,0,1-3.206,2.133,2.154,2.154,0,0,0-1.338,1.351,5.368,5.368,0,0,1-.742,1.417,2.326,2.326,0,0,0-.212,2.835,5.172,5.172,0,0,0,2.941,2.292,2.733,2.733,0,0,0,2.861-.49,9.013,9.013,0,0,0,1.1-1.364c.861-1.3,1.669-2.636,2.557-3.908a11.906,11.906,0,0,1,1.351-1.378c.159.53.252.848.344,1.179-.066-.026-.132-.04-.2-.066a6.161,6.161,0,0,0-.636,1.7c-.119,1.881-.132,3.762-.146,5.643a2.119,2.119,0,0,0,1.086,1.881,3.9,3.9,0,0,0,2.756.49c1.4-.2,2.914-.768,3.179-2.345a6.006,6.006,0,0,0,.026-1.947c-.3-1.762-1.113-3.418-1.113-5.259a4.9,4.9,0,0,0-.331-1.417,1.98,1.98,0,0,0-1.841-1.5l-2.318-.159a1.907,1.907,0,0,0-1.55-1.722c-.556-.172-1.113-.371-1.709-.57a2.146,2.146,0,0,0-.093-2.437,3.954,3.954,0,0,0,.914-3.206,2.358,2.358,0,0,0,2.212-1.762c1.325.609,2.411,1.749,3.948,1.656a2.837,2.837,0,0,1,2.61,1.206c.278.358.424.543.212.954a4.065,4.065,0,0,0-.3,3.193.546.546,0,0,1-.013.411,9.274,9.274,0,0,1-.98,1.272,2.591,2.591,0,0,0-.358,3.219,16.368,16.368,0,0,0,4.928,5.869c1.047.835,2.106,1.219,3.338.291a1.543,1.543,0,0,1,1.02-.093,1.77,1.77,0,0,0,2.212-1.3,1.088,1.088,0,0,1,.57-.543c.079-.04.358.265.49.45.477.689.835,1.484,1.749,1.749s.914.278.874,1.232c0,.172-.053.331-.066.5-.146,1.272-.344,2.543-.424,3.828a2.659,2.659,0,0,0,1.523,2.808c.053.026.079.146.119.212h1.4c1.669-1.947,2.464-4.385,3.669-6.438a24.591,24.591,0,0,0,2.543,2.014,1.849,1.849,0,0,0,2.8-1.285,4.8,4.8,0,0,0-.146-2.08,6.563,6.563,0,0,0-2.173-2.981,2.24,2.24,0,0,1-.344-.543l.172-.119a4.709,4.709,0,0,0,.914.49,3.548,3.548,0,0,0,1.126.132,3.142,3.142,0,0,0,3.166-2.424c.026-.093.159-.159.239-.238v-1.523c-.133-.146-.292-.278-.411-.437a2.019,2.019,0,0,0-1.616-.848c-.874-.026-1.749-.172-2.835-.291.411-.49.7-.861,1.02-1.206a6.35,6.35,0,0,0,.954-1.033,8.012,8.012,0,0,0,.437-1.311,1.7,1.7,0,0,0-.477-1.947,3.778,3.778,0,0,1-.623-.755,1.792,1.792,0,0,0-2.212-.848c-1.55.318-2.994,1.192-4.663.927a1.04,1.04,0,0,0-.186.026,2,2,0,0,0-1.311,3.1,1.8,1.8,0,0,1,.079.927c-.027.371-.238.742-.172,1.1a2,2,0,0,0,2.053,1.7c.53,0,.609.238.517.676a1.024,1.024,0,0,1-.556.755,2.218,2.218,0,0,0-.967,1.007,7.985,7.985,0,0,0-.212,1.8c-.026.238-.066.49-.119.782a8.8,8.8,0,0,0-1.086-.53,3.814,3.814,0,0,1-2.517-2.146,1.837,1.837,0,0,0-2.053-1.153c-.49.066-.954.331-1.444.437a1.231,1.231,0,0,1-.848-.013c-.941-.636-1.815-1.378-2.769-1.987-.57-.371-1.007-.689-.7-1.444a.73.73,0,0,0-.04-.371c-.079-.384-.172-.755-.265-1.126a16.242,16.242,0,0,1,1.961,1.073,4.476,4.476,0,0,0,4.372.238,5.116,5.116,0,0,0,2.557-3.8,4,4,0,0,0-.252-2.716,4.241,4.241,0,0,0-3.987-2.239,6.123,6.123,0,0,0-3.471,1.06,1.673,1.673,0,0,1-1.762-.04c.98-.994,2.014-1.934,2.928-2.981a5.164,5.164,0,0,0,1.325-2.967c.2-2.358-2.332-3.8-4.146-3.987-1.391-.146-2.226.768-2.914,1.735-1.007,1.4-1.881,2.9-2.782,4.385a.766.766,0,0,1-1.1.4c.2-.609.411-1.192.583-1.8.424-1.51,1.086-2.994.768-4.637a.553.553,0,0,1,.132-.331,1.54,1.54,0,0,0-.04-1.974,6.277,6.277,0,0,0-2.358-1.881,3.933,3.933,0,0,1-.464-.358Z" transform="translate(11.936 0.153)" fill="#f6c59d"/><path d="M527.9,115.7h.967c.318.636,1.007.676,1.6.835a1.331,1.331,0,0,0,.994-.225,2.471,2.471,0,0,0,.914-.795c.556-1.007,1.206-1.961,1.815-2.941a10.577,10.577,0,0,1,.755-1.232c.185-.238.132-.464.159-.729a4.223,4.223,0,0,1-1.5-2.2,2.4,2.4,0,0,1-.172-1.6c.225-.53.119-1.219.755-1.59h.914c.3-.344.517-.768,1.033-.861v-.6c.2-.212.4-.411.6-.609h1.722c.358-1.206.583-2.437.874-3.656a8.536,8.536,0,0,0,.424-2.318,2.193,2.193,0,0,0-1.4-1.921,1.585,1.585,0,0,0-1.4,0c-.08.053-.225,0-.344,0-.212-.172-.424-.344-.649-.517a.454.454,0,0,0-.49.225c-.146.212-.278.437-.4.623h-.49a3,3,0,0,0,.238.331,4.043,4.043,0,0,1,1.311,2.808c0,.238.185.49.146.7a8.645,8.645,0,0,1-.517,2.014,5.845,5.845,0,0,1-1.086,1.51,4.426,4.426,0,0,1-2.4,1.245c-.318.066-.636.119-.954.172a3.134,3.134,0,0,1-1.457-.238,4.716,4.716,0,0,0-1.113-.106v.2a18.584,18.584,0,0,1,1.709,1.073,4.637,4.637,0,0,1,1.55,2.53,3.992,3.992,0,0,1,.2,1.378,5.44,5.44,0,0,1-1.431,3.365,4.771,4.771,0,0,1-2.676,1.417,2.466,2.466,0,0,1-.7.159.736.736,0,0,0,.053.3,3.732,3.732,0,0,1,.45,1.232Z" transform="translate(18.915 3.433)" fill="#f6c59d"/><g transform="translate(517.537 84.16)"><path d="M541.7,99.262a5.155,5.155,0,0,0-2.04-1.086,3.3,3.3,0,0,0-.464-.106c-.344-.013-.689,0-1.033,0a6.326,6.326,0,0,0-2.173.344c-.08.026-.159,0-.358-.026a2.737,2.737,0,0,1,.729-.556,6.448,6.448,0,0,0,2.4-2.226,2.132,2.132,0,0,0,.3-.808,3.908,3.908,0,0,0,.079-2.491,1.571,1.571,0,0,1,0-.609c-.331-.5-.53-1.007-.835-1.444a5.121,5.121,0,0,0-2.067-1.643,5.746,5.746,0,0,0-3.047-.278,3.706,3.706,0,0,0-2.12,1.073,8.541,8.541,0,0,0-1.828,2.517,4.111,4.111,0,0,1,.2-1.894,4.092,4.092,0,0,0-.04-1.788c-.079-.278-.146-.57-.212-.861a3.784,3.784,0,0,0-1.033-1.669,4.992,4.992,0,0,0-1.563-1.153,6.675,6.675,0,0,0-1.55-.4,10.937,10.937,0,0,0-1.735.132,5.292,5.292,0,0,0-2.186,1.166A4.923,4.923,0,0,0,519.617,88a5.32,5.32,0,0,0-.04.927,6.827,6.827,0,0,0,.517,2.967c-.146-.026-.252-.013-.292-.066-.371-.53-.729-1.073-1.073-1.616a3.576,3.576,0,0,0-2.08-1.616,4.256,4.256,0,0,1-.636-.331c-.543,0-1.166.026-1.788,0a3.518,3.518,0,0,0-2.318.795,4.614,4.614,0,0,0-1.788,2.239,3.377,3.377,0,0,0-.3,1.245c.027.318,0,.636,0,.941a3.916,3.916,0,0,0,1.02,2.755A7.529,7.529,0,0,0,513.59,98.3c-.464.318-.914-.013-1.325-.106a4.9,4.9,0,0,0-1.311-.132,6.99,6.99,0,0,0-1.735.146,4.526,4.526,0,0,0-2.491,1.735,6.22,6.22,0,0,0-.662,1.1,4.312,4.312,0,0,0-.384,1.47,6.561,6.561,0,0,0,.318,2.265,3.811,3.811,0,0,0,.676,1.179,5.247,5.247,0,0,0,1.55,1.4,4.749,4.749,0,0,0,1.179.464,5.431,5.431,0,0,0,2.358.053,13.3,13.3,0,0,1,2.782-.57c.079,0,.159-.132.318-.278.106.331.2.57.278.808.411.093.808.318,1.232,0,.517-.371,1.1-.676,1.616-1.06a5.165,5.165,0,0,1,1.8-.821c.106-.026.225.04.45.093-.2.212-.3.331-.424.437-.7.715-1.417,1.417-2.133,2.12a1.616,1.616,0,0,0-.517.941c.132.212.265.45.384.662h1.086c.835-.874,1.722-1.8,2.623-2.729.013-.013.053,0,.079,0a.6.6,0,0,1,.106.026,1.783,1.783,0,0,1-.318,1.364c-.477.861-1.047,1.682-1.576,2.53-.5.795-1.02,1.576-1.484,2.385a3.968,3.968,0,0,1-1.537,1.828,8.589,8.589,0,0,1-.848.45c-.331,0-.676-.026-1.02,0a2.49,2.49,0,0,1-1.4-.344,3.317,3.317,0,0,1-1.894-3.02,4.347,4.347,0,0,1,.331-1.232,2.561,2.561,0,0,1,1.033-1.417c.292-.2.583-.384.861-.57V108.4c-.252-.079-.5-.159-.782-.252a3.9,3.9,0,0,0-1.59,1.073,4.724,4.724,0,0,0-1.285,2.133,1.969,1.969,0,0,0-.106.556c0,.371.013.742,0,1.113a4.277,4.277,0,0,0,.768,2.517,4.8,4.8,0,0,0,2.914,2.067,4.419,4.419,0,0,0,3.126-.2,5.588,5.588,0,0,0,2.769-2.583c.159-.278.318-.556.49-.835.079.013.159.04.252.053-.159.53-.318,1.033-.464,1.537a2.126,2.126,0,0,0-.053.583c0,.344.027.689,0,1.033a3.774,3.774,0,0,0,.994,2.676,4.633,4.633,0,0,0,2.61,1.775c.159.04.318.066.477.093a2.465,2.465,0,0,0,.954.146,5.5,5.5,0,0,0,2.3-.662,1.858,1.858,0,0,1,.6-.2,18,18,0,0,1,.967,2.173,21.623,21.623,0,0,1,.755,2.265c.159.755.344,1.5.543,2.358a4.061,4.061,0,0,0-2.424-.927c-1.457-.026-2.914,0-4.345,0a3.026,3.026,0,0,0-.464.212,1.827,1.827,0,0,0-.742,1.5,11.952,11.952,0,0,0,0,1.378,6.314,6.314,0,0,0,.636,2.318,9.475,9.475,0,0,0,.795.954.99.99,0,0,0,.795-.159l.371-.742a5.1,5.1,0,0,1-.835-3.895c1.126,0,2.239-.026,3.338.013a4.6,4.6,0,0,1,1.153.291,3.806,3.806,0,0,1,1.365,1.047,2.107,2.107,0,0,1,.6,1.378c.066.676.013,1.351.013,2.067H526.2c-.146.185-.278.358-.411.53v.6l.424.424h3.815c.2,1.351-.185,18.652.278,20.056.331.066.7.132,1.02.185l.451-.45V136.182c.821,0,1.616-.04,2.411,0a3.721,3.721,0,0,0,3.153-1.325,3.683,3.683,0,0,0,.715-1.086,2.71,2.71,0,0,0,.278-1.179,10.092,10.092,0,0,1,0-1.55,1.516,1.516,0,0,0-1.06-1.749h-3.5a3.6,3.6,0,0,0-1.047.172,9.291,9.291,0,0,0-.98.477,15.938,15.938,0,0,1,.238-1.8,11.227,11.227,0,0,1,.941-2.358,7.5,7.5,0,0,1,1.974-2.424,7.1,7.1,0,0,1,1.881-1.232,4.991,4.991,0,0,1,1.457-.424,3.012,3.012,0,0,0,1.815-.795c.291-.252.49-.623.967-.795a3.1,3.1,0,0,0,.45,2.782,3.6,3.6,0,0,0,2.517,1.722c2.438.344,4.425-1.047,4.676-4.279a4.117,4.117,0,0,0,3.789,1.364,3.835,3.835,0,0,0,2.994-2.769c.146-2.716-.04-2.689-1.576-4.252h.98a3.36,3.36,0,0,0,2.358-.954,5.675,5.675,0,0,0,1.06-1.537c.172-.331,0-.649.2-.954a.78.78,0,0,0-.053-.927c-.119-.159-.079-.424-.132-.623a4.155,4.155,0,0,0-2.517-2.517,1.061,1.061,0,0,0-.411-.04h-1.51l.57-.57a3.013,3.013,0,0,0,1.073-2.133c0-.3.291-.583.053-.914-.212-.278.119-.689-.238-.927a3.466,3.466,0,0,0-2.332-2.318,4.143,4.143,0,0,0-2.6,0,3.932,3.932,0,0,0-1.709,1.245,4.692,4.692,0,0,0-1.378-3.391,4.424,4.424,0,0,0-3.524-.927c-.146.079-.265.132-.424.212a1.358,1.358,0,0,0-.212.98c.212.172.424.344.649.517a1,1,0,0,0,.344,0,1.585,1.585,0,0,1,1.4,0,2.215,2.215,0,0,1,1.4,1.921,8.529,8.529,0,0,1-.424,2.318c-.278,1.219-.517,2.451-.874,3.656h-1.722c-.2.2-.4.4-.6.609v.6c.291.185.57.371.848.543a.909.909,0,0,1,.954-.172c.464.2,1.073.238,1.285.835a2.1,2.1,0,0,1,.808,2.305,3.215,3.215,0,0,1-1.126,1.51c-.079.079-.252.093-.371.132a7.04,7.04,0,0,0-.729.3c-.318.212-.517-.106-.768-.146a1.679,1.679,0,0,1-1.471-.954,4.389,4.389,0,0,0-.477-.662,4.679,4.679,0,0,1,.026-1.431,2.12,2.12,0,0,0-.026-1.4h-.914c-.636.371-.53,1.06-.755,1.59a2.383,2.383,0,0,0,.172,1.6,4.33,4.33,0,0,0,1.5,2.2c-.027.252.04.49-.159.729a12.748,12.748,0,0,0-.755,1.232c-.609.98-1.259,1.934-1.815,2.941-.225.411-.6.556-.914.795a1.358,1.358,0,0,1-.994.225c-.583-.146-1.272-.2-1.6-.835h-.967c-.119.172-.238.358-.344.5,0,.53.4.808.729,1.166a11.1,11.1,0,0,0-4.345,4.716,37.871,37.871,0,0,0-2.212-5.71,1.964,1.964,0,0,1,.159-1.007,6.08,6.08,0,0,0,.517-1.921c.159-.609-.2-1.192-.185-1.8-.318-.344-.093-.729-.079-1.1a10.682,10.682,0,0,1,.623.954,6.036,6.036,0,0,0,1.735,1.788,5.622,5.622,0,0,0,2.9.861,2.466,2.466,0,0,0,.7-.159,4.651,4.651,0,0,0,2.676-1.417,5.378,5.378,0,0,0,1.431-3.365,3.66,3.66,0,0,0-.2-1.378,4.655,4.655,0,0,0-1.55-2.53,16.973,16.973,0,0,0-1.709-1.073v-.2a4.716,4.716,0,0,1,1.113.106,2.974,2.974,0,0,0,1.457.238c.318-.053.636-.106.954-.172a4.516,4.516,0,0,0,2.4-1.245,5.758,5.758,0,0,0,1.086-1.51,7.9,7.9,0,0,0,.517-2.014c.04-.212-.132-.464-.146-.7a4.043,4.043,0,0,0-1.311-2.808,2.12,2.12,0,0,1-.238-.331Zm-16.824,0a2.979,2.979,0,0,1,1.934.689,3.69,3.69,0,0,1,1.47,2.53,3.413,3.413,0,0,1-.662,2.623,3.238,3.238,0,0,1-1.841,1.417c-.358.093-.715.2-1.073.3-.49-.066-.98-.132-1.537-.212a5.711,5.711,0,0,1-1.391-.967,3.3,3.3,0,0,1-1.02-2.477c.013-.146,0-.291,0-.424a3.544,3.544,0,0,1,1.828-3.007A3.775,3.775,0,0,1,524.876,99.262Zm4.756,2.265a11.347,11.347,0,0,1,2.027-.384c.3-.252.715-.212,1.06-.331a9.4,9.4,0,0,1,1.033-.185,4.813,4.813,0,0,1,1.06-.318,6.05,6.05,0,0,0,1.126-.212,10.48,10.48,0,0,0,1.722-.384,2.584,2.584,0,0,1,1.974.185,3.174,3.174,0,0,1,2.053,3.047v.861a5.6,5.6,0,0,1-1.206,1.735,2.618,2.618,0,0,1-1.841.755,5.986,5.986,0,0,1-1.815-.159c-.689-.212-1.4-.358-2.106-.517a7.492,7.492,0,0,0-.782-.2c-.636-.093-1.245-.3-1.881-.411a9.924,9.924,0,0,0-2.053-.424c-.053,0-.093-.04-.159-.066-.066-.066-.132-.159-.2-.225l.265-.57h4.014l.53-.4V102.6a1.42,1.42,0,0,0-1.139-.424c-1.139.013-2.279,0-3.4,0-.093-.212-.185-.411-.3-.649Zm-22.269.45a3.46,3.46,0,0,1,1.245-1.629,2.921,2.921,0,0,1,1.828-.742c.292,0,.623-.132.9.093s.689-.106.927.238a21.533,21.533,0,0,1,2.438.517c.649.132,1.3.4,1.934.477.9.106,1.709.477,2.543.583v.662H515.1c-.252.185-.411.318-.517.4v.848c.106.132.172.225.238.3h4.133l.291.291c-.066.172-.132.358-.212.543-.782,0-1.417.45-2.146.358-.2.344-.623.066-.914.318-.212.185-.622.132-.941.2a5.781,5.781,0,0,0-.954.185,15.434,15.434,0,0,1-1.722.4,5.894,5.894,0,0,1-1.6.278c-.371-.026-.742,0-1.033,0a6.107,6.107,0,0,1-1.179-.623,3,3,0,0,1-1.206-2.49c.026-.4,0-.795,0-1.206Zm9.988-6.134c-.265.7-.238.874.212,1.351.093.106.2.2.3.3l2,2a2.479,2.479,0,0,1,.265.371c-.57.212-.994-.132-1.457-.185-.755-.623-1.656-1.007-2.451-1.563-.848-.6-1.762-1.113-2.663-1.643a6.941,6.941,0,0,1-1.378-1.033,3.5,3.5,0,0,1-.874-1.788,3.215,3.215,0,0,1,.45-2.12,2.511,2.511,0,0,1,.848-1.007c.4-.238.755-.662,1.311-.543a2.908,2.908,0,0,1,3.047.782c.344.344.768.649.848,1.192,1.166,1.55,2.053,3.285,3.14,4.875a2.077,2.077,0,0,1,.411,1.735h-.132c-1.007-.967-2.014-1.934-3.06-2.954-.238.066-.517.132-.835.225ZM527.87,107.5l2.755,2.755h.689c.132-.132.278-.278.424-.437v-.861l-2.835-2.835c.04-.04.119-.106.225-.2.132.066.252.2.358.185a2.807,2.807,0,0,1,1.55.609c1.219.729,2.4,1.55,3.6,2.305a10.009,10.009,0,0,1,2.252,1.616,2.552,2.552,0,0,1,.689,1.7c.027.477,0,.967,0,1.4a6.032,6.032,0,0,1-2.385,2.345h-1.378c-.146,0-.318.053-.424,0a4.529,4.529,0,0,1-2-1.51c-.583-.954-1.113-1.961-1.762-2.875-.6-.835-1.02-1.775-1.656-2.6a1.4,1.4,0,0,1-.384-1.047c.013-.106-.106-.238-.159-.358-.013-.04.027-.106.04-.185.093,0,.212-.013.371-.026Zm-4.8-9.777a1.836,1.836,0,0,1-.238-.662c.066-.7-.49-1.3-.358-2-.345-.212-.066-.623-.318-.914-.159-.172,0-.556-.172-.861a3.6,3.6,0,0,1-.2-.941,4.505,4.505,0,0,0-.2-.941c-.185-.331.027-.742-.3-.994-.013-.609-.344-1.219-.146-1.815a3.963,3.963,0,0,1,.715-1.51,3.861,3.861,0,0,1,1.735-1.206c.252-.066.517-.079.782-.159.238-.079.57.079.861.146a2.056,2.056,0,0,1,.768.2A3.264,3.264,0,0,1,527.8,89c-.013.464-.079.927-.132,1.391a16.949,16.949,0,0,0-.556,2.782c-.331.45-.252,1.02-.464,1.523s-.2,1.1-.384,1.643a8.064,8.064,0,0,0-.238,1.272c-.172.04-.371.093-.609.159V93.672c-.079-.53-.53-.6-.927-.768-.265.2-.556.4-.848.609v4.213h-.556Zm2.994,10.651a6.627,6.627,0,0,0,.212,1.431c.344.914.424,1.881.676,2.808.159.57.252,1.153.4,1.722a13.74,13.74,0,0,1,.464,2.636,2.93,2.93,0,0,1-1.51,2.7,3.065,3.065,0,0,1-3.709-.093,3.253,3.253,0,0,1-1.47-3.06c0-.358.291-.7.3-1.06a4.568,4.568,0,0,1,.2-1.047,8.249,8.249,0,0,1,.291-1.086c.119-.331-.079-.729.225-1.02.291-1.311.57-2.623.861-3.934a.98.98,0,0,1,.106-.2c.212.106.4.212.57.291v3.285a1.5,1.5,0,0,0,.291,1.1c.265.066.556.132.782.185a1.631,1.631,0,0,0,.662-1.431c-.04-1.007,0-2,0-3.007a1.126,1.126,0,0,1,.053-.225h.609Zm5.272-12.7a1.371,1.371,0,0,0-1.206.49l-2.3,2.305c-.079.079-.212.093-.358.159.066-.384.106-.662.159-.954a1.39,1.39,0,0,1,.172-.53c.358-.45.6-.954.914-1.417,1.033-1.563,2-3.179,3.034-4.743a1.192,1.192,0,0,1,.477-.45,6.836,6.836,0,0,1,1.378-.623,2.821,2.821,0,0,1,1.325-.04,3.388,3.388,0,0,1,2.557,2.371,6.493,6.493,0,0,1,.093,1.245,2.722,2.722,0,0,1-1.02,2.226,9.93,9.93,0,0,1-1.735,1.166c-1.272.795-2.543,1.576-3.815,2.371a2.77,2.77,0,0,1-.888.517c-.358.066-.729.411-1.219.04l2.835-2.835v-.835c-.159-.172-.291-.318-.411-.45Zm17.42,14.466c.132-.093.212-.2.3-.212.53-.093,1.047-.212,1.576-.331a9.264,9.264,0,0,1,1.391-.344,7.485,7.485,0,0,0,1.974-.424,2.207,2.207,0,0,1,2.809,2.08c-.013.225,0,.45,0,.6-.146.265-.239.45-.345.636a2.2,2.2,0,0,1-2.067,1.033c-.517-.146-1.06-.212-1.563-.358-.954-.252-1.921-.477-2.888-.662a9.8,9.8,0,0,1-1.206-.384v-1.616Zm5.153-5.683a4.746,4.746,0,0,0-.344.583,1.526,1.526,0,0,1-.729.742c-1.285.782-2.543,1.576-3.815,2.385a2.316,2.316,0,0,1-1.047.371,1.864,1.864,0,0,0-.954-.98,4.4,4.4,0,0,1,.4-1.033c.848-1.206,1.563-2.5,2.371-3.736a2.82,2.82,0,0,1,1.417-1.086,1.775,1.775,0,0,1,1.192.106,2.032,2.032,0,0,1,1.5,1.987v.636Zm0,14.042a3.986,3.986,0,0,0-.344.649c-.132.464-.583.57-.9.795a1.612,1.612,0,0,1-.994.238,2.4,2.4,0,0,1-1.126-.358,3.073,3.073,0,0,1-.768-.874c-.623-.9-1.166-1.855-1.749-2.782A10.907,10.907,0,0,1,547,114.271c.2-.159.384-.278.543-.424s.291-.358.477-.57a5.262,5.262,0,0,1,.689.238c.4.212.782.45,1.166.689.821.5,1.629,1.033,2.451,1.537a3.084,3.084,0,0,1,1.444,1.457c.185.464.04.888.146,1.3Zm-11.353,3.246v-.6a4.173,4.173,0,0,1,.159-1.563,4.659,4.659,0,0,0,.331-1.311,13.617,13.617,0,0,1,.358-1.656c.119-.583.252-1.153.384-1.775.583.371,1.219.132,1.8.238a21.462,21.462,0,0,0,.437,2.159c.331,1.047.477,2.133.768,3.193a1.726,1.726,0,0,1-.106,1.219,1.872,1.872,0,0,1-1.682,1.3c-.265.358-.53.026-.808,0a1.263,1.263,0,0,1-.888-.344c-.278-.3-.556-.609-.795-.874Zm-10.836,12.89a6.762,6.762,0,0,1,.252-2.557l.609-.609a2.043,2.043,0,0,1,1.378-.6c.9-.053,1.815-.013,2.755-.013,0,.477.026.914,0,1.325a3.783,3.783,0,0,1-.212,1.02,2.541,2.541,0,0,1-1.139,1.139,2.8,2.8,0,0,1-1.086.278c-.821.04-1.656,0-2.557,0Zm16.731-32.973h.053v.172h-.053Zm.053,18.546h-.053v-.172h.053Z" transform="translate(-505.677 -84.16)" fill="#060606"/><path d="M521.359,122.928c.132-.172.265-.344.411-.53h3.881c0-.7.053-1.391-.013-2.067a2.135,2.135,0,0,0-.6-1.378,3.958,3.958,0,0,0-1.365-1.047,4.1,4.1,0,0,0-1.153-.291c-1.113-.04-2.212-.013-3.338-.013a5.1,5.1,0,0,0,.835,3.895l-.371.742a2.364,2.364,0,0,1,.543.291,1.4,1.4,0,0,0,1.179.384Z" transform="translate(-501.311 -73.303)" fill="#95d779"/><path d="M521.174,95.562a3.684,3.684,0,0,0-2.292.477,3.544,3.544,0,0,0-1.828,3.007c0,.146.013.291,0,.424a3.347,3.347,0,0,0,1.02,2.477,5.577,5.577,0,0,0,1.391.967c.556.079,1.047.146,1.537.212-.079-.358.238-.5.424-.676.57-.5.7-1.258,1.113-1.855-.04-.729.437-1.444,0-2.173a2.96,2.96,0,0,0-.835-1.881,5.526,5.526,0,0,1-.543-.98Z" transform="translate(-501.988 -80.459)" fill="#fbd202"/><path d="M534.3,102.17c-.5.093-.729.517-1.033.861a2.042,2.042,0,0,1,.027,1.4,4.294,4.294,0,0,0-.027,1.431,4.385,4.385,0,0,1,.477.662,1.679,1.679,0,0,0,1.47.954c.252.04.45.358.768.146a3.248,3.248,0,0,1,.729-.3c0-.053-.027-.132,0-.172.278-.49.556-.967.861-1.47,0-.384.026-.782,0-1.179s-.106-.755-.159-1.126c-.225-.6-.821-.636-1.285-.835a.879.879,0,0,0-.954.172c-.278-.172-.556-.358-.848-.543Z" transform="translate(-496.736 -78.311)" fill="#f9d003"/><path d="M525.34,123.2c.9,0,1.722.026,2.557,0a2.8,2.8,0,0,0,1.086-.278,2.48,2.48,0,0,0,1.139-1.139,3.879,3.879,0,0,0,.212-1.02c.04-.424,0-.848,0-1.325-.941,0-1.841-.04-2.755.013a1.984,1.984,0,0,0-1.378.6c-.2.212-.4.411-.609.609a6.761,6.761,0,0,0-.252,2.557Z" transform="translate(-499.292 -72.71)" fill="#92d377"/><path d="M520.2,95.562a6.026,6.026,0,0,0,.543.98,3.029,3.029,0,0,1,.835,1.881c.437.729-.04,1.444,0,2.173-.411.6-.543,1.351-1.113,1.855-.2.172-.5.318-.424.676.358-.106.715-.212,1.073-.3a3.238,3.238,0,0,0,1.841-1.417,3.36,3.36,0,0,0,.662-2.623,3.768,3.768,0,0,0-1.47-2.53,2.934,2.934,0,0,0-1.934-.689Z" transform="translate(-501.016 -80.46)" fill="#f3c100"/><path d="M536.545,103.08c.053.371.132.755.159,1.126.027.4,0,.795,0,1.179-.291.5-.583.98-.861,1.47-.026.04,0,.106,0,.172.132-.04.291-.04.371-.132a3.214,3.214,0,0,0,1.126-1.51,2.145,2.145,0,0,0-.808-2.305Z" transform="translate(-495.885 -78.016)" fill="#eebd00"/></g><g transform="translate(546.369 97.084)"><path d="M527.532,114.733a2.612,2.612,0,0,1,.3-1.3,4.254,4.254,0,0,0,2.808-2.954,1.853,1.853,0,0,0,0-.715h.066a9.623,9.623,0,0,0,1.378-.424c.517-.146,1.033-.291,1.55-.411.093-.026.172-.132.291-.238l-.093-1.616c-.4-.106-.808-.252-1.219-.318-.98-.132-1.947-.3-2.928-.5l-.265-.04a8,8,0,0,0-1.908-1.749h.079c.3-.013.609-.04.98-.053-.066-.066-.132-.119-.185-.172a1.239,1.239,0,0,0,1.086-.808c.053-.132.093-.252.146-.371.146.079.278.159.437.238.848.45,1.682.927,2.53,1.391.4.212.795.437,1.205.623a5.43,5.43,0,0,0,.7.2c.172-.225.291-.424.437-.6s.331-.291.517-.464a10.941,10.941,0,0,0-1.139-1.841l-.2-.278a1.569,1.569,0,0,0,.384-.4c.967-1.55.5-4-.662-5.511a3.728,3.728,0,0,1,4.067-2.49,3.878,3.878,0,0,1,3.325,3.511c-.49,1.1-.848,2.252-1.258,3.4-.53,1.47-1.02,2.954-1.537,4.411a.292.292,0,0,1-.106-.013c-.252-.026-.464-.331-.768-.106a4.311,4.311,0,0,1-.7.344,1.548,1.548,0,0,0-.371.146,3.223,3.223,0,0,0-1.047,1.576,2.131,2.131,0,0,0,.941,2.265.708.708,0,0,0,.172.252c-.265.477-.556.927-.848,1.391a1.834,1.834,0,0,1-.914-.874,2.24,2.24,0,0,0-1.02.424c-1.219.874-2.438,1.735-3.669,2.6a1.554,1.554,0,0,0-.676.782,4.348,4.348,0,0,1-.3.609c0,.185.027.411.04.636a2,2,0,0,0,1.4,1.828,10.587,10.587,0,0,0-1.192,1.245,3.393,3.393,0,0,1-1.524-1.8c-.371-.225-.066-.649-.291-.914-.265-.318,0-.623,0-.914Zm9.233-11.168c.6.079,1.205-.2,1.815.146.106-.636.2-1.219.291-1.8a11.834,11.834,0,0,0,.265-1.669,4.135,4.135,0,0,1,.265-1.325,4.463,4.463,0,0,0,.079-1.563c0-.172-.013-.344-.026-.6l-.835-.835a1.231,1.231,0,0,0-.914-.291c-.278,0-.556-.318-.808.053a1.862,1.862,0,0,0-1.6,1.391,1.8,1.8,0,0,0-.04,1.232c.358,1.033.556,2.12.954,3.14a20.9,20.9,0,0,1,.556,2.133Z" transform="translate(-527.441 -93.916)" fill="#060606"/><path d="M535.512,105.335a14.643,14.643,0,0,1-.848,1.709.933.933,0,0,1-.172-.252,10.584,10.584,0,0,1-.225-1.126c-.053-.4-.053-.795-.066-1.179.265-.517.517-1.007.768-1.51.026-.04,0-.106,0-.172a5.762,5.762,0,0,0,.7-.344c.3-.225.517.079.768.106a.291.291,0,0,1,.106.013c-.331.927-.662,1.841-1.047,2.742Z" transform="translate(-525.246 -91.168)" fill="#f9d003"/><path d="M534.664,106.687a10.554,10.554,0,0,1-.225-1.126c-.053-.4-.053-.795-.066-1.179.265-.517.517-1.007.768-1.51.026-.04,0-.106,0-.172a1.547,1.547,0,0,0-.371.146,3.225,3.225,0,0,0-1.047,1.576,2.131,2.131,0,0,0,.941,2.265Z" transform="translate(-525.405 -91.063)" fill="#eebd00"/></g><path d="M548.389,95.98h-2.159c-.093.106-.159.252-.265.318a3.1,3.1,0,0,0-1.868,2.676c-.093,1.722-.04,3.458-.04,5.193,0,.371-.172.583-.49.45a2.605,2.605,0,0,1-1.523-1.033c-1.457-2.6-3.418-3.206-6.16-2.173-1.987.742-2.848,2.557-1.6,4.491a13.133,13.133,0,0,0,1.894,1.947c.848.848,1.7,1.682,2.543,2.53a.552.552,0,0,1-.411.119,12.9,12.9,0,0,0-6.69.437,3.032,3.032,0,0,0-2.186,2.04c-.026.093-.172.159-.252.238v1.908a2.456,2.456,0,0,1,.384.53,2.461,2.461,0,0,0,1.378,1.417,9.553,9.553,0,0,0,4.04.583c1.139-.053,2.265-.159,3.4-.225.411-.026.821,0,1.351,0-.172.212-.252.318-.358.424a10.935,10.935,0,0,1-3.206,2.133,2.153,2.153,0,0,0-1.338,1.351,5.366,5.366,0,0,1-.742,1.417,2.326,2.326,0,0,0-.212,2.835,5.172,5.172,0,0,0,2.941,2.292,2.733,2.733,0,0,0,2.861-.49,9.016,9.016,0,0,0,1.1-1.364c.861-1.3,1.669-2.636,2.557-3.908a11.905,11.905,0,0,1,1.351-1.378c.159.53.252.848.344,1.179-.066-.027-.132-.04-.2-.066a6.162,6.162,0,0,0-.636,1.7c-.119,1.881-.132,3.762-.146,5.643a2.119,2.119,0,0,0,1.086,1.881,3.9,3.9,0,0,0,2.755.49c1.4-.2,2.915-.768,3.179-2.345a6.006,6.006,0,0,0,.027-1.947c-.3-1.762-1.113-3.418-1.113-5.259a4.9,4.9,0,0,0-.331-1.417,1.98,1.98,0,0,0-1.841-1.5l-2.318-.159a1.907,1.907,0,0,0-1.55-1.722c-.556-.172-1.113-.371-1.709-.57a2.146,2.146,0,0,0-.093-2.437,3.954,3.954,0,0,0,.914-3.206,2.358,2.358,0,0,0,2.212-1.762c1.325.609,2.411,1.749,3.948,1.656a2.837,2.837,0,0,1,2.61,1.206c.278.358.424.543.212.954a4.064,4.064,0,0,0-.3,3.193.546.546,0,0,1-.013.411,9.27,9.27,0,0,1-.98,1.272,2.591,2.591,0,0,0-.358,3.219,16.368,16.368,0,0,0,4.928,5.869c1.047.835,2.106,1.219,3.338.291a1.543,1.543,0,0,1,1.02-.093,1.77,1.77,0,0,0,2.212-1.3,1.088,1.088,0,0,1,.57-.543c.08-.04.358.265.49.45.477.689.835,1.484,1.749,1.749s.914.278.874,1.232c0,.172-.053.331-.066.5-.146,1.272-.344,2.543-.424,3.828a2.659,2.659,0,0,0,1.523,2.808c.053.026.08.146.119.212h1.4c1.669-1.947,2.464-4.385,3.669-6.438a24.59,24.59,0,0,0,2.543,2.014,1.849,1.849,0,0,0,2.8-1.285,4.8,4.8,0,0,0-.146-2.08,6.563,6.563,0,0,0-2.173-2.981,2.236,2.236,0,0,1-.344-.543l.172-.119a4.715,4.715,0,0,0,.914.49,3.55,3.55,0,0,0,1.126.132,3.142,3.142,0,0,0,3.166-2.424c.027-.093.159-.159.238-.238v-1.523c-.132-.146-.291-.278-.411-.437a2.019,2.019,0,0,0-1.616-.848c-.874-.026-1.749-.172-2.835-.291.411-.49.7-.861,1.02-1.206a6.35,6.35,0,0,0,.954-1.033,8.012,8.012,0,0,0,.437-1.311,1.7,1.7,0,0,0-.477-1.947,3.772,3.772,0,0,1-.623-.755,1.792,1.792,0,0,0-2.212-.848c-1.55.318-2.994,1.192-4.663.927a1.041,1.041,0,0,0-.185.026,2,2,0,0,0-1.312,3.1,1.8,1.8,0,0,1,.08.927c-.027.371-.238.742-.172,1.1a2,2,0,0,0,2.053,1.7c.53,0,.609.238.517.676a1.024,1.024,0,0,1-.556.755,2.218,2.218,0,0,0-.967,1.007,7.982,7.982,0,0,0-.212,1.8c-.027.238-.066.49-.119.782a8.8,8.8,0,0,0-1.086-.53,3.814,3.814,0,0,1-2.517-2.146,1.837,1.837,0,0,0-2.053-1.153c-.49.066-.954.331-1.444.437a1.231,1.231,0,0,1-.848-.013c-.941-.636-1.815-1.378-2.769-1.987-.57-.371-1.007-.689-.7-1.444a.73.73,0,0,0-.04-.371c-.08-.384-.172-.755-.265-1.126a16.235,16.235,0,0,1,1.961,1.073,4.476,4.476,0,0,0,4.372.238,5.116,5.116,0,0,0,2.557-3.8,4,4,0,0,0-.252-2.716,4.241,4.241,0,0,0-3.987-2.239,6.123,6.123,0,0,0-3.471,1.06,1.673,1.673,0,0,1-1.762-.04c.98-.994,2.014-1.934,2.928-2.981a5.163,5.163,0,0,0,1.325-2.967c.2-2.358-2.332-3.8-4.146-3.987-1.391-.146-2.226.768-2.914,1.735-1.007,1.4-1.881,2.9-2.782,4.385a.766.766,0,0,1-1.1.4c.2-.609.411-1.192.583-1.8.424-1.51,1.086-2.994.768-4.637a.553.553,0,0,1,.132-.331,1.54,1.54,0,0,0-.04-1.974,6.278,6.278,0,0,0-2.358-1.881,3.938,3.938,0,0,1-.464-.358Z" transform="translate(19.493 3.838)" fill="#ffe7ed"/><path d="M551.173,127.05h.967c.318.636,1.007.676,1.6.835a1.332,1.332,0,0,0,.994-.225,2.471,2.471,0,0,0,.914-.795c.556-1.007,1.206-1.961,1.815-2.941a10.569,10.569,0,0,1,.755-1.232c.185-.238.132-.464.159-.729a4.223,4.223,0,0,1-1.5-2.2,2.4,2.4,0,0,1-.172-1.6c.225-.53.119-1.219.755-1.59h.914c.3-.344.517-.768,1.033-.861v-.6c.2-.212.4-.411.6-.609h1.722c.358-1.206.583-2.438.874-3.656a8.534,8.534,0,0,0,.424-2.318,2.193,2.193,0,0,0-1.4-1.921,1.585,1.585,0,0,0-1.4,0c-.079.053-.225,0-.344,0-.212-.172-.424-.344-.649-.517a.454.454,0,0,0-.49.225c-.146.212-.278.437-.4.623h-.49a3,3,0,0,0,.238.331,4.043,4.043,0,0,1,1.311,2.808c0,.238.185.49.146.7a8.645,8.645,0,0,1-.517,2.014,5.843,5.843,0,0,1-1.086,1.51,4.426,4.426,0,0,1-2.4,1.245c-.318.066-.636.119-.954.172a3.134,3.134,0,0,1-1.457-.238,4.716,4.716,0,0,0-1.113-.106v.2a18.586,18.586,0,0,1,1.709,1.073,4.637,4.637,0,0,1,1.55,2.53,3.992,3.992,0,0,1,.2,1.378,5.44,5.44,0,0,1-1.431,3.365,4.771,4.771,0,0,1-2.676,1.417,2.465,2.465,0,0,1-.7.159.736.736,0,0,0,.053.3,3.732,3.732,0,0,1,.45,1.232Z" transform="translate(26.471 7.118)" fill="#ffe7ed"/><g transform="translate(548.364 99.195)"><path d="M564.97,110.612a5.155,5.155,0,0,0-2.04-1.086,3.3,3.3,0,0,0-.464-.106c-.344-.013-.689,0-1.033,0a6.326,6.326,0,0,0-2.173.344c-.079.026-.159,0-.358-.026a2.738,2.738,0,0,1,.729-.556,6.45,6.45,0,0,0,2.4-2.226,2.132,2.132,0,0,0,.3-.808,3.91,3.91,0,0,0,.079-2.491,1.571,1.571,0,0,1,0-.609c-.331-.5-.53-1.007-.835-1.444a5.122,5.122,0,0,0-2.067-1.643,5.746,5.746,0,0,0-3.047-.278,3.706,3.706,0,0,0-2.12,1.073,8.541,8.541,0,0,0-1.828,2.517,4.109,4.109,0,0,1,.2-1.894,4.092,4.092,0,0,0-.04-1.788c-.079-.278-.146-.57-.212-.861a3.784,3.784,0,0,0-1.033-1.669,4.992,4.992,0,0,0-1.563-1.153,6.676,6.676,0,0,0-1.55-.4,10.938,10.938,0,0,0-1.735.132,5.292,5.292,0,0,0-2.186,1.166,4.922,4.922,0,0,0-1.51,2.543,5.325,5.325,0,0,0-.04.927,6.83,6.83,0,0,0,.517,2.967c-.146-.026-.252-.013-.291-.066-.371-.53-.729-1.073-1.073-1.616a3.575,3.575,0,0,0-2.08-1.616,4.253,4.253,0,0,1-.636-.331c-.543,0-1.166.026-1.788,0a3.518,3.518,0,0,0-2.318.795,4.613,4.613,0,0,0-1.788,2.239,3.373,3.373,0,0,0-.3,1.245c.027.318,0,.636,0,.941a3.915,3.915,0,0,0,1.02,2.755,7.529,7.529,0,0,0,2.755,2.053c-.464.318-.914-.013-1.325-.106a4.905,4.905,0,0,0-1.312-.132,6.99,6.99,0,0,0-1.735.146,4.526,4.526,0,0,0-2.49,1.735,6.225,6.225,0,0,0-.662,1.1,4.31,4.31,0,0,0-.384,1.47,6.561,6.561,0,0,0,.318,2.265,3.811,3.811,0,0,0,.676,1.179,5.249,5.249,0,0,0,1.55,1.4,4.752,4.752,0,0,0,1.179.464,5.431,5.431,0,0,0,2.358.053,13.3,13.3,0,0,1,2.782-.57c.079,0,.159-.132.318-.278.106.331.2.57.278.808.411.093.808.318,1.232,0,.517-.371,1.1-.676,1.616-1.06a5.165,5.165,0,0,1,1.8-.821c.106-.026.225.04.45.093-.2.212-.3.331-.424.437-.7.715-1.417,1.417-2.133,2.12a1.616,1.616,0,0,0-.517.941c.132.212.265.45.384.662h1.086c.835-.874,1.722-1.8,2.623-2.729.013-.013.053,0,.079,0a.6.6,0,0,1,.106.026,1.783,1.783,0,0,1-.318,1.364c-.477.861-1.047,1.682-1.576,2.53-.5.795-1.02,1.576-1.484,2.385a3.967,3.967,0,0,1-1.537,1.828,8.587,8.587,0,0,1-.848.45c-.331,0-.676-.026-1.02,0a2.49,2.49,0,0,1-1.4-.344,3.317,3.317,0,0,1-1.894-3.02,4.347,4.347,0,0,1,.331-1.232A2.561,2.561,0,0,1,536,121.4c.291-.2.583-.384.861-.57v-1.073c-.252-.079-.5-.159-.782-.252a3.9,3.9,0,0,0-1.59,1.073,4.724,4.724,0,0,0-1.285,2.133,1.972,1.972,0,0,0-.106.556c0,.371.013.742,0,1.113a4.276,4.276,0,0,0,.768,2.517,4.8,4.8,0,0,0,2.914,2.067,4.419,4.419,0,0,0,3.126-.2,5.589,5.589,0,0,0,2.769-2.583c.159-.278.318-.556.49-.835.079.013.159.04.252.053-.159.53-.318,1.033-.464,1.537a2.126,2.126,0,0,0-.053.583c0,.344.027.689,0,1.033a3.774,3.774,0,0,0,.994,2.676A4.633,4.633,0,0,0,546.5,133c.159.04.318.066.477.093a2.465,2.465,0,0,0,.954.146,5.5,5.5,0,0,0,2.305-.662,1.858,1.858,0,0,1,.6-.2,18,18,0,0,1,.967,2.173,21.625,21.625,0,0,1,.755,2.265c.159.755.344,1.5.543,2.358a4.061,4.061,0,0,0-2.424-.927c-1.457-.026-2.914,0-4.345,0a3.03,3.03,0,0,0-.464.212,1.826,1.826,0,0,0-.742,1.5,11.952,11.952,0,0,0,0,1.378,6.313,6.313,0,0,0,.636,2.318,9.478,9.478,0,0,0,.795.954.991.991,0,0,0,.795-.159l.371-.742a5.1,5.1,0,0,1-.835-3.895c1.126,0,2.239-.027,3.338.013a4.6,4.6,0,0,1,1.153.291,3.8,3.8,0,0,1,1.365,1.047,2.106,2.106,0,0,1,.6,1.378c.066.676.013,1.351.013,2.067h-3.881c-.146.185-.278.358-.411.53v.6l.424.424H553.3c.2,1.351-.185,2.742.278,4.146.331.066.7.133,1.02.185l.45-.45v-2.5c.821,0,1.616-.04,2.411,0a3.721,3.721,0,0,0,3.153-1.325,3.682,3.682,0,0,0,.715-1.086,2.71,2.71,0,0,0,.278-1.179,10.076,10.076,0,0,1,0-1.55,1.516,1.516,0,0,0-1.06-1.749h-3.5a3.6,3.6,0,0,0-1.047.172,9.274,9.274,0,0,0-.98.477,15.938,15.938,0,0,1,.238-1.8,11.223,11.223,0,0,1,.941-2.358,7.5,7.5,0,0,1,1.974-2.424,7.1,7.1,0,0,1,1.881-1.232,4.99,4.99,0,0,1,1.457-.424,3.012,3.012,0,0,0,1.815-.795c.291-.252.49-.623.967-.795a3.1,3.1,0,0,0,.45,2.782,3.6,3.6,0,0,0,2.517,1.722c2.438.344,4.425-1.047,4.676-4.279a4.117,4.117,0,0,0,3.789,1.364,3.835,3.835,0,0,0,2.994-2.769c.146-2.716-.04-2.689-1.576-4.252h.98a3.361,3.361,0,0,0,2.358-.954,5.675,5.675,0,0,0,1.06-1.537c.172-.331,0-.649.2-.954a.78.78,0,0,0-.053-.927c-.119-.159-.079-.424-.132-.623a4.155,4.155,0,0,0-2.517-2.517,1.06,1.06,0,0,0-.411-.04h-1.51l.57-.57a3.013,3.013,0,0,0,1.073-2.133c0-.3.291-.583.053-.914-.212-.278.119-.689-.238-.927a3.466,3.466,0,0,0-2.332-2.318,4.143,4.143,0,0,0-2.6,0,3.932,3.932,0,0,0-1.709,1.245,4.691,4.691,0,0,0-1.378-3.391,4.424,4.424,0,0,0-3.524-.927c-.146.079-.265.132-.424.212a1.358,1.358,0,0,0-.212.98c.212.172.424.344.649.517a1,1,0,0,0,.344,0,1.586,1.586,0,0,1,1.4,0,2.215,2.215,0,0,1,1.4,1.921,8.527,8.527,0,0,1-.424,2.318c-.278,1.219-.517,2.451-.874,3.656h-1.722c-.2.2-.4.4-.6.609v.6c.291.185.57.371.848.543a.909.909,0,0,1,.954-.172c.464.2,1.073.238,1.285.835a2.1,2.1,0,0,1,.808,2.305,3.215,3.215,0,0,1-1.126,1.51c-.079.079-.252.093-.371.132a7.03,7.03,0,0,0-.729.3c-.318.212-.517-.106-.768-.146a1.679,1.679,0,0,1-1.471-.954,4.38,4.38,0,0,0-.477-.662,4.677,4.677,0,0,1,.027-1.431,2.121,2.121,0,0,0-.027-1.4h-.914c-.636.371-.53,1.06-.755,1.59a2.384,2.384,0,0,0,.172,1.6,4.33,4.33,0,0,0,1.5,2.2c-.027.252.04.49-.159.729a12.758,12.758,0,0,0-.755,1.232c-.609.98-1.258,1.934-1.815,2.941-.225.411-.6.556-.914.795a1.358,1.358,0,0,1-.994.225c-.583-.146-1.272-.2-1.6-.835h-.967c-.119.172-.238.358-.344.5,0,.53.4.808.729,1.166a11.1,11.1,0,0,0-4.345,4.716,37.871,37.871,0,0,0-2.212-5.71,1.966,1.966,0,0,1,.159-1.007,6.078,6.078,0,0,0,.517-1.921c.159-.609-.2-1.192-.185-1.8-.318-.344-.093-.729-.079-1.1a10.682,10.682,0,0,1,.623.954,6.036,6.036,0,0,0,1.735,1.788,5.622,5.622,0,0,0,2.9.861,2.465,2.465,0,0,0,.7-.159,4.651,4.651,0,0,0,2.676-1.417,5.378,5.378,0,0,0,1.431-3.365,3.66,3.66,0,0,0-.2-1.378,4.654,4.654,0,0,0-1.55-2.53,16.958,16.958,0,0,0-1.709-1.073v-.2a4.715,4.715,0,0,1,1.113.106,2.975,2.975,0,0,0,1.457.238c.318-.053.636-.106.954-.172a4.516,4.516,0,0,0,2.4-1.245,5.756,5.756,0,0,0,1.086-1.51,7.9,7.9,0,0,0,.517-2.014c.04-.212-.132-.464-.146-.7a4.044,4.044,0,0,0-1.311-2.808,2.12,2.12,0,0,1-.238-.331Zm-16.824,0a2.979,2.979,0,0,1,1.934.689,3.69,3.69,0,0,1,1.47,2.53,3.413,3.413,0,0,1-.662,2.623,3.238,3.238,0,0,1-1.841,1.417c-.358.093-.715.2-1.073.3-.49-.066-.98-.132-1.537-.212a5.711,5.711,0,0,1-1.391-.967,3.3,3.3,0,0,1-1.02-2.477c.013-.146,0-.291,0-.424a3.544,3.544,0,0,1,1.828-3.007A3.775,3.775,0,0,1,548.146,110.612Zm4.756,2.265a11.346,11.346,0,0,1,2.027-.384c.3-.252.715-.212,1.06-.331a9.4,9.4,0,0,1,1.033-.185,4.813,4.813,0,0,1,1.06-.318,6.051,6.051,0,0,0,1.126-.212,10.485,10.485,0,0,0,1.722-.384,2.583,2.583,0,0,1,1.974.185,3.174,3.174,0,0,1,2.053,3.047v.861a5.6,5.6,0,0,1-1.206,1.735,2.618,2.618,0,0,1-1.841.755,5.986,5.986,0,0,1-1.815-.159c-.689-.212-1.4-.358-2.106-.517a7.5,7.5,0,0,0-.782-.2c-.636-.093-1.245-.3-1.881-.411a9.926,9.926,0,0,0-2.053-.424c-.053,0-.093-.04-.159-.066-.066-.066-.132-.159-.2-.225l.265-.57h4.014l.53-.4v-.729a1.42,1.42,0,0,0-1.139-.424c-1.139.013-2.279,0-3.4,0-.093-.212-.185-.411-.3-.649Zm-22.269.45a3.46,3.46,0,0,1,1.245-1.629,2.921,2.921,0,0,1,1.828-.742c.291,0,.623-.132.9.093s.689-.106.927.238a21.539,21.539,0,0,1,2.438.517c.649.132,1.3.4,1.934.477.9.106,1.709.477,2.543.583v.662h-4.08c-.252.185-.411.318-.517.4v.848c.106.132.172.225.238.3h4.133l.291.291c-.066.172-.132.358-.212.543-.782,0-1.417.45-2.146.358-.2.344-.623.066-.914.318-.212.185-.623.132-.941.2a5.779,5.779,0,0,0-.954.185,15.438,15.438,0,0,1-1.722.4,5.9,5.9,0,0,1-1.6.278c-.371-.026-.742,0-1.033,0a6.113,6.113,0,0,1-1.179-.623,3,3,0,0,1-1.205-2.49c.026-.4,0-.795,0-1.206Zm9.989-6.134c-.265.7-.238.874.212,1.351.093.106.2.2.3.3l2,2a2.487,2.487,0,0,1,.265.371c-.57.212-.994-.132-1.457-.185-.755-.623-1.656-1.007-2.451-1.563-.848-.6-1.762-1.113-2.663-1.643a6.933,6.933,0,0,1-1.378-1.033,3.5,3.5,0,0,1-.874-1.788,3.215,3.215,0,0,1,.45-2.12,2.511,2.511,0,0,1,.848-1.007c.4-.238.755-.662,1.311-.543a2.908,2.908,0,0,1,3.047.782c.344.344.768.649.848,1.192,1.166,1.55,2.053,3.285,3.14,4.875a2.077,2.077,0,0,1,.411,1.735H544.5c-1.007-.967-2.014-1.934-3.06-2.954-.238.066-.517.132-.835.225Zm10.518,11.658,2.756,2.755h.689c.132-.132.278-.278.424-.437v-.861l-2.835-2.835c.04-.04.119-.106.225-.2.132.066.252.2.358.185a2.807,2.807,0,0,1,1.55.609c1.219.729,2.4,1.55,3.6,2.305a10.009,10.009,0,0,1,2.252,1.616,2.552,2.552,0,0,1,.689,1.7c.026.477,0,.967,0,1.4a6.033,6.033,0,0,1-2.385,2.345h-1.378c-.146,0-.318.053-.424,0a4.529,4.529,0,0,1-2-1.51c-.583-.954-1.113-1.961-1.762-2.875-.6-.835-1.02-1.775-1.656-2.6a1.4,1.4,0,0,1-.384-1.047c.013-.106-.106-.238-.159-.358-.013-.04.027-.106.04-.185.093,0,.212-.013.371-.026Zm-4.8-9.777a1.837,1.837,0,0,1-.238-.662c.066-.7-.49-1.3-.358-2-.345-.212-.066-.623-.318-.914-.159-.172,0-.556-.172-.861a3.6,3.6,0,0,1-.2-.941,4.513,4.513,0,0,0-.2-.941c-.185-.331.026-.742-.3-.994-.013-.609-.344-1.219-.146-1.815a3.963,3.963,0,0,1,.715-1.51,3.86,3.86,0,0,1,1.735-1.206c.252-.066.517-.079.782-.159.238-.079.57.079.861.146a2.055,2.055,0,0,1,.768.2,3.264,3.264,0,0,1,1.8,2.928c-.013.464-.08.927-.132,1.391a16.949,16.949,0,0,0-.556,2.782c-.331.45-.252,1.02-.464,1.523s-.2,1.1-.384,1.643a8.064,8.064,0,0,0-.238,1.272c-.172.04-.371.093-.609.159v-4.093c-.079-.53-.53-.6-.927-.768-.265.2-.556.4-.848.609v4.213h-.556Zm2.994,10.651a6.627,6.627,0,0,0,.212,1.431c.344.914.424,1.881.676,2.808.159.57.252,1.153.4,1.722a13.74,13.74,0,0,1,.464,2.636,2.93,2.93,0,0,1-1.51,2.7,3.065,3.065,0,0,1-3.709-.093,3.253,3.253,0,0,1-1.47-3.06c0-.358.291-.7.3-1.06a4.568,4.568,0,0,1,.2-1.047,8.258,8.258,0,0,1,.291-1.086c.119-.331-.079-.729.225-1.02.291-1.311.57-2.623.861-3.934a.977.977,0,0,1,.106-.2c.212.106.4.212.57.291V123.1a1.5,1.5,0,0,0,.291,1.1c.265.066.556.132.781.185a1.631,1.631,0,0,0,.662-1.431c-.04-1.007,0-2,0-3.007a1.122,1.122,0,0,1,.053-.225h.609Zm5.272-12.7a1.371,1.371,0,0,0-1.206.49l-2.3,2.305c-.08.079-.212.093-.358.159.066-.384.106-.662.159-.954a1.389,1.389,0,0,1,.172-.53c.358-.45.6-.954.914-1.417,1.033-1.563,2-3.179,3.034-4.743a1.193,1.193,0,0,1,.477-.45,6.836,6.836,0,0,1,1.378-.623,2.821,2.821,0,0,1,1.325-.04,3.388,3.388,0,0,1,2.557,2.371,6.493,6.493,0,0,1,.093,1.245,2.722,2.722,0,0,1-1.02,2.226,9.933,9.933,0,0,1-1.735,1.166c-1.272.795-2.544,1.576-3.815,2.371a2.772,2.772,0,0,1-.888.517c-.358.066-.729.411-1.219.04l2.835-2.835v-.835c-.159-.172-.291-.318-.411-.45Zm17.42,14.466c.132-.093.212-.2.3-.212.53-.093,1.046-.212,1.576-.331a9.263,9.263,0,0,1,1.391-.344,7.486,7.486,0,0,0,1.974-.424,2.207,2.207,0,0,1,2.808,2.08c-.013.225,0,.45,0,.6-.146.265-.238.45-.344.636a2.2,2.2,0,0,1-2.067,1.033c-.517-.146-1.06-.212-1.563-.358-.954-.252-1.921-.477-2.888-.662a9.8,9.8,0,0,1-1.205-.384V121.5Zm5.153-5.683a4.747,4.747,0,0,0-.344.583,1.526,1.526,0,0,1-.729.742c-1.285.782-2.543,1.576-3.815,2.385a2.316,2.316,0,0,1-1.047.371,1.864,1.864,0,0,0-.954-.98,4.4,4.4,0,0,1,.4-1.033c.848-1.206,1.563-2.5,2.371-3.736a2.821,2.821,0,0,1,1.417-1.086,1.775,1.775,0,0,1,1.192.106,2.032,2.032,0,0,1,1.5,1.987v.636Zm0,14.042a3.986,3.986,0,0,0-.344.649c-.133.464-.583.57-.9.795a1.612,1.612,0,0,1-.994.238,2.4,2.4,0,0,1-1.126-.358,3.071,3.071,0,0,1-.768-.874c-.623-.9-1.166-1.855-1.749-2.782a10.907,10.907,0,0,1-1.033-1.894c.2-.159.384-.278.543-.424s.291-.358.477-.57a5.261,5.261,0,0,1,.689.238c.4.212.782.45,1.166.689.821.5,1.629,1.033,2.451,1.537a3.083,3.083,0,0,1,1.444,1.457c.185.464.04.888.146,1.3Zm-11.353,3.246v-.6a4.173,4.173,0,0,1,.159-1.563,4.657,4.657,0,0,0,.331-1.311,13.616,13.616,0,0,1,.358-1.656c.119-.583.252-1.153.384-1.775.583.371,1.219.132,1.8.238a21.462,21.462,0,0,0,.437,2.159c.331,1.047.477,2.133.768,3.193a1.725,1.725,0,0,1-.106,1.219,1.872,1.872,0,0,1-1.682,1.3c-.265.358-.53.027-.808,0a1.263,1.263,0,0,1-.888-.344c-.278-.3-.556-.609-.795-.874ZM555,145.982a6.761,6.761,0,0,1,.252-2.557l.609-.609a2.044,2.044,0,0,1,1.378-.6c.9-.053,1.815-.013,2.755-.013,0,.477.026.914,0,1.325a3.778,3.778,0,0,1-.212,1.02,2.541,2.541,0,0,1-1.139,1.139,2.8,2.8,0,0,1-1.086.278c-.821.04-1.656,0-2.557,0Zm16.731-32.973h.053v.172h-.053Zm.053,18.546h-.053v-.172h.053Z" transform="translate(-528.947 -95.51)" fill="#060606"/><path d="M544.629,134.278c.132-.172.265-.344.411-.53h3.881c0-.7.053-1.391-.013-2.067a2.134,2.134,0,0,0-.6-1.378,3.959,3.959,0,0,0-1.365-1.047,4.1,4.1,0,0,0-1.153-.291c-1.113-.04-2.212-.013-3.338-.013a5.1,5.1,0,0,0,.835,3.895l-.371.742a2.363,2.363,0,0,1,.543.291,1.4,1.4,0,0,0,1.179.384Z" transform="translate(-524.582 -84.653)" fill="#95d779"/><path d="M544.444,106.912a3.684,3.684,0,0,0-2.292.477,3.544,3.544,0,0,0-1.828,3.007c0,.146.013.291,0,.424a3.347,3.347,0,0,0,1.02,2.477,5.576,5.576,0,0,0,1.391.967c.556.079,1.047.146,1.537.212-.079-.358.238-.5.424-.676.57-.5.7-1.258,1.113-1.855-.04-.729.437-1.444,0-2.173a2.961,2.961,0,0,0-.835-1.881,5.527,5.527,0,0,1-.543-.98Z" transform="translate(-525.258 -91.809)" fill="#fbd202"/><path d="M557.576,113.52c-.5.093-.729.517-1.033.861a2.042,2.042,0,0,1,.027,1.4,4.294,4.294,0,0,0-.027,1.431,4.385,4.385,0,0,1,.477.662,1.679,1.679,0,0,0,1.47.954c.252.04.45.358.768.146a3.248,3.248,0,0,1,.729-.3c0-.053-.026-.132,0-.172.278-.49.556-.967.861-1.47,0-.384.026-.782,0-1.179s-.106-.755-.159-1.126c-.225-.6-.821-.636-1.285-.835a.879.879,0,0,0-.954.172c-.278-.172-.556-.358-.848-.543Z" transform="translate(-520.003 -89.661)" fill="#f9d003"/><path d="M548.61,134.546c.9,0,1.722.027,2.557,0a2.8,2.8,0,0,0,1.086-.278,2.48,2.48,0,0,0,1.139-1.139,3.883,3.883,0,0,0,.212-1.02c.04-.424,0-.848,0-1.325-.941,0-1.841-.04-2.755.013a1.985,1.985,0,0,0-1.378.6c-.2.212-.4.411-.609.609a6.763,6.763,0,0,0-.252,2.557Z" transform="translate(-522.562 -84.06)" fill="#92d377"/><path d="M543.472,106.912a6.032,6.032,0,0,0,.543.98,3.03,3.03,0,0,1,.835,1.881c.437.729-.04,1.444,0,2.173-.411.6-.543,1.351-1.113,1.855-.2.172-.5.318-.424.676.358-.106.715-.212,1.073-.3a3.238,3.238,0,0,0,1.841-1.417,3.359,3.359,0,0,0,.662-2.623,3.768,3.768,0,0,0-1.47-2.53,2.934,2.934,0,0,0-1.934-.689Z" transform="translate(-524.286 -91.81)" fill="#f3c100"/><path d="M559.815,114.43c.053.371.132.755.159,1.126.026.4,0,.795,0,1.179-.291.5-.583.98-.861,1.47-.026.04,0,.106,0,.172.132-.04.291-.04.371-.132a3.214,3.214,0,0,0,1.126-1.51,2.145,2.145,0,0,0-.808-2.305Z" transform="translate(-519.155 -89.366)" fill="#eebd00"/></g><g transform="translate(577.195 112.119)"><path d="M550.8,126.083a2.612,2.612,0,0,1,.3-1.3,4.254,4.254,0,0,0,2.808-2.954,1.853,1.853,0,0,0,0-.715h.066a9.624,9.624,0,0,0,1.378-.424c.517-.146,1.033-.291,1.55-.411.093-.026.172-.132.291-.238l-.093-1.616c-.4-.106-.808-.252-1.219-.318-.98-.132-1.947-.3-2.928-.5l-.265-.04a8,8,0,0,0-1.908-1.749h.079c.3-.013.609-.04.98-.053-.066-.066-.132-.119-.185-.172a1.239,1.239,0,0,0,1.086-.808c.053-.132.093-.252.146-.371.146.079.278.159.437.238.848.45,1.682.927,2.53,1.391.4.212.795.437,1.206.623a5.429,5.429,0,0,0,.7.2c.172-.225.291-.424.437-.6s.331-.291.517-.464a10.941,10.941,0,0,0-1.139-1.841l-.2-.278a1.569,1.569,0,0,0,.384-.4c.967-1.55.5-4-.662-5.511a3.728,3.728,0,0,1,4.067-2.49A3.878,3.878,0,0,1,564.5,108.8c-.49,1.1-.848,2.252-1.258,3.4-.53,1.47-1.02,2.954-1.537,4.411a.292.292,0,0,1-.106-.013c-.252-.026-.464-.331-.768-.106a4.312,4.312,0,0,1-.7.344,1.548,1.548,0,0,0-.371.146,3.223,3.223,0,0,0-1.047,1.576,2.131,2.131,0,0,0,.941,2.265.708.708,0,0,0,.172.252c-.265.477-.556.927-.848,1.391a1.834,1.834,0,0,1-.914-.874,2.24,2.24,0,0,0-1.02.424c-1.219.874-2.438,1.735-3.669,2.6a1.555,1.555,0,0,0-.676.782,4.348,4.348,0,0,1-.3.609c0,.185.027.411.04.636a2,2,0,0,0,1.4,1.828,10.6,10.6,0,0,0-1.192,1.245,3.393,3.393,0,0,1-1.523-1.8c-.371-.225-.066-.649-.291-.914-.265-.318,0-.623,0-.914Zm9.233-11.168c.6.079,1.205-.2,1.815.146.106-.636.2-1.219.291-1.8a11.834,11.834,0,0,0,.265-1.669,4.138,4.138,0,0,1,.265-1.325,4.457,4.457,0,0,0,.079-1.563c0-.172-.013-.344-.026-.6l-.834-.835a1.231,1.231,0,0,0-.914-.291c-.278,0-.556-.318-.808.053a1.862,1.862,0,0,0-1.6,1.391,1.8,1.8,0,0,0-.04,1.232c.358,1.033.556,2.12.954,3.14a20.873,20.873,0,0,1,.556,2.133Z" transform="translate(-550.711 -105.266)" fill="#060606"/><path d="M558.791,116.685a14.653,14.653,0,0,1-.848,1.709.931.931,0,0,1-.172-.252,10.568,10.568,0,0,1-.225-1.126c-.053-.4-.053-.795-.066-1.179.265-.517.517-1.007.768-1.51.026-.04,0-.106,0-.172a5.751,5.751,0,0,0,.7-.344c.3-.225.517.079.768.106a.292.292,0,0,1,.106.013c-.331.927-.662,1.841-1.047,2.742Z" transform="translate(-548.513 -102.518)" fill="#f9d003"/><path d="M557.934,118.047a10.553,10.553,0,0,1-.225-1.126c-.053-.4-.053-.795-.066-1.179.265-.517.517-1.007.768-1.51.026-.04,0-.106,0-.172a1.547,1.547,0,0,0-.371.146,3.225,3.225,0,0,0-1.047,1.576,2.131,2.131,0,0,0,.941,2.265Z" transform="translate(-548.675 -102.41)" fill="#eebd00"/></g><path d="M581.651,95.18h2.159c.093.106.159.252.265.318a3.1,3.1,0,0,1,1.868,2.676c.093,1.722.04,3.458.04,5.193,0,.371.172.583.49.45A2.606,2.606,0,0,0,588,102.784c1.457-2.6,3.418-3.206,6.16-2.173,1.987.742,2.848,2.557,1.6,4.491a13.131,13.131,0,0,1-1.894,1.947c-.848.848-1.7,1.682-2.543,2.53a.552.552,0,0,0,.411.119,12.9,12.9,0,0,1,6.69.437,3.032,3.032,0,0,1,2.186,2.04c.026.093.172.159.252.238v1.908a2.456,2.456,0,0,0-.384.53,2.461,2.461,0,0,1-1.378,1.417,9.554,9.554,0,0,1-4.041.583c-1.139-.053-2.265-.159-3.4-.225-.411-.027-.821,0-1.351,0,.172.212.252.318.358.424a10.933,10.933,0,0,0,3.206,2.133,2.153,2.153,0,0,1,1.338,1.351,5.37,5.37,0,0,0,.742,1.417,2.326,2.326,0,0,1,.212,2.835,5.172,5.172,0,0,1-2.941,2.292,2.733,2.733,0,0,1-2.861-.49,9.011,9.011,0,0,1-1.1-1.364c-.861-1.3-1.669-2.636-2.557-3.908a11.908,11.908,0,0,0-1.351-1.378c-.159.53-.252.848-.344,1.179.066-.026.132-.04.2-.066a6.159,6.159,0,0,1,.636,1.7c.119,1.881.132,3.762.146,5.643a2.12,2.12,0,0,1-1.086,1.881,3.9,3.9,0,0,1-2.756.49c-1.4-.2-2.914-.768-3.179-2.345a6.006,6.006,0,0,1-.026-1.947c.3-1.762,1.113-3.418,1.113-5.259a4.9,4.9,0,0,1,.331-1.417,1.98,1.98,0,0,1,1.841-1.5l2.318-.159a1.907,1.907,0,0,1,1.55-1.722c.556-.172,1.113-.371,1.709-.57a2.146,2.146,0,0,1,.093-2.438,3.953,3.953,0,0,1-.914-3.206,2.358,2.358,0,0,1-2.212-1.762c-1.325.609-2.411,1.749-3.948,1.656a2.837,2.837,0,0,0-2.61,1.206c-.278.358-.424.543-.212.954a4.065,4.065,0,0,1,.3,3.193.546.546,0,0,0,.013.411,9.264,9.264,0,0,0,.98,1.272,2.591,2.591,0,0,1,.358,3.219,16.369,16.369,0,0,1-4.928,5.869c-1.047.835-2.106,1.219-3.338.291a1.543,1.543,0,0,0-1.02-.093,1.77,1.77,0,0,1-2.212-1.3,1.088,1.088,0,0,0-.57-.543c-.08-.04-.358.265-.49.45-.477.689-.835,1.484-1.749,1.749s-.914.278-.874,1.232c0,.172.053.331.066.5.146,1.272.344,2.543.424,3.828a2.659,2.659,0,0,1-1.523,2.808c-.053.027-.08.146-.119.212h-1.4c-1.669-1.947-2.464-4.385-3.669-6.438a24.591,24.591,0,0,1-2.544,2.014,1.849,1.849,0,0,1-2.8-1.285,4.8,4.8,0,0,1,.146-2.08,6.563,6.563,0,0,1,2.173-2.981,2.238,2.238,0,0,0,.344-.543l-.172-.119a4.709,4.709,0,0,1-.914.49,3.549,3.549,0,0,1-1.126.132,3.142,3.142,0,0,1-3.166-2.424c-.027-.093-.159-.159-.238-.238v-1.523c.132-.146.291-.278.411-.437a2.019,2.019,0,0,1,1.616-.848c.874-.026,1.749-.172,2.835-.291-.411-.49-.7-.861-1.02-1.206a6.346,6.346,0,0,1-.954-1.033,8.012,8.012,0,0,1-.437-1.311,1.7,1.7,0,0,1,.477-1.947,3.781,3.781,0,0,0,.623-.755,1.792,1.792,0,0,1,2.212-.848c1.55.318,2.994,1.192,4.663.927a1.04,1.04,0,0,1,.185.026,2,2,0,0,1,1.312,3.1,1.8,1.8,0,0,0-.08.927c.027.371.238.742.172,1.1a2,2,0,0,1-2.053,1.7c-.53,0-.609.238-.517.676a1.024,1.024,0,0,0,.556.755,2.218,2.218,0,0,1,.967,1.007,7.978,7.978,0,0,1,.212,1.8c.027.238.066.49.119.782a8.8,8.8,0,0,1,1.086-.53,3.814,3.814,0,0,0,2.517-2.146,1.837,1.837,0,0,1,2.053-1.153c.49.066.954.331,1.444.437a1.231,1.231,0,0,0,.848-.013c.941-.636,1.815-1.378,2.769-1.987.57-.371,1.007-.689.7-1.444a.73.73,0,0,1,.04-.371c.079-.384.172-.755.265-1.126a16.241,16.241,0,0,0-1.961,1.073,4.476,4.476,0,0,1-4.372.238,5.116,5.116,0,0,1-2.557-3.8,4,4,0,0,1,.252-2.716,4.24,4.24,0,0,1,3.987-2.239,6.123,6.123,0,0,1,3.471,1.06,1.673,1.673,0,0,0,1.762-.04c-.98-.994-2.014-1.934-2.928-2.981a5.164,5.164,0,0,1-1.325-2.967c-.2-2.358,2.332-3.8,4.146-3.987,1.391-.146,2.226.768,2.914,1.735,1.007,1.4,1.881,2.9,2.782,4.385a.766.766,0,0,0,1.1.4c-.2-.609-.411-1.192-.583-1.8-.424-1.51-1.086-2.994-.768-4.637a.552.552,0,0,0-.132-.331,1.54,1.54,0,0,1,.04-1.974,6.277,6.277,0,0,1,2.358-1.881,3.933,3.933,0,0,0,.464-.358Z" transform="translate(26.238 3.579)" fill="#efd9bd"/><path d="M569.417,126.25h-.967c-.318.636-1.007.676-1.6.835a1.331,1.331,0,0,1-.994-.225,2.471,2.471,0,0,1-.914-.795c-.556-1.007-1.205-1.961-1.815-2.941a10.584,10.584,0,0,0-.755-1.232c-.185-.238-.132-.464-.159-.729a4.223,4.223,0,0,0,1.5-2.2,2.4,2.4,0,0,0,.172-1.6c-.225-.53-.119-1.219-.755-1.59h-.914c-.3-.344-.517-.768-1.033-.861v-.6c-.2-.212-.4-.411-.6-.609h-1.722c-.358-1.206-.583-2.437-.874-3.656a8.538,8.538,0,0,1-.424-2.318,2.194,2.194,0,0,1,1.4-1.921,1.585,1.585,0,0,1,1.4,0c.079.053.225,0,.345,0,.212-.172.424-.344.649-.517a.454.454,0,0,1,.49.225c.146.212.278.437.4.623h.49a3.006,3.006,0,0,1-.238.331,4.043,4.043,0,0,0-1.311,2.808c0,.238-.185.49-.146.7a8.647,8.647,0,0,0,.517,2.014,5.843,5.843,0,0,0,1.086,1.51,4.426,4.426,0,0,0,2.4,1.245c.318.066.636.119.954.172a3.134,3.134,0,0,0,1.457-.238,4.717,4.717,0,0,1,1.113-.106v.2a18.575,18.575,0,0,0-1.709,1.073,4.637,4.637,0,0,0-1.55,2.53,4,4,0,0,0-.2,1.378,5.44,5.44,0,0,0,1.431,3.365,4.771,4.771,0,0,0,2.676,1.417,2.466,2.466,0,0,0,.7.159.736.736,0,0,1-.053.3,3.728,3.728,0,0,0-.45,1.232Z" transform="translate(28.708 6.859)" fill="#efd9bd"/><g transform="translate(574.483 98.136)"><path d="M565.563,109.812a5.155,5.155,0,0,1,2.04-1.086,3.3,3.3,0,0,1,.464-.106c.344-.013.689,0,1.033,0a6.327,6.327,0,0,1,2.173.344c.079.026.159,0,.358-.027a2.738,2.738,0,0,0-.729-.556,6.449,6.449,0,0,1-2.4-2.226,2.132,2.132,0,0,1-.3-.808,3.909,3.909,0,0,1-.079-2.49,1.571,1.571,0,0,0,0-.609c.331-.5.53-1.007.835-1.444a5.122,5.122,0,0,1,2.067-1.643,5.746,5.746,0,0,1,3.047-.278,3.706,3.706,0,0,1,2.12,1.073,8.54,8.54,0,0,1,1.828,2.517,4.111,4.111,0,0,0-.2-1.894,4.092,4.092,0,0,1,.04-1.788c.079-.278.146-.57.212-.861A3.783,3.783,0,0,1,579.1,96.26a4.993,4.993,0,0,1,1.563-1.153,6.674,6.674,0,0,1,1.55-.4,10.936,10.936,0,0,1,1.735.132,5.291,5.291,0,0,1,2.186,1.166,4.922,4.922,0,0,1,1.51,2.543,5.32,5.32,0,0,1,.04.927,6.829,6.829,0,0,1-.517,2.967c.146-.026.252-.013.291-.066.371-.53.729-1.073,1.073-1.616a3.576,3.576,0,0,1,2.08-1.616,4.256,4.256,0,0,0,.636-.331c.543,0,1.166.026,1.788,0a3.518,3.518,0,0,1,2.318.795,4.613,4.613,0,0,1,1.788,2.239,3.373,3.373,0,0,1,.3,1.245c-.027.318,0,.636,0,.941a3.915,3.915,0,0,1-1.02,2.755,7.529,7.529,0,0,1-2.755,2.053c.464.318.914-.013,1.325-.106a4.9,4.9,0,0,1,1.312-.132,6.989,6.989,0,0,1,1.735.146,4.525,4.525,0,0,1,2.49,1.735,6.214,6.214,0,0,1,.662,1.1,4.309,4.309,0,0,1,.384,1.47,6.561,6.561,0,0,1-.318,2.265,3.808,3.808,0,0,1-.676,1.179,5.246,5.246,0,0,1-1.55,1.4,4.749,4.749,0,0,1-1.179.464,5.43,5.43,0,0,1-2.358.053,13.3,13.3,0,0,0-2.782-.57c-.079,0-.159-.132-.318-.278-.106.331-.2.57-.278.808-.411.093-.808.318-1.232,0-.517-.371-1.1-.676-1.616-1.06a5.165,5.165,0,0,0-1.8-.821c-.106-.026-.225.04-.45.093.2.212.3.331.424.437.7.715,1.417,1.417,2.133,2.12a1.616,1.616,0,0,1,.517.941c-.132.212-.265.45-.384.662h-1.086c-.835-.874-1.722-1.8-2.623-2.729-.013-.013-.053,0-.079,0a.6.6,0,0,0-.106.026,1.783,1.783,0,0,0,.318,1.364c.477.861,1.047,1.682,1.576,2.53.5.795,1.02,1.576,1.484,2.385a3.967,3.967,0,0,0,1.537,1.828,8.557,8.557,0,0,0,.848.45c.331,0,.676-.027,1.02,0a2.49,2.49,0,0,0,1.4-.344,3.317,3.317,0,0,0,1.894-3.02,4.348,4.348,0,0,0-.331-1.232,2.56,2.56,0,0,0-1.033-1.417c-.291-.2-.583-.384-.861-.57v-1.073c.252-.079.5-.159.782-.252a3.9,3.9,0,0,1,1.59,1.073,4.724,4.724,0,0,1,1.285,2.133,1.974,1.974,0,0,1,.106.556c0,.371-.013.742,0,1.113a4.276,4.276,0,0,1-.768,2.517,4.8,4.8,0,0,1-2.914,2.067,4.419,4.419,0,0,1-3.126-.2,5.589,5.589,0,0,1-2.769-2.583c-.159-.278-.318-.556-.49-.835-.079.013-.159.04-.252.053.159.53.318,1.033.464,1.537a2.126,2.126,0,0,1,.053.583c0,.344-.027.689,0,1.033a3.775,3.775,0,0,1-.994,2.676,4.633,4.633,0,0,1-2.61,1.775c-.159.04-.318.066-.477.093a2.464,2.464,0,0,1-.954.146,5.5,5.5,0,0,1-2.3-.662,1.858,1.858,0,0,0-.6-.2,17.956,17.956,0,0,0-.967,2.173,21.611,21.611,0,0,0-.755,2.265c-.159.755-.344,1.5-.543,2.358a4.061,4.061,0,0,1,2.424-.927c1.457-.026,2.914,0,4.345,0a3.023,3.023,0,0,1,.464.212,1.827,1.827,0,0,1,.742,1.5,11.952,11.952,0,0,1,0,1.378,6.315,6.315,0,0,1-.636,2.318,9.471,9.471,0,0,1-.795.954.99.99,0,0,1-.795-.159l-.371-.742a5.1,5.1,0,0,0,.835-3.895c-1.126,0-2.239-.026-3.338.013a4.6,4.6,0,0,0-1.152.291,3.8,3.8,0,0,0-1.365,1.047,2.107,2.107,0,0,0-.6,1.378c-.066.676-.013,1.351-.013,2.067h3.881c.146.185.278.358.411.53v.6l-.424.424h-3.815c-.2,1.351.185,2.742-.278,4.146-.331.066-.7.132-1.02.185l-.45-.45v-2.5c-.821,0-1.616-.04-2.411,0a3.721,3.721,0,0,1-3.153-1.325,3.683,3.683,0,0,1-.715-1.086,2.711,2.711,0,0,1-.278-1.179,10.091,10.091,0,0,0,0-1.55,1.516,1.516,0,0,1,1.06-1.749h3.5a3.6,3.6,0,0,1,1.047.172,9.3,9.3,0,0,1,.98.477,15.925,15.925,0,0,0-.238-1.8,11.226,11.226,0,0,0-.941-2.358,7.5,7.5,0,0,0-1.974-2.424,7.1,7.1,0,0,0-1.881-1.232,4.991,4.991,0,0,0-1.457-.424,3.012,3.012,0,0,1-1.815-.795c-.291-.252-.49-.623-.967-.795a3.1,3.1,0,0,1-.45,2.782,3.6,3.6,0,0,1-2.517,1.722c-2.437.344-4.425-1.047-4.676-4.279a4.117,4.117,0,0,1-3.789,1.364,3.836,3.836,0,0,1-2.994-2.769c-.146-2.716.04-2.689,1.576-4.252h-.98a3.36,3.36,0,0,1-2.358-.954,5.673,5.673,0,0,1-1.06-1.537c-.172-.331,0-.649-.2-.954a.78.78,0,0,1,.053-.927c.119-.159.079-.424.132-.623a4.155,4.155,0,0,1,2.517-2.517,1.06,1.06,0,0,1,.411-.04h1.51l-.57-.57a3.013,3.013,0,0,1-1.073-2.133c0-.3-.291-.583-.053-.914.212-.278-.119-.689.238-.927a3.466,3.466,0,0,1,2.332-2.318,4.143,4.143,0,0,1,2.6,0,3.932,3.932,0,0,1,1.709,1.245,4.691,4.691,0,0,1,1.378-3.391,4.424,4.424,0,0,1,3.524-.927c.146.079.265.132.424.212a1.358,1.358,0,0,1,.212.98c-.212.172-.424.344-.649.517a1,1,0,0,1-.344,0,1.585,1.585,0,0,0-1.4,0,2.215,2.215,0,0,0-1.4,1.921,8.529,8.529,0,0,0,.424,2.318c.278,1.219.517,2.451.874,3.656h1.722c.2.2.4.4.6.609v.6c-.292.185-.57.371-.848.543a.909.909,0,0,0-.954-.172c-.464.2-1.073.238-1.285.835a2.1,2.1,0,0,0-.808,2.305,3.215,3.215,0,0,0,1.126,1.51c.079.079.252.093.371.132a7.038,7.038,0,0,1,.729.3c.318.212.517-.106.768-.146a1.679,1.679,0,0,0,1.47-.954,4.393,4.393,0,0,1,.477-.662,4.675,4.675,0,0,0-.027-1.431,2.12,2.12,0,0,1,.027-1.4h.914c.636.371.53,1.06.755,1.59a2.384,2.384,0,0,1-.172,1.6,4.33,4.33,0,0,1-1.5,2.2c.027.252-.04.49.159.729a12.745,12.745,0,0,1,.755,1.232c.609.98,1.259,1.934,1.815,2.941.225.411.6.556.914.795a1.358,1.358,0,0,0,.994.225c.583-.146,1.272-.2,1.6-.835h.967c.119.172.238.358.344.5,0,.53-.4.808-.729,1.166a11.1,11.1,0,0,1,4.345,4.716,37.872,37.872,0,0,1,2.212-5.71,1.966,1.966,0,0,0-.159-1.007,6.078,6.078,0,0,1-.517-1.921c-.159-.609.2-1.192.185-1.8.318-.344.093-.729.079-1.1a10.669,10.669,0,0,0-.623.954,6.038,6.038,0,0,1-1.735,1.788,5.622,5.622,0,0,1-2.9.861,2.465,2.465,0,0,1-.7-.159,4.651,4.651,0,0,1-2.676-1.417,5.378,5.378,0,0,1-1.431-3.365,3.659,3.659,0,0,1,.2-1.378,4.654,4.654,0,0,1,1.55-2.53,16.963,16.963,0,0,1,1.709-1.073v-.2a4.715,4.715,0,0,0-1.113.106,2.975,2.975,0,0,1-1.457.238c-.318-.053-.636-.106-.954-.172a4.515,4.515,0,0,1-2.4-1.245,5.755,5.755,0,0,1-1.086-1.51,7.9,7.9,0,0,1-.517-2.014c-.04-.212.132-.464.146-.7a4.043,4.043,0,0,1,1.311-2.808,2.12,2.12,0,0,0,.238-.331Zm16.824,0a2.979,2.979,0,0,0-1.934.689,3.69,3.69,0,0,0-1.47,2.53,3.413,3.413,0,0,0,.662,2.623,3.238,3.238,0,0,0,1.841,1.417c.358.093.715.2,1.073.3.49-.066.98-.132,1.537-.212a5.714,5.714,0,0,0,1.391-.967,3.3,3.3,0,0,0,1.02-2.477c-.013-.146,0-.291,0-.424a3.544,3.544,0,0,0-1.828-3.007A3.775,3.775,0,0,0,582.387,109.812Zm-4.756,2.265a11.348,11.348,0,0,0-2.027-.384c-.3-.252-.715-.212-1.06-.331a9.4,9.4,0,0,0-1.033-.185,4.816,4.816,0,0,0-1.06-.318,6.052,6.052,0,0,1-1.126-.212,10.483,10.483,0,0,1-1.722-.384,2.584,2.584,0,0,0-1.974.185,3.174,3.174,0,0,0-2.053,3.047v.861a5.6,5.6,0,0,0,1.206,1.735,2.618,2.618,0,0,0,1.841.755,5.986,5.986,0,0,0,1.815-.159c.689-.212,1.4-.358,2.106-.517a7.5,7.5,0,0,1,.782-.2c.636-.093,1.245-.3,1.881-.411a9.925,9.925,0,0,1,2.053-.424c.053,0,.093-.04.159-.066.066-.066.132-.159.2-.225l-.265-.57h-4.014l-.53-.4v-.729a1.42,1.42,0,0,1,1.139-.424c1.139.013,2.278,0,3.4,0,.093-.212.186-.411.3-.649Zm22.269.45a3.46,3.46,0,0,0-1.245-1.629,2.922,2.922,0,0,0-1.828-.742c-.291,0-.623-.132-.9.093s-.689-.106-.927.238a21.529,21.529,0,0,0-2.438.517c-.649.132-1.3.4-1.934.477-.9.106-1.709.477-2.543.583v.662h4.08c.252.185.411.318.517.4v.848c-.106.132-.172.225-.238.3h-4.133l-.291.291c.066.172.132.358.212.543.782,0,1.417.45,2.146.358.2.344.623.066.914.318.212.185.623.132.941.2a5.779,5.779,0,0,1,.954.185,15.436,15.436,0,0,0,1.722.4,5.9,5.9,0,0,0,1.6.278c.371-.026.742,0,1.033,0a6.107,6.107,0,0,0,1.179-.623,3,3,0,0,0,1.206-2.491c-.027-.4,0-.795,0-1.206Zm-9.988-6.134c.265.7.238.874-.212,1.351-.093.106-.2.2-.3.3l-2,2a2.478,2.478,0,0,0-.265.371c.57.212.994-.132,1.457-.185.755-.623,1.656-1.007,2.451-1.563.848-.6,1.762-1.113,2.663-1.643A6.937,6.937,0,0,0,595.078,106a3.5,3.5,0,0,0,.874-1.788,3.215,3.215,0,0,0-.451-2.12,2.511,2.511,0,0,0-.848-1.007c-.4-.238-.755-.662-1.312-.543a2.908,2.908,0,0,0-3.047.782c-.344.344-.768.649-.848,1.192-1.166,1.55-2.053,3.285-3.14,4.875a2.077,2.077,0,0,0-.411,1.735h.132c1.007-.967,2.014-1.934,3.06-2.954.238.066.517.132.835.225Zm-10.518,11.658-2.755,2.755h-.689c-.132-.132-.278-.278-.424-.437v-.861l2.835-2.835c-.04-.04-.119-.106-.225-.2-.132.066-.252.2-.358.185a2.807,2.807,0,0,0-1.55.609c-1.219.729-2.4,1.55-3.6,2.305a10.007,10.007,0,0,0-2.252,1.616,2.552,2.552,0,0,0-.689,1.7c-.026.477,0,.967,0,1.4a6.033,6.033,0,0,0,2.385,2.345h1.378c.146,0,.318.053.424,0a4.529,4.529,0,0,0,2-1.51c.583-.954,1.113-1.961,1.762-2.875.6-.835,1.02-1.775,1.656-2.6a1.4,1.4,0,0,0,.384-1.047c-.013-.106.106-.238.159-.358.013-.04-.027-.106-.04-.185-.093,0-.212-.013-.371-.026Zm4.8-9.777a1.838,1.838,0,0,0,.239-.662c-.066-.7.49-1.3.358-2,.344-.212.066-.623.318-.914.159-.172,0-.556.172-.861a3.6,3.6,0,0,0,.2-.941,4.509,4.509,0,0,1,.2-.941c.185-.331-.026-.742.3-.994.013-.609.344-1.219.146-1.815a3.963,3.963,0,0,0-.715-1.51,3.862,3.862,0,0,0-1.735-1.206c-.252-.066-.517-.079-.782-.159-.238-.079-.57.079-.861.146a2.055,2.055,0,0,0-.768.2,3.264,3.264,0,0,0-1.8,2.928c.013.464.079.927.132,1.391a16.943,16.943,0,0,1,.556,2.782c.331.45.252,1.02.464,1.523s.2,1.1.384,1.643a8.064,8.064,0,0,1,.238,1.272c.172.04.371.093.609.159v-4.093c.079-.53.53-.6.927-.768.265.2.556.4.848.609v4.213h.556Zm-2.994,10.651a6.627,6.627,0,0,1-.212,1.431c-.344.914-.424,1.881-.676,2.808-.159.57-.252,1.153-.4,1.722a13.75,13.75,0,0,0-.464,2.636,2.93,2.93,0,0,0,1.51,2.7,3.065,3.065,0,0,0,3.709-.093,3.254,3.254,0,0,0,1.47-3.06c0-.358-.291-.7-.3-1.06a4.568,4.568,0,0,0-.2-1.047,8.24,8.24,0,0,0-.291-1.086c-.119-.331.08-.729-.225-1.02-.291-1.311-.57-2.623-.861-3.934a.987.987,0,0,0-.106-.2c-.212.106-.4.212-.57.291V122.3a1.5,1.5,0,0,1-.291,1.1c-.265.066-.556.132-.782.185a1.631,1.631,0,0,1-.662-1.431c.04-1.007,0-2,0-3.007a1.126,1.126,0,0,0-.053-.225h-.609Zm-5.272-12.7a1.371,1.371,0,0,1,1.206.49l2.3,2.305c.079.079.212.093.358.159-.066-.384-.106-.662-.159-.954a1.388,1.388,0,0,0-.172-.53c-.358-.45-.6-.954-.914-1.417-1.033-1.563-2-3.179-3.034-4.743a1.192,1.192,0,0,0-.477-.45,6.837,6.837,0,0,0-1.378-.623,2.821,2.821,0,0,0-1.325-.04,3.388,3.388,0,0,0-2.557,2.371,6.493,6.493,0,0,0-.093,1.245,2.722,2.722,0,0,0,1.02,2.226,9.926,9.926,0,0,0,1.735,1.166c1.272.795,2.543,1.576,3.815,2.371a2.771,2.771,0,0,0,.888.517c.358.066.729.411,1.219.04l-2.835-2.835v-.835c.159-.172.291-.318.411-.45ZM558.5,120.688c-.132-.093-.212-.2-.3-.212-.53-.093-1.047-.212-1.576-.331a9.262,9.262,0,0,0-1.391-.344,7.487,7.487,0,0,1-1.974-.424,2.207,2.207,0,0,0-2.808,2.08c.013.225,0,.45,0,.6.146.265.238.45.344.636a2.2,2.2,0,0,0,2.067,1.033c.517-.146,1.06-.212,1.563-.358.954-.252,1.921-.477,2.888-.662a9.8,9.8,0,0,0,1.206-.384V120.7Zm-5.153-5.683a4.747,4.747,0,0,1,.344.583,1.526,1.526,0,0,0,.729.742c1.285.782,2.543,1.576,3.815,2.385a2.316,2.316,0,0,0,1.047.371,1.864,1.864,0,0,1,.954-.98,4.4,4.4,0,0,0-.4-1.033c-.848-1.206-1.563-2.5-2.371-3.736a2.82,2.82,0,0,0-1.417-1.086,1.775,1.775,0,0,0-1.192.106,2.032,2.032,0,0,0-1.5,1.987v.636Zm0,14.042a3.986,3.986,0,0,1,.344.649c.132.464.583.57.9.795a1.612,1.612,0,0,0,.994.238,2.4,2.4,0,0,0,1.126-.358,3.073,3.073,0,0,0,.768-.874c.623-.9,1.166-1.855,1.749-2.782a10.9,10.9,0,0,0,1.033-1.894c-.2-.159-.384-.278-.543-.424s-.291-.358-.477-.57a5.262,5.262,0,0,0-.689.238c-.4.212-.782.45-1.166.689-.821.5-1.629,1.033-2.451,1.537a3.083,3.083,0,0,0-1.444,1.457c-.185.464-.04.888-.146,1.3Zm11.353,3.246v-.6a4.17,4.17,0,0,0-.159-1.563,4.659,4.659,0,0,1-.331-1.311,13.64,13.64,0,0,0-.358-1.656c-.119-.583-.252-1.153-.384-1.775-.583.371-1.219.132-1.8.238a21.463,21.463,0,0,1-.437,2.159c-.331,1.047-.477,2.133-.768,3.193a1.725,1.725,0,0,0,.106,1.219,1.872,1.872,0,0,0,1.682,1.3c.265.358.53.026.808,0a1.263,1.263,0,0,0,.888-.344c.278-.3.556-.609.795-.874Zm10.836,12.89a6.762,6.762,0,0,0-.252-2.557l-.609-.609a2.043,2.043,0,0,0-1.378-.6c-.9-.053-1.815-.013-2.755-.013,0,.477-.027.914,0,1.325a3.779,3.779,0,0,0,.212,1.02,2.541,2.541,0,0,0,1.139,1.139,2.8,2.8,0,0,0,1.086.278c.821.04,1.656,0,2.557,0ZM558.806,112.21h-.053v.172h.053Zm-.053,18.546h.053v-.172h-.053Z" transform="translate(-548.663 -94.71)" fill="#060606"/><path d="M574.537,133.468c-.132-.172-.265-.344-.411-.53h-3.882c0-.7-.053-1.391.013-2.067a2.135,2.135,0,0,1,.6-1.378,3.958,3.958,0,0,1,1.365-1.047,4.094,4.094,0,0,1,1.153-.291c1.113-.04,2.212-.013,3.338-.013a5.1,5.1,0,0,1-.835,3.895l.371.742a2.36,2.36,0,0,0-.543.291,1.4,1.4,0,0,1-1.179.384Z" transform="translate(-541.661 -83.856)" fill="#95d779"/><path d="M574.51,106.112a3.683,3.683,0,0,1,2.292.477,3.544,3.544,0,0,1,1.828,3.007c0,.146-.013.291,0,.424a3.347,3.347,0,0,1-1.02,2.477,5.576,5.576,0,0,1-1.391.967c-.556.079-1.047.146-1.537.212.079-.358-.238-.5-.424-.676-.57-.5-.7-1.258-1.113-1.855.04-.729-.437-1.444,0-2.173a2.96,2.96,0,0,1,.835-1.881,5.53,5.53,0,0,0,.543-.98Z" transform="translate(-540.773 -91.009)" fill="#fbd202"/><path d="M561.065,112.72c.5.093.729.517,1.033.861a2.042,2.042,0,0,0-.027,1.4,4.294,4.294,0,0,1,.027,1.431,4.385,4.385,0,0,0-.477.662,1.679,1.679,0,0,1-1.47.954c-.252.04-.45.358-.768.146a3.248,3.248,0,0,0-.729-.3c0-.053.027-.132,0-.172-.278-.49-.556-.967-.861-1.47,0-.384-.026-.782,0-1.179s.106-.755.159-1.126c.225-.6.821-.636,1.285-.835a.879.879,0,0,1,.954.172c.278-.172.556-.358.848-.543Z" transform="translate(-545.702 -88.861)" fill="#f9d003"/><path d="M570.179,133.736c-.9,0-1.722.027-2.557,0a2.8,2.8,0,0,1-1.086-.278,2.48,2.48,0,0,1-1.139-1.139,3.884,3.884,0,0,1-.212-1.02c-.04-.424,0-.848,0-1.325.941,0,1.841-.04,2.755.013a1.984,1.984,0,0,1,1.378.6c.2.212.4.411.609.609a6.762,6.762,0,0,1,.252,2.557Z" transform="translate(-543.304 -83.263)" fill="#92d377"/><path d="M574.982,106.112a6.027,6.027,0,0,1-.543.98,3.03,3.03,0,0,0-.835,1.881c-.437.729.04,1.444,0,2.173.411.6.543,1.351,1.113,1.855.2.172.5.318.424.676-.358-.106-.715-.212-1.073-.3a3.238,3.238,0,0,1-1.841-1.417,3.359,3.359,0,0,1-.662-2.623,3.768,3.768,0,0,1,1.47-2.53,2.934,2.934,0,0,1,1.934-.689Z" transform="translate(-541.245 -91.01)" fill="#f3c100"/><path d="M558.124,113.63c-.053.371-.132.755-.159,1.126-.026.4,0,.795,0,1.179.291.5.583.98.861,1.47.027.04,0,.106,0,.172-.132-.04-.291-.04-.371-.132a3.214,3.214,0,0,1-1.126-1.51,2.145,2.145,0,0,1,.808-2.305Z" transform="translate(-545.861 -88.566)" fill="#eebd00"/></g><g transform="translate(584.785 111.06)"><path d="M570.138,125.283a2.612,2.612,0,0,0-.3-1.3,4.255,4.255,0,0,1-2.808-2.954,1.856,1.856,0,0,1,0-.715h-.066a9.612,9.612,0,0,1-1.378-.424c-.517-.146-1.033-.291-1.55-.411-.093-.026-.172-.132-.291-.238l.093-1.616c.4-.106.808-.252,1.219-.318.98-.132,1.947-.3,2.928-.5l.265-.04a8.007,8.007,0,0,1,1.908-1.749h-.08c-.3-.013-.609-.04-.98-.053.066-.066.132-.119.185-.172a1.24,1.24,0,0,1-1.086-.808c-.053-.132-.093-.252-.146-.371-.146.079-.278.159-.437.238-.848.45-1.682.927-2.53,1.391-.4.212-.795.437-1.206.623a5.424,5.424,0,0,1-.7.2c-.172-.225-.292-.424-.437-.6s-.331-.291-.517-.464a10.933,10.933,0,0,1,1.139-1.841l.2-.278a1.569,1.569,0,0,1-.384-.4c-.967-1.55-.5-4,.662-5.511a3.728,3.728,0,0,0-4.067-2.49A3.878,3.878,0,0,0,556.44,108c.49,1.1.848,2.252,1.259,3.4.53,1.47,1.02,2.954,1.537,4.411a.291.291,0,0,0,.106-.013c.252-.026.464-.331.768-.106a4.308,4.308,0,0,0,.7.344,1.547,1.547,0,0,1,.371.146,3.225,3.225,0,0,1,1.047,1.576,2.131,2.131,0,0,1-.941,2.265.708.708,0,0,1-.172.252c.265.477.556.927.848,1.391a1.833,1.833,0,0,0,.914-.874,2.24,2.24,0,0,1,1.02.424c1.219.874,2.438,1.735,3.67,2.6a1.554,1.554,0,0,1,.676.782,4.356,4.356,0,0,0,.3.609c0,.185-.026.411-.04.636a2,2,0,0,1-1.4,1.828,10.6,10.6,0,0,1,1.192,1.245,3.392,3.392,0,0,0,1.523-1.8c.371-.225.066-.649.292-.914.265-.318,0-.623,0-.914ZM560.9,114.115c-.6.079-1.206-.2-1.815.146-.106-.636-.2-1.219-.291-1.8a11.825,11.825,0,0,1-.265-1.669,4.135,4.135,0,0,0-.265-1.325,4.458,4.458,0,0,1-.079-1.563c0-.172.013-.344.026-.6l.835-.835a1.231,1.231,0,0,1,.914-.291c.278,0,.556-.318.808.053a1.862,1.862,0,0,1,1.6,1.391,1.8,1.8,0,0,1,.04,1.232c-.358,1.033-.556,2.12-.954,3.14a20.9,20.9,0,0,0-.556,2.133Z" transform="translate(-556.44 -104.466)" fill="#060606"/><path d="M559.353,115.885a14.653,14.653,0,0,0,.848,1.709.932.932,0,0,0,.172-.252,10.583,10.583,0,0,0,.225-1.126c.053-.4.053-.795.066-1.179-.265-.517-.517-1.007-.768-1.51-.027-.04,0-.106,0-.172a5.76,5.76,0,0,1-.7-.344c-.3-.225-.517.079-.768.106a.292.292,0,0,0-.106.013c.331.927.662,1.841,1.046,2.742Z" transform="translate(-555.83 -101.718)" fill="#f9d003"/><path d="M559.98,117.237a10.553,10.553,0,0,0,.225-1.126c.053-.4.053-.795.066-1.179-.265-.517-.517-1.007-.768-1.51-.026-.04,0-.106,0-.172a1.544,1.544,0,0,1,.371.146,3.224,3.224,0,0,1,1.047,1.576,2.131,2.131,0,0,1-.941,2.265Z" transform="translate(-555.45 -101.613)" fill="#eebd00"/></g></g></svg>