<svg xmlns="http://www.w3.org/2000/svg" width="37.205" height="43.734" viewBox="0 0 37.205 43.734"><g transform="translate(0 0)"><g transform="translate(0 0)"><path d="M96.255,90.609c-.214.1-.429.2-.632.319a.827.827,0,0,1-.1.132l-.049-.049.126-.11.022.022c-.005-.137-.055-.291,0-.39.28-.533.374-1.132.61-1.681a15.343,15.343,0,0,0,.7-1.643c1.154-3.791,6.028-13.457,7.88-17.166a4.513,4.513,0,0,1-1.253.264.757.757,0,0,0-.165.4c-.637.665-6.358,12.946-7.748,16.941-.379,1.093-.868,2.165-1.2,3.286a10.432,10.432,0,0,0-.429,1.522c-.06.4-.374.621-.56.929a14.441,14.441,0,0,0-1.308,2.165c-.027.066-.1.11-.176.181-.17-.242-.341-.478-.533-.747a4.389,4.389,0,0,1,.011-.8c.066-.368-.159-.67-.17-1.017a2.255,2.255,0,0,0-.115-.956c-.154-.335.044-.791-.187-1.159a22.6,22.6,0,0,0-.489-2.9,14.465,14.465,0,0,0-.517-1.863A31.6,31.6,0,0,0,88.4,81.921a3.462,3.462,0,0,1-.077-.929c.379.242.7.418.995.632.363.258.4.72.549,1.082a23.694,23.694,0,0,1,1.017,2.973c.2.742.418,1.484.577,2.242.121.555.253,1.126.4,1.681a9.838,9.838,0,0,1,.192,1.236,2.51,2.51,0,0,0,.148.714c.209.528.181.538.709.313a.616.616,0,0,1,.176,0c.165-.566.3-1.077.473-1.572.676-1.907,7.935-18.38,8.885-20.177h-.011a2.784,2.784,0,0,0-.912-.275.041.041,0,0,1-.027-.005c-.5.951-7.517,16.5-7.907,17.5-.209.533-.429,1.061-.6,1.61-.022.066-.154.1-.308.2a9.871,9.871,0,0,0-.478-2.528,16.991,16.991,0,0,0-.687-2.341c-.253-.764-.533-1.511-.8-2.269a4.474,4.474,0,0,1,.692-.192,2.678,2.678,0,0,0,1.3-.588,3.248,3.248,0,0,0,1.071-3.44,2.759,2.759,0,0,0-1.615-1.863,2.583,2.583,0,0,1-.566-.363c2.116-.962,2.9-2.874,1.857-4.841a3.356,3.356,0,0,0-1.093-1.077,2.813,2.813,0,0,0-1.643-.484,3.519,3.519,0,0,0-2.335.94v-1.8c-.066-.066-.115-.093-.132-.137a3.037,3.037,0,0,0-2.357-2.05V66.03h-1.39v.077A3.166,3.166,0,0,0,82.782,67.2a2.888,2.888,0,0,0-.764,1.846c-.005.33,0,.654,0,.984-.33-.181-.615-.352-.912-.495-.385-.187-.467-.154-.791.209v.308c.038.06.055.154.11.181a8.726,8.726,0,0,1,2.044,1.742,6.5,6.5,0,0,0-1.214,1.4,4.1,4.1,0,0,0-.506,1.648,3.916,3.916,0,0,0-1.209-.335,4.066,4.066,0,0,1-1.462-.918,2.038,2.038,0,0,1,.038-2.824,1.548,1.548,0,0,1,.571-.462.6.6,0,0,0,.385-.742l-.456-.313c-.9.093-1.918,1.572-2.011,2.291a3.252,3.252,0,0,0,2.33,3.808c-.275.148-.506.28-.736.4a3.1,3.1,0,0,0-1.385,1.423,4.415,4.415,0,0,0-.192,2.22c.011.214.209.423.313.637a3.973,3.973,0,0,0,.819.973,2.667,2.667,0,0,0,2.225.742,2.823,2.823,0,0,0,1.995-.94c-.022,2.918,1.253,3.588,2.588,4.039a3.214,3.214,0,0,0,3.412-1.484,30.458,30.458,0,0,1,1.148,3.374,24.186,24.186,0,0,1,.764,3.462,21.808,21.808,0,0,1,.473,3.7,3.264,3.264,0,0,0-1.6-.989,1.221,1.221,0,0,0-.962.181,1.37,1.37,0,0,0-.209,1.632,8.171,8.171,0,0,1,.665,1.423,10.322,10.322,0,0,1,.544,1.775,7.209,7.209,0,0,1,.17,2.17.915.915,0,0,0,.159.555h6.495c.049-.11.143-.214.148-.324.016-.489-.016-.978.016-1.467.033-.467.121-.929.192-1.445-.2-.066-.352-.115-.511-.165-.324-.071-.412.242-.626.39v1.868a4.8,4.8,0,0,1-2,.22h-1.05a2.61,2.61,0,0,1,.1-1.137,16.759,16.759,0,0,1,1.154-2.835,14.13,14.13,0,0,1,1.709-2.533c.484-.588,1.011-1.121,1.533-1.67a.451.451,0,0,1,.588-.115,11.514,11.514,0,0,1-.791,1.637v.154l-.154.154c.044.484-.28.868-.341,1.33a2.768,2.768,0,0,1-.28.67c.1.2.2.418.313.632.451-.049.8-.214.819-.742.225-.165.055-.423.154-.626.4-.808.654-1.676,1.082-2.473a1.015,1.015,0,0,0,.11-1.055,1.12,1.12,0,0,0-1.522-.665Zm-6.094-20.4a2.42,2.42,0,0,1,2.484,1.143,4.489,4.489,0,0,1,.2,1.209,2,2,0,0,1-.665,1.418,2.059,2.059,0,0,1-.923.528,2.656,2.656,0,0,1-1.632.286,4.556,4.556,0,0,0-1.643-2.874,5.633,5.633,0,0,1,2.181-1.714Zm-7.05-1.539a1.963,1.963,0,0,1,.451-.874,3.834,3.834,0,0,1,.533-.544h.385a.359.359,0,0,1,0-.077A2.242,2.242,0,0,1,87.4,69.684c-.049.451-.264.874-.313,1.341-.022.192-.258.3-.489.247-.214-.044-.418-.11-.632-.154s-.423.027-.648-.121a.683.683,0,0,0-.72.06c-.1.077-.286.044-.434.066a.91.91,0,0,1-.7.148,4.441,4.441,0,0,1-.357-2.594ZM81.886,79.685c-.176.077-.3.275-.44.423a2.062,2.062,0,0,1-1.775.753c-.176-.016-.357,0-.544,0-.071-.1-.137-.209-.209-.308h-.363a2.182,2.182,0,0,1-.995-2.253,2.21,2.21,0,0,1,1.819-1.764c.016-.044.038-.126.055-.126a4.337,4.337,0,0,0,1.286-.357,4.258,4.258,0,0,0,1.6,2.863.745.745,0,0,1-.44.769Zm5.544,2.368a2.4,2.4,0,0,1-1.72,1.9,2.716,2.716,0,0,1-1.225-.082.335.335,0,0,1,0-.077H84.1c-1.269-1.225-.973-.984-1.011-2.412a4.775,4.775,0,0,1,.363-1.637c.258.066.489.126.72.181a2.319,2.319,0,0,0,1.577.022c.269-.121.626.006.934-.165.187-.1.407.1.412.236.022.692.412,1.313.335,2.033Zm.192-4A3.016,3.016,0,0,1,85.255,79a2.873,2.873,0,0,0-.308,0,2.843,2.843,0,0,1-1.973-.813,3.6,3.6,0,0,1-.593-.6,3.442,3.442,0,0,1-.665-2.561,3.1,3.1,0,0,1,.769-1.676,4.993,4.993,0,0,1,1.143-.962,2.7,2.7,0,0,1,1.319-.346,3.239,3.239,0,0,1,2.22.6,3.93,3.93,0,0,1,1.33,1.676,1.2,1.2,0,0,1,.165.709,2.917,2.917,0,0,0,0,.692,2.933,2.933,0,0,1-1.033,2.335Zm1.989-1.824a3.311,3.311,0,0,1,1.929.456c.67.33.709.39,1.3,1.324a6.158,6.158,0,0,1-.143,1.462,2.06,2.06,0,0,1-1.758,1.385,2.617,2.617,0,0,1-2.061-.8,9.881,9.881,0,0,1-.907-.9,4.647,4.647,0,0,0,1.643-2.934Zm1.445,21.935c-.1.44-.28.863-.385,1.3s-.269.511-.786.2a10.694,10.694,0,0,0-1.533-5.621c1.006.423.648.027,3.072,2.495C91.541,97.142,91.189,97.625,91.057,98.164Z" transform="translate(-76.564 -57.084)" fill="#070706"/><path d="M131.535,60.184a6.826,6.826,0,0,0-.725-1.154,7.231,7.231,0,0,0-1.132-.846,5.276,5.276,0,0,0,.725-.434,2.883,2.883,0,0,0,.962-1.22,3.151,3.151,0,0,0-.28-2.764,2.91,2.91,0,0,0-1.7-1.2,2.513,2.513,0,0,0-1.9.22,7.844,7.844,0,0,1-.747.341c0-.209-.016-.368,0-.517a2.134,2.134,0,0,0-.352-1.4c-.3-.484-.6-1.044-1.269-1.154-.407-.4-.923-.3-1.418-.308a2.7,2.7,0,0,0-2.4,1.473,1.721,1.721,0,0,0-.286,1.044,3.21,3.21,0,0,1-.044.912,3.088,3.088,0,0,0-4.577.813c-.055.533-.407,1-.33,1.566a5.877,5.877,0,0,0,.626,1.67,3.889,3.889,0,0,0,1.434.967,3.56,3.56,0,0,0-1.615,1.374,2.774,2.774,0,0,0-.374,1.951,4.014,4.014,0,0,0,1.033,1.813v.022a3.089,3.089,0,0,0,1.176.313,13.142,13.142,0,0,0,2.127-.154.226.226,0,0,1,.17.049c.11-.137.236-.28.374-.462v1.17a1.081,1.081,0,0,0,.044.445,3.325,3.325,0,0,0,1.181,1.511,3.773,3.773,0,0,0,1.484.517,2.505,2.505,0,0,0,1.137-.209,2.976,2.976,0,0,0,1.874-2.747c0-.192.016-.385.022-.533.28.148.533.286.791.412a3.461,3.461,0,0,0,1.4.159,1.9,1.9,0,0,0,1.121-.286,3.807,3.807,0,0,0,.462-.357,2.5,2.5,0,0,0,.989-2.3c-.016-.231,0-.462,0-.7Zm-3.715-6.462a1.666,1.666,0,0,1,1.72-.016,1.8,1.8,0,0,1,1.028,1.335,1.988,1.988,0,0,1-.863,1.967,3.072,3.072,0,0,1-1.352.478,1.491,1.491,0,0,0-.467.165,4.458,4.458,0,0,0-1.511-2.6,4.59,4.59,0,0,1,1.445-1.324Zm-4.643-2.89c.467-.154.544-.154,1.517.016.324.352.665.72.951,1.033a6.293,6.293,0,0,1-.2,2.324c-.022.066-.1.11-.148.154a6.5,6.5,0,0,0-2.89.027l-.154-.154a9.62,9.62,0,0,1-.308-1.725A1.965,1.965,0,0,1,123.177,50.832Zm-3.236,11.8a1.51,1.51,0,0,1-.813.247c-.181.011-.462.192-.582-.137a1.489,1.489,0,0,1-1.093-.7,1.844,1.844,0,0,1-.132-1.9,1.574,1.574,0,0,1,1.225-.967,2.314,2.314,0,0,1,1.368-.286,2.563,2.563,0,0,0,.407,1.352,14.442,14.442,0,0,0,.962,1.187,5.535,5.535,0,0,1-1.341,1.2Zm5.7,1.742c-.648,1.253-1.275,1.517-2.731,1.137-.154-.181-.33-.4-.506-.61a.379.379,0,0,1-.308-.462.948.948,0,0,1-.121-.989c.187-.335.038-.643.154-.995.121-.093.275-.214.434-.335.154.06.39-.143.462.154a9.071,9.071,0,0,0,1.159-.011,7.349,7.349,0,0,0,1.044-.28,4.554,4.554,0,0,1,.423,2.39Zm-.181-3.621a3.309,3.309,0,0,1-1.973.44,2.892,2.892,0,0,1-2.324-1.539,2.094,2.094,0,0,1-.313-1.187c.027-.357.006-.714.006-1.088-.1-.071-.209-.137-.308-.209h-.533c-.1.159-.2.324-.3.473a10,10,0,0,0-.978-.313.417.417,0,0,1-.357-.319h-.313a1.823,1.823,0,0,1-.89-2.187,1.62,1.62,0,0,1,1.357-1.214c.544-.39,1.05-.033,1.467.192a9.6,9.6,0,0,1,1.429,1.192,1.528,1.528,0,0,0-.4.236,1.5,1.5,0,0,0-.176.4c.044.088.1.192.154.3.3.3.588.1.868-.027a3.622,3.622,0,0,0,.538-.374,1.309,1.309,0,0,1,.912-.22l.154-.154a3.331,3.331,0,0,1,1.846.368,3,3,0,0,1,1.385,1.643,3.058,3.058,0,0,1-1.258,3.583Zm5.127.3a1.915,1.915,0,0,1-.89,1.533,1.787,1.787,0,0,1-2.4-.3c-.324-.286-.61-.6-.956-.951a3.96,3.96,0,0,0,1.473-2.434c.852-.143,1.462.374,2.148.643a2.135,2.135,0,0,1,.632,1.511Z" transform="translate(-94.353 -49.749)" fill="#070706"/><path d="M109.268,116.089c.044.484-.28.868-.341,1.33a2.768,2.768,0,0,1-.28.67c.1.2.2.418.313.632.11.434-.17.819-.154,1.236-.324-.071-.412.242-.626.39v1.868a4.794,4.794,0,0,1-2,.22,3.019,3.019,0,0,1,.055-.593c.176-.593.346-1.187.566-1.764a20.934,20.934,0,0,1,1.923-3.66c.11-.176.258-.4.549-.33Z" transform="translate(-89.907 -79.63)" fill="#bde3ab"/><path d="M81.1,72.76v.308c-.209-.055-.308.115-.451.209a2.464,2.464,0,0,0-1.093,2.066,2.726,2.726,0,0,0,.626,1.808.886.886,0,0,1,.148.555,4.067,4.067,0,0,1-1.462-.918,2.038,2.038,0,0,1,.038-2.824,1.548,1.548,0,0,1,.571-.462.6.6,0,0,0,.385-.742H81.1Z" transform="translate(-77.355 -60.116)" fill="#ece4e0"/><path d="M90.294,76.966a3.239,3.239,0,0,1,2.22.6,3.93,3.93,0,0,1,1.33,1.676,1.2,1.2,0,0,1,.165.709,2.919,2.919,0,0,0,0,.692,2.933,2.933,0,0,1-1.033,2.335,3.016,3.016,0,0,1-2.368.951,2.873,2.873,0,0,0-.308,0c-.044-.313-.368-.286-.538-.451a4.071,4.071,0,0,1-1.17-4.154,4.592,4.592,0,0,1,1.17-1.9c.159-.176.495-.143.533-.456ZM92.948,79.9a.492.492,0,0,0,.225-.731c-.187-.335-.538-.148-.808-.2-.088.192-.154.341-.22.489.082.148.159.3.236.44h.56Zm-1.863-1.143a.528.528,0,0,0,.67.2c.28-.093.264-.4.231-.643-.137-.154-.264-.3-.39-.445-.192.082-.341.148-.517.225v.659Zm.753,1.11c-.016-.308-.154-.434-.484-.423s-.478.176-.445.538c.027.286.192.407.522.385C91.728,80.345,91.854,80.192,91.838,79.867Z" transform="translate(-81.911 -62.003)" fill="#fadd75"/><path d="M113.016,73.435a5.551,5.551,0,0,1-1.418.709c-.951,1.8-7.726,17.523-8.407,19.43-.176.495-.3,1.011-.473,1.572a.616.616,0,0,0-.176,0c-.527.231-.495.22-.709-.313a2.51,2.51,0,0,1-.148-.714,10,10,0,0,0-.192-1.236c-.143-.555-.275-1.121-.4-1.681-.159-.758-.379-1.5-.577-2.242A23.4,23.4,0,0,0,99.5,85.986c-.154-.363-.187-.824-.549-1.082-.3-.214-.615-.39-.995-.632a3.483,3.483,0,0,0,.077.929,32.6,32.6,0,0,1,1.572,4.368,14.716,14.716,0,0,1,.517,1.863,21.676,21.676,0,0,1,.489,2.9c.225.368.033.824.187,1.159a2.235,2.235,0,0,1,.115.956c.016.352.242.648.17,1.017a4.389,4.389,0,0,0-.011.8c.192.269.363.506.533.747.071-.071.148-.115.176-.181a14,14,0,0,1,1.308-2.165c.187-.308.5-.533.56-.929a11.4,11.4,0,0,1,.429-1.522,24.938,24.938,0,0,1,1.2-3.286c.368-.8,7.1-16.276,7.748-16.941a.757.757,0,0,1,.165-.4c-.049,0,.082-.4-.181-.165Z" transform="translate(-86.203 -60.379)" fill="#bae0a8"/><path d="M128.28,59.6a3.331,3.331,0,0,1,1.846.368,3,3,0,0,1,1.385,1.643,3.058,3.058,0,0,1-1.258,3.583,3.309,3.309,0,0,1-1.973.44c-.044-.313-.412-.258-.533-.462-.341-.571-.912-1.039-.879-1.8a1.569,1.569,0,0,1-.1-1.324,4.255,4.255,0,0,1,.456-1.2c.258-.407.681-.659.9-1.093l.154-.154Zm1.484,1.852c.4.06.517-.242.7-.418-.17-.506-.39-.72-.637-.659a.736.736,0,0,0-.467.753c.055.044.154.115.253.2C129.67,61.371,129.725,61.421,129.764,61.454Zm.352.742c.176.511.39.72.637.659a.7.7,0,0,0,.467-.659l-.368-.412C130.45,61.706,130.324,62,130.115,62.2Zm-.89.506c.319-.005.445-.143.445-.462,0-.357-.148-.489-.522-.462-.3.022-.423.176-.407.5C128.758,62.586,128.9,62.712,129.225,62.7Z" transform="translate(-99.138 -54.184)" fill="#f9dc74"/><path d="M98.973,84.585a3.311,3.311,0,0,1,1.929.456c.67.33.709.39,1.3,1.324a6.158,6.158,0,0,1-.143,1.462,2.06,2.06,0,0,1-1.758,1.385,2.617,2.617,0,0,1-2.061-.8,9.882,9.882,0,0,1-.907-.9A4.647,4.647,0,0,0,98.973,84.585Z" transform="translate(-85.92 -65.435)" fill="#f4efed"/><path d="M98.993,78.189a4.556,4.556,0,0,0-1.643-2.874A5.633,5.633,0,0,1,99.531,73.6a2.42,2.42,0,0,1,2.484,1.143,4.488,4.488,0,0,1,.2,1.209,2,2,0,0,1-.665,1.418,2.059,2.059,0,0,1-.923.528A2.656,2.656,0,0,1,99,78.183Z" transform="translate(-85.929 -60.473)" fill="#f4efed"/><path d="M90.4,91.2a2.319,2.319,0,0,0,1.577.022c.269-.121.626.005.934-.165.187-.1.407.1.412.236.022.692.412,1.313.335,2.033a2.4,2.4,0,0,1-1.72,1.9,2.716,2.716,0,0,1-1.225-.082c-.005,0,0-.049,0-.071a3.01,3.01,0,0,0-.055-.742,3.514,3.514,0,0,1-.258-1.676c.027-.484,0-.967,0-1.451Z" transform="translate(-82.793 -68.346)" fill="#f4efed"/><path d="M136.351,60.714a4.458,4.458,0,0,0-1.511-2.6,4.59,4.59,0,0,1,1.445-1.324,1.666,1.666,0,0,1,1.72-.016,1.8,1.8,0,0,1,1.028,1.335,1.987,1.987,0,0,1-.863,1.967,3.072,3.072,0,0,1-1.352.478,1.491,1.491,0,0,0-.467.165Z" transform="translate(-102.818 -52.807)" fill="#f3edeb"/><path d="M134.79,68.834a3.96,3.96,0,0,0,1.473-2.434c.852-.143,1.462.374,2.148.643a2.135,2.135,0,0,1,.632,1.511,1.915,1.915,0,0,1-.89,1.533,1.787,1.787,0,0,1-2.4-.3c-.324-.286-.61-.6-.956-.951Z" transform="translate(-102.796 -57.24)" fill="#f3edec"/><path d="M127.1,55.038a9.621,9.621,0,0,1-.308-1.725,1.965,1.965,0,0,1,1.231-1.676c.467-.154.544-.154,1.517.016.324.352.665.72.951,1.033a6.293,6.293,0,0,1-.2,2.324c-.022.066-.1.11-.148.154a6.5,6.5,0,0,0-2.89.027l-.154-.154Z" transform="translate(-99.191 -50.549)" fill="#f5efed"/><path d="M90.711,68.1a.359.359,0,0,1,0-.077,2.242,2.242,0,0,1,2.923,2.506c-.049.451-.264.874-.313,1.341-.022.192-.258.3-.489.247-.209-.044-.418-.11-.632-.154s-.423.027-.648-.126a.683.683,0,0,0-.72.06c-.1.077-.286.044-.434.066-.027-.225.148-.462.121-.621a3.3,3.3,0,0,1-.121-.632V69.306a8.137,8.137,0,0,0,.451-.857c.038-.093.115-.319-.143-.346Z" transform="translate(-82.795 -57.932)" fill="#f5efed"/><path d="M81.172,84.744c.016-.044.038-.126.055-.126a4.336,4.336,0,0,0,1.286-.357,4.258,4.258,0,0,0,1.6,2.863.745.745,0,0,1-.44.769c-.176.077-.3.275-.44.423a2.062,2.062,0,0,1-1.775.753c-.176-.016-.357,0-.544,0-.071-.1-.137-.209-.209-.308.3-.231.137-.506.077-.775a5.862,5.862,0,0,1-.242-.9,3.057,3.057,0,0,1,.368-1.533,1.389,1.389,0,0,0,.258-.813Z" transform="translate(-78.356 -65.297)" fill="#f4efed"/><path d="M81.331,77.959a.844.844,0,0,0-.148-.555,2.726,2.726,0,0,1-.626-1.808A2.477,2.477,0,0,1,81.65,73.53c.143-.093.242-.264.451-.209.038.06.055.154.11.181a8.726,8.726,0,0,1,2.044,1.742,6.5,6.5,0,0,0-1.214,1.4,4.1,4.1,0,0,0-.506,1.648,3.916,3.916,0,0,0-1.209-.335Z" transform="translate(-78.361 -60.364)" fill="#f6f0ee"/><path d="M122.206,60.2h-.533c-.1.159-.2.324-.3.473a10,10,0,0,0-.978-.313.417.417,0,0,1-.357-.319c.192-.011.2-.17.121-.253-.319-.313-.258-.758-.407-1.132-.154-.39.159-.8.176-1.209.341-.187.258-.511.264-.808.544-.39,1.05-.033,1.467.192a9.6,9.6,0,0,1,1.429,1.192,1.529,1.529,0,0,0-.4.236,1.5,1.5,0,0,0-.176.4c.049.088.1.192.154.3-.143.418-.533.742-.462,1.236Z" transform="translate(-96.003 -52.774)" fill="#f4eeec"/><path d="M108.384,114.456c-.291-.071-.44.154-.549.33a20.934,20.934,0,0,0-1.923,3.66c-.22.577-.4,1.17-.566,1.764a3.018,3.018,0,0,0-.055.593h-1.05a2.61,2.61,0,0,1,.1-1.137,16.759,16.759,0,0,1,1.154-2.835,14.131,14.131,0,0,1,1.709-2.533c.484-.588,1.011-1.121,1.533-1.67a.451.451,0,0,1,.588-.115,11.514,11.514,0,0,1-.791,1.637c-.044.016-.088.033-.126.049l.126.1Z" transform="translate(-89.022 -77.997)" fill="#a6d78e"/><path d="M128.31,72.311a9.073,9.073,0,0,0,1.159-.011,7.35,7.35,0,0,0,1.044-.28,4.554,4.554,0,0,1,.423,2.39c-.648,1.253-1.275,1.517-2.731,1.137-.154-.181-.33-.4-.506-.61.1-.357.473,0,.632-.253-.379-.549.022-1.247-.291-1.857.088-.148.357-.236.28-.517Z" transform="translate(-99.602 -59.783)" fill="#f5efed"/><path d="M89.139,76.98c-.044.313-.379.275-.533.456a4.628,4.628,0,0,0-1.17,1.9,4.063,4.063,0,0,0,1.17,4.154c.17.17.495.143.538.451a2.843,2.843,0,0,1-1.973-.813,3.6,3.6,0,0,1-.593-.6,3.442,3.442,0,0,1-.665-2.561,3.1,3.1,0,0,1,.769-1.676,4.993,4.993,0,0,1,1.143-.962,2.7,2.7,0,0,1,1.319-.346Z" transform="translate(-80.756 -62.017)" fill="#f8cc59"/><path d="M120.206,66.665a2.314,2.314,0,0,1,1.368-.286,2.563,2.563,0,0,0,.407,1.352,14.44,14.44,0,0,0,.962,1.187,5.535,5.535,0,0,1-1.341,1.2,1.51,1.51,0,0,1-.813.247c-.181.011-.462.192-.582-.137a1.163,1.163,0,0,0-.22-.758,1.882,1.882,0,0,1,.005-1.879,1.547,1.547,0,0,0,.214-.918Z" transform="translate(-96.014 -57.23)" fill="#f5efed"/><path d="M98.03,117.02c1.006.423.648.027,3.072,2.495.115.6-.236,1.088-.368,1.626-.1.44-.28.863-.385,1.3s-.269.511-.786.2a10.694,10.694,0,0,0-1.533-5.621Z" transform="translate(-86.235 -80.056)" fill="#a6d78e"/><path d="M124.244,61.732c-.066-.495.324-.819.462-1.236.3.3.588.1.868-.027a3.622,3.622,0,0,0,.539-.374,1.309,1.309,0,0,1,.912-.22c-.214.429-.637.681-.9,1.093a4.134,4.134,0,0,0-.456,1.2,1.569,1.569,0,0,0,.1,1.324c-.038.758.533,1.225.879,1.8.121.2.489.148.533.462a2.892,2.892,0,0,1-2.324-1.539,2.094,2.094,0,0,1-.313-1.187c.027-.357.006-.714.006-1.088-.1-.071-.209-.137-.308-.209Z" transform="translate(-98.041 -54.308)" fill="#f9cd5a"/><path d="M80.158,85.14a1.4,1.4,0,0,1-.258.813,3.085,3.085,0,0,0-.368,1.533,6.217,6.217,0,0,0,.242.9c.06.269.225.544-.077.775h-.363a2.182,2.182,0,0,1-.995-2.253,2.21,2.21,0,0,1,1.819-1.764Z" transform="translate(-77.342 -65.693)" fill="#ece3e0"/><path d="M89.819,68.26c.258.027.181.253.143.346a9.311,9.311,0,0,1-.451.857V70.87a3.785,3.785,0,0,0,.121.632c.027.159-.148.4-.121.621a.91.91,0,0,1-.7.148,4.441,4.441,0,0,1-.357-2.594A1.963,1.963,0,0,1,88.9,68.8a3.835,3.835,0,0,1,.533-.544Z" transform="translate(-81.903 -58.089)" fill="#eae2de"/><path d="M89.519,91.191c0,.484.022.967,0,1.451a3.448,3.448,0,0,0,.258,1.676,2.99,2.99,0,0,1,.055.742h-.385c-1.269-1.225-.973-.984-1.011-2.412A4.775,4.775,0,0,1,88.8,91.01c.258.066.489.126.72.181Z" transform="translate(-81.911 -68.338)" fill="#ebe3df"/><path d="M119.421,66.915a1.47,1.47,0,0,1-.214.918,1.882,1.882,0,0,0-.005,1.879,1.163,1.163,0,0,1,.22.758,1.489,1.489,0,0,1-1.093-.7,1.844,1.844,0,0,1-.132-1.9,1.574,1.574,0,0,1,1.225-.967Z" transform="translate(-95.229 -57.48)" fill="#eae2de"/><path d="M119.414,56.79c-.005.3.077.621-.264.808-.016.412-.335.819-.176,1.209.148.374.088.819.407,1.132.088.082.077.242-.121.253h-.313a1.823,1.823,0,0,1-.89-2.187,1.62,1.62,0,0,1,1.357-1.214Z" transform="translate(-95.223 -52.921)" fill="#eee6e2"/><path d="M128.045,72.414c.077.28-.192.374-.28.517.313.61-.088,1.308.291,1.857-.159.258-.528-.1-.632.253a.379.379,0,0,1-.308-.462h.253c.071-.808.143-1.566.209-2.319.154.06.39-.143.462.154Z" transform="translate(-99.337 -59.885)" fill="#eae2de"/><path d="M127.42,72.27c-.066.758-.137,1.511-.209,2.319h-.253a.948.948,0,0,1-.121-.989c.187-.335.038-.643.154-.995.121-.093.275-.214.434-.335Z" transform="translate(-99.173 -59.895)" fill="#f5efed"/><path d="M127.35,57.92l.154.154Z" transform="translate(-99.444 -53.43)" fill="#e5deda"/><path d="M129.474,59.61l-.154.154Z" transform="translate(-100.331 -54.192)" fill="#f9cd5a"/><path d="M111.976,115.694l-.126-.1c.044-.016.088-.033.126-.049Z" transform="translate(-92.461 -79.389)" fill="#bde3ab"/><path d="M96,81.562h-.56c-.077-.143-.159-.291-.236-.44.066-.148.137-.3.22-.489.269.049.621-.137.808.2a.492.492,0,0,1-.225.731Z" transform="translate(-84.96 -63.659)" fill="#141109"/><path d="M93.26,79.515v-.659c.17-.077.324-.143.517-.225.121.143.253.291.39.445.027.247.049.549-.231.643a.515.515,0,0,1-.67-.2Z" transform="translate(-84.086 -62.76)" fill="#0f0d07"/><path d="M93.865,81.913c.016.33-.11.484-.407.5-.33.022-.495-.1-.522-.385-.033-.363.1-.533.445-.538S93.848,81.605,93.865,81.913Z" transform="translate(-83.938 -64.049)" fill="#080704"/><path d="M131.971,62.079c-.038-.033-.093-.082-.148-.126l-.253-.2a.736.736,0,0,1,.467-.753c.247-.06.467.154.637.659C132.488,61.832,132.372,62.139,131.971,62.079Z" transform="translate(-101.345 -54.814)" fill="#0f0d07"/><path d="M132.94,63.972c.209-.2.335-.489.736-.412l.368.412a.684.684,0,0,1-.467.659C133.33,64.692,133.116,64.483,132.94,63.972Z" transform="translate(-101.962 -55.965)" fill="#141109"/><path d="M130.922,64.47c-.33.005-.467-.115-.484-.423-.016-.33.11-.484.407-.5.368-.027.522.11.522.462C131.367,64.333,131.241,64.465,130.922,64.47Z" transform="translate(-100.835 -55.964)" fill="#080704"/></g></g></svg>