<svg xmlns="http://www.w3.org/2000/svg" width="33.004" height="34.793" viewBox="0 0 33.004 34.793"><path d="M217.893,101.648a.915.915,0,0,1-.159-.555,7.037,7.037,0,0,0-.17-2.17,10.32,10.32,0,0,0-.544-1.775,8.169,8.169,0,0,0-.665-1.423,1.362,1.362,0,0,1,.209-1.632,1.2,1.2,0,0,1,.962-.181,3.142,3.142,0,0,1,1.6.989,21.807,21.807,0,0,0-.473-3.7,24.188,24.188,0,0,0-.764-3.462,31.256,31.256,0,0,0-1.148-3.374,3.207,3.207,0,0,1-3.412,1.484c-1.33-.451-2.61-1.121-2.588-4.039a2.811,2.811,0,0,1-1.995.94,2.678,2.678,0,0,1-2.225-.742,3.856,3.856,0,0,1-.819-.973c-.1-.214-.3-.423-.313-.637a4.4,4.4,0,0,1,.192-2.22,3.153,3.153,0,0,1,1.385-1.423c.231-.121.462-.253.736-.4a3.245,3.245,0,0,1-2.33-3.808c.088-.72,1.115-2.2,2.011-2.291l.456.313a.609.609,0,0,1-.385.742,1.548,1.548,0,0,0-.571.462,2.038,2.038,0,0,0-.038,2.824,4.066,4.066,0,0,0,1.462.918,3.915,3.915,0,0,1,1.209.335,3.991,3.991,0,0,1,.506-1.648,6.68,6.68,0,0,1,1.214-1.4,8.954,8.954,0,0,0-2.044-1.742c-.055-.027-.077-.121-.11-.181v-.308c.324-.363.407-.4.791-.209.3.143.582.313.912.495,0-.324-.005-.654,0-.984a2.888,2.888,0,0,1,.764-1.846,3.155,3.155,0,0,1,1.709-1.093.335.335,0,0,0,0-.077h1.39v.077a3.028,3.028,0,0,1,2.357,2.05c.016.044.071.071.132.137v1.8a3.519,3.519,0,0,1,2.335-.94,2.877,2.877,0,0,1,1.643.484,3.41,3.41,0,0,1,1.093,1.077c1.039,1.967.258,3.874-1.857,4.841a3.066,3.066,0,0,0,.566.363,2.757,2.757,0,0,1,1.616,1.863,3.252,3.252,0,0,1-1.072,3.44,2.651,2.651,0,0,1-1.3.588,4.475,4.475,0,0,0-.692.192c.269.753.549,1.506.8,2.269a16.257,16.257,0,0,1,.687,2.341,9.825,9.825,0,0,1,.478,2.528c.154-.1.286-.132.308-.2.17-.549.39-1.077.6-1.61a30.464,30.464,0,0,1,1.522-3.236,1.436,1.436,0,0,0,.071-.3,4.014,4.014,0,0,1-1.033-1.813,2.774,2.774,0,0,1,.374-1.951,3.5,3.5,0,0,1,1.616-1.374,3.844,3.844,0,0,1-1.434-.967,5.834,5.834,0,0,1-.626-1.67c-.077-.566.275-1.033.33-1.566a3.1,3.1,0,0,1,4.577-.813,3.022,3.022,0,0,0,.044-.912,1.759,1.759,0,0,1,.286-1.044,2.706,2.706,0,0,1,2.4-1.473c.495.011,1.011-.088,1.418.308.67.11.973.67,1.269,1.154a2.151,2.151,0,0,1,.352,1.4,4.026,4.026,0,0,0,0,.517c.258-.121.511-.214.747-.341a2.539,2.539,0,0,1,1.9-.22,2.91,2.91,0,0,1,1.7,1.2,3.131,3.131,0,0,1,.28,2.764,2.809,2.809,0,0,1-.962,1.22,5.884,5.884,0,0,1-.725.434,7.784,7.784,0,0,1,1.132.846,7.3,7.3,0,0,1,.725,1.154c0,.236-.016.467,0,.7a2.507,2.507,0,0,1-.989,2.3,4.913,4.913,0,0,1-.462.357,1.9,1.9,0,0,1-1.121.286,3.27,3.27,0,0,1-1.4-.159c-.258-.126-.511-.264-.791-.412-.006.143-.027.335-.022.533a2.982,2.982,0,0,1-1.874,2.747,2.609,2.609,0,0,1-1.137.209,3.833,3.833,0,0,1-1.484-.517A3.325,3.325,0,0,1,227.85,86a1.081,1.081,0,0,1-.044-.445c-.006-.352,0-.7,0-1.17a7.235,7.235,0,0,0-.61.8c-.506.945-1.006,1.9-1.478,2.868-.264.533-.467,1.093-.7,1.643s-.33,1.148-.61,1.681c-.055.1-.005.253,0,.39l-.022-.022-.126.11.049.049a.751.751,0,0,0,.1-.132c.2-.11.418-.214.632-.319a1.118,1.118,0,0,1,1.522.665,1.014,1.014,0,0,1-.11,1.055c-.429.8-.687,1.665-1.082,2.473-.1.209.071.467-.154.626-.016.528-.368.692-.819.742-.1-.214-.209-.429-.313-.632a2.681,2.681,0,0,0,.28-.67c.055-.462.385-.846.341-1.33l.154-.154v-.154a12.14,12.14,0,0,0,.791-1.637.451.451,0,0,0-.588.115c-.522.549-1.05,1.082-1.533,1.67a14.131,14.131,0,0,0-1.709,2.533,17.515,17.515,0,0,0-1.154,2.835,2.53,2.53,0,0,0-.1,1.137h1.05a4.706,4.706,0,0,0,2-.22V98.642c.214-.148.3-.462.626-.39.154.049.313.1.511.165-.071.522-.165.984-.192,1.445-.033.489,0,.978-.016,1.467,0,.11-.093.214-.148.324H217.9ZM229.339,83.4c-.154.121-.313.242-.434.335-.115.352.033.659-.154.995a.947.947,0,0,0,.121.989.377.377,0,0,0,.308.462c.176.214.352.423.506.61,1.456.379,2.083.115,2.731-1.137a4.554,4.554,0,0,0-.423-2.39,7.349,7.349,0,0,1-1.044.28,9.052,9.052,0,0,1-1.159.011c-.071-.3-.313-.093-.462-.154Zm.775-6.8a1.255,1.255,0,0,0-.912.22,3.5,3.5,0,0,1-.538.374c-.275.132-.571.33-.868.027-.055-.1-.11-.209-.154-.3a1.423,1.423,0,0,1,.176-.4c.077-.093.214-.126.4-.236a9.075,9.075,0,0,0-1.429-1.192c-.418-.225-.923-.582-1.467-.192a1.613,1.613,0,0,0-1.357,1.214,1.823,1.823,0,0,0,.89,2.187h.313a.423.423,0,0,0,.357.319c.319.071.632.2.978.313.093-.154.2-.313.3-.473h.533c.1.066.2.137.308.209,0,.368.022.731-.006,1.088a2.094,2.094,0,0,0,.313,1.187,2.879,2.879,0,0,0,2.324,1.539,3.3,3.3,0,0,0,1.973-.44A3.058,3.058,0,0,0,233.5,78.46a3,3,0,0,0-1.385-1.643,3.379,3.379,0,0,0-1.846-.368l-.154.154Zm-4.792,7.424c.121.33.4.148.582.137a1.465,1.465,0,0,0,.813-.247,5.317,5.317,0,0,0,1.341-1.2c-.335-.407-.687-.775-.962-1.187a2.5,2.5,0,0,1-.407-1.352,2.356,2.356,0,0,0-1.368.286,1.563,1.563,0,0,0-1.225.967,1.844,1.844,0,0,0,.132,1.9,1.489,1.489,0,0,0,1.093.7Zm-17.628-2.627c.066.1.137.2.209.308.187,0,.368-.016.544,0a2.062,2.062,0,0,0,1.775-.753c.143-.148.264-.346.44-.423a.765.765,0,0,0,.44-.769,4.27,4.27,0,0,1-1.6-2.863,4.694,4.694,0,0,1-1.286.357c-.016,0-.038.082-.055.126a2.223,2.223,0,0,0-1.819,1.764,2.173,2.173,0,0,0,.995,2.253h.363Zm5.566-13.3h-.385a4.156,4.156,0,0,0-.533.544,1.963,1.963,0,0,0-.451.874,4.441,4.441,0,0,0,.357,2.594.91.91,0,0,0,.7-.148c.148-.016.33.011.434-.066a.708.708,0,0,1,.72-.06c.231.148.44.082.648.126s.418.1.632.154c.231.049.467-.06.489-.247.049-.467.264-.89.313-1.341a2.242,2.242,0,0,0-2.923-2.506.335.335,0,0,0,0,.077Zm15.776,7.424.154.154a6.5,6.5,0,0,1,2.89-.027c.044-.044.126-.088.148-.154a6.3,6.3,0,0,0,.2-2.324c-.291-.313-.626-.681-.951-1.033-.973-.17-1.05-.17-1.517-.016a1.965,1.965,0,0,0-1.231,1.676A9.622,9.622,0,0,0,229.037,75.52Zm-15.776,9.127a.31.31,0,0,0,0,.071,2.881,2.881,0,0,0,1.225.082,2.4,2.4,0,0,0,1.72-1.9,14.8,14.8,0,0,0-.335-2.033.3.3,0,0,0-.412-.236c-.308.17-.665.044-.934.165a2.287,2.287,0,0,1-1.577-.022c-.231-.06-.462-.115-.72-.181a4.747,4.747,0,0,0-.363,1.637c.038,1.429-.258,1.187,1.011,2.412h.385Zm.462-4.792c.1,0,.209-.006.308,0A3.008,3.008,0,0,0,216.4,78.9a2.916,2.916,0,0,0,1.033-2.335,2.918,2.918,0,0,1,0-.692,1.2,1.2,0,0,0-.165-.709,3.93,3.93,0,0,0-1.33-1.676,3.268,3.268,0,0,0-2.22-.6,2.7,2.7,0,0,0-1.319.346,5.262,5.262,0,0,0-1.143.962,3.1,3.1,0,0,0-.769,1.676,3.382,3.382,0,0,0,1.258,3.16,2.819,2.819,0,0,0,1.973.813ZM221.86,92.7a.616.616,0,0,0-.176,0c-.528.231-.495.22-.709-.313a2.511,2.511,0,0,1-.148-.714,9.992,9.992,0,0,0-.192-1.236c-.143-.555-.275-1.121-.4-1.681-.159-.758-.379-1.5-.577-2.242a23.4,23.4,0,0,0-1.017-2.973c-.154-.363-.187-.824-.549-1.082-.3-.214-.615-.39-.995-.632a3.483,3.483,0,0,0,.077.929,32.6,32.6,0,0,1,1.572,4.368,14.715,14.715,0,0,1,.517,1.863,21.678,21.678,0,0,1,.489,2.9c.225.368.033.824.187,1.159a2.235,2.235,0,0,1,.115.956c.016.346.242.648.17,1.017a4.39,4.39,0,0,0-.011.8c.192.269.363.506.533.747.071-.071.148-.115.176-.181a14,14,0,0,1,1.308-2.165c.187-.308.5-.533.56-.929a11.394,11.394,0,0,1,.429-1.522,24.939,24.939,0,0,1,1.2-3.286,7.8,7.8,0,0,1,1.2-2.363c0-.352.478-.588.275-.995h-1.028a39.217,39.217,0,0,0-2.533,5.989c-.176.495-.3,1.011-.473,1.572Zm-3.467-15.611a4.672,4.672,0,0,1-1.643,2.934,10.632,10.632,0,0,0,.907.9,2.6,2.6,0,0,0,2.061.8,2.053,2.053,0,0,0,1.758-1.385,6.157,6.157,0,0,0,.143-1.462c-.588-.94-.626-.995-1.3-1.324a3.386,3.386,0,0,0-1.929-.456Zm.011-1.44a2.7,2.7,0,0,0,1.632-.286,2.059,2.059,0,0,0,.923-.528,2,2,0,0,0,.665-1.418,4.526,4.526,0,0,0-.2-1.209,2.42,2.42,0,0,0-2.484-1.143,5.622,5.622,0,0,0-2.181,1.714,4.57,4.57,0,0,1,1.643,2.874Zm16.254,3.3a1.643,1.643,0,0,1,.467-.165,3.1,3.1,0,0,0,1.352-.478,1.968,1.968,0,0,0,.863-1.967A1.8,1.8,0,0,0,236.312,75a1.666,1.666,0,0,0-1.72.016,4.59,4.59,0,0,0-1.445,1.324,4.458,4.458,0,0,1,1.511,2.6Zm-1.539,3.687c.346.346.632.665.956.951a1.8,1.8,0,0,0,2.4.3,1.921,1.921,0,0,0,.89-1.533,2.145,2.145,0,0,0-.632-1.511c-.687-.264-1.291-.786-2.148-.643a3.945,3.945,0,0,1-1.473,2.434Zm-15.99,12.265a10.694,10.694,0,0,1,1.533,5.621c.511.319.676.253.786-.2s.28-.863.385-1.3c.126-.538.484-1.022.368-1.626-2.423-2.467-2.066-2.072-3.072-2.495Z" transform="translate(-205.334 -66.86)" fill="#070706"/><path d="M238.038,116.939c.044.484-.28.868-.341,1.33a2.767,2.767,0,0,1-.28.67c.1.2.2.418.313.632.11.434-.17.819-.154,1.236-.324-.071-.412.242-.626.39v1.868a4.8,4.8,0,0,1-2,.22,3.02,3.02,0,0,1,.055-.593c.176-.593.346-1.187.566-1.764a20.935,20.935,0,0,1,1.923-3.66c.11-.176.258-.4.549-.33Z" transform="translate(-218.676 -89.415)" fill="#bde3ab"/><path d="M209.87,73.6v.308c-.209-.055-.308.115-.451.209a2.464,2.464,0,0,0-1.093,2.066,2.726,2.726,0,0,0,.626,1.808.886.886,0,0,1,.148.555,4.067,4.067,0,0,1-1.462-.918,2.038,2.038,0,0,1,.038-2.824,1.549,1.549,0,0,1,.571-.462.6.6,0,0,0,.385-.742h1.236Z" transform="translate(-206.125 -69.896)" fill="#ece4e0"/><path d="M219.064,77.816a3.239,3.239,0,0,1,2.22.6,3.931,3.931,0,0,1,1.33,1.676,1.2,1.2,0,0,1,.165.709,2.919,2.919,0,0,0,0,.692,2.933,2.933,0,0,1-1.033,2.335,3.016,3.016,0,0,1-2.368.951,2.875,2.875,0,0,0-.308,0c-.044-.313-.368-.286-.538-.451a4.071,4.071,0,0,1-1.17-4.154,4.592,4.592,0,0,1,1.17-1.9c.159-.176.495-.143.533-.456Zm2.654,2.934a.492.492,0,0,0,.225-.731c-.187-.335-.538-.148-.808-.2-.088.192-.154.341-.22.489.082.148.159.3.236.44h.56Zm-1.863-1.143a.528.528,0,0,0,.67.2c.28-.093.264-.4.231-.643-.137-.154-.264-.3-.39-.445-.192.082-.341.148-.517.225v.659Zm.753,1.11c-.016-.308-.154-.434-.484-.423s-.478.176-.445.538c.027.286.192.407.522.385C220.5,81.2,220.624,81.042,220.608,80.717Z" transform="translate(-210.681 -71.788)" fill="#fadd75"/><path d="M231.494,104.958c.165-.566.3-1.077.473-1.572A39.215,39.215,0,0,1,234.5,97.4h1.028c.209.4-.269.637-.275.995a7.923,7.923,0,0,0-1.2,2.363,24.177,24.177,0,0,0-1.2,3.286,10.43,10.43,0,0,0-.429,1.522c-.06.4-.374.621-.56.929a14.442,14.442,0,0,0-1.308,2.165c-.027.066-.1.11-.176.181-.17-.242-.341-.478-.533-.747a4.389,4.389,0,0,1,.011-.8c.066-.368-.159-.67-.17-1.017a2.255,2.255,0,0,0-.115-.956c-.154-.335.044-.791-.187-1.159a22.593,22.593,0,0,0-.489-2.9,14.464,14.464,0,0,0-.517-1.863,31.6,31.6,0,0,0-1.572-4.368,3.461,3.461,0,0,1-.077-.929c.379.242.7.418.995.632.363.258.4.72.549,1.082a23.694,23.694,0,0,1,1.017,2.973c.2.742.418,1.484.577,2.242.121.555.253,1.126.4,1.681a9.841,9.841,0,0,1,.192,1.236,2.51,2.51,0,0,0,.148.714c.209.528.181.538.709.313a.616.616,0,0,1,.176,0Z" transform="translate(-214.973 -79.132)" fill="#bae0a8"/><path d="M249.38,84.292a3.331,3.331,0,0,1,1.846.368,3,3,0,0,1,1.385,1.643,3.058,3.058,0,0,1-1.258,3.583,3.309,3.309,0,0,1-1.973.44c-.044-.313-.412-.258-.533-.462-.341-.571-.912-1.039-.879-1.8a1.569,1.569,0,0,1-.1-1.324,4.255,4.255,0,0,1,.456-1.2c.258-.407.681-.659.9-1.093l.154-.154Zm1.484,1.852c.4.06.517-.242.7-.418-.17-.506-.39-.72-.637-.659a.736.736,0,0,0-.467.753c.055.044.154.115.253.2C250.77,86.061,250.825,86.111,250.864,86.144Zm.352.742c.176.511.39.72.637.659a.7.7,0,0,0,.467-.659l-.368-.412C251.55,86.4,251.424,86.688,251.215,86.885Zm-.89.506c.319-.006.445-.143.445-.462,0-.357-.148-.489-.522-.462-.3.022-.423.176-.407.5C249.858,87.276,250,87.4,250.325,87.391Z" transform="translate(-224.452 -74.709)" fill="#f9dc74"/><path d="M227.743,85.435a3.311,3.311,0,0,1,1.929.456c.67.33.709.39,1.3,1.324a6.16,6.16,0,0,1-.143,1.462,2.06,2.06,0,0,1-1.758,1.385,2.617,2.617,0,0,1-2.061-.8,9.881,9.881,0,0,1-.907-.9,4.647,4.647,0,0,0,1.643-2.934Z" transform="translate(-214.689 -75.22)" fill="#f4efed"/><path d="M227.763,79.029a4.556,4.556,0,0,0-1.643-2.874A5.633,5.633,0,0,1,228.3,74.44a2.42,2.42,0,0,1,2.484,1.143,4.488,4.488,0,0,1,.2,1.209,2,2,0,0,1-.665,1.418,2.059,2.059,0,0,1-.923.528,2.656,2.656,0,0,1-1.632.286Z" transform="translate(-214.698 -70.253)" fill="#f4efed"/><path d="M219.171,92.039a2.319,2.319,0,0,0,1.577.022c.269-.121.626.005.934-.165.187-.1.407.1.412.236.022.692.412,1.313.335,2.033a2.4,2.4,0,0,1-1.72,1.9,2.716,2.716,0,0,1-1.225-.082c-.005,0,0-.049,0-.071a3.009,3.009,0,0,0-.055-.742,3.514,3.514,0,0,1-.258-1.676c.027-.484,0-.967,0-1.451Z" transform="translate(-211.563 -78.126)" fill="#f4efed"/><path d="M257.461,85.4a4.457,4.457,0,0,0-1.511-2.6,4.59,4.59,0,0,1,1.445-1.324,1.666,1.666,0,0,1,1.72-.016,1.8,1.8,0,0,1,1.028,1.335,1.988,1.988,0,0,1-.863,1.967,3.072,3.072,0,0,1-1.352.478,1.491,1.491,0,0,0-.467.165Z" transform="translate(-228.137 -73.332)" fill="#f3edeb"/><path d="M255.9,93.524a3.96,3.96,0,0,0,1.473-2.434c.852-.143,1.462.374,2.148.643a2.136,2.136,0,0,1,.632,1.511,1.915,1.915,0,0,1-.89,1.533,1.787,1.787,0,0,1-2.4-.3c-.324-.286-.61-.6-.956-.951Z" transform="translate(-228.115 -77.765)" fill="#f3edec"/><path d="M248.2,79.728A9.619,9.619,0,0,1,247.889,78a1.965,1.965,0,0,1,1.231-1.676c.467-.154.544-.154,1.517.016.324.352.665.72.951,1.033a6.293,6.293,0,0,1-.2,2.324c-.022.066-.1.11-.148.154a6.5,6.5,0,0,0-2.89.027Z" transform="translate(-224.505 -71.074)" fill="#f5efed"/><path d="M219.491,68.943a.36.36,0,0,1,0-.077,2.242,2.242,0,0,1,2.923,2.506c-.049.451-.264.874-.313,1.341-.022.192-.258.3-.489.247-.209-.044-.418-.11-.632-.154s-.423.027-.648-.126a.683.683,0,0,0-.72.06c-.1.077-.286.044-.434.066-.027-.225.148-.462.121-.621a3.3,3.3,0,0,1-.121-.632V70.146a8.139,8.139,0,0,0,.451-.857c.038-.093.115-.319-.143-.346Z" transform="translate(-211.569 -67.712)" fill="#f5efed"/><path d="M209.942,85.594c.016-.044.038-.126.055-.126a4.336,4.336,0,0,0,1.286-.357,4.258,4.258,0,0,0,1.6,2.863.745.745,0,0,1-.44.769c-.176.077-.3.275-.44.423a2.062,2.062,0,0,1-1.775.753c-.176-.016-.357,0-.544,0-.071-.1-.137-.209-.209-.308.3-.231.137-.506.077-.775a5.865,5.865,0,0,1-.242-.9,3.057,3.057,0,0,1,.368-1.533,1.389,1.389,0,0,0,.258-.813Z" transform="translate(-207.125 -75.082)" fill="#f4efed"/><path d="M210.1,78.8a.844.844,0,0,0-.148-.555,2.726,2.726,0,0,1-.626-1.808,2.477,2.477,0,0,1,1.093-2.066c.143-.093.242-.264.451-.209.038.06.055.154.11.181a8.726,8.726,0,0,1,2.044,1.742,6.5,6.5,0,0,0-1.214,1.4,4.1,4.1,0,0,0-.506,1.648,3.915,3.915,0,0,0-1.209-.335Z" transform="translate(-207.13 -70.145)" fill="#f6f0ee"/><path d="M243.316,84.9h-.533c-.1.159-.2.324-.3.473a10,10,0,0,0-.978-.313.417.417,0,0,1-.357-.319c.192-.011.2-.17.121-.253-.319-.313-.258-.758-.407-1.132-.154-.39.159-.8.176-1.209.341-.187.258-.511.264-.808.544-.39,1.049-.033,1.467.192a9.6,9.6,0,0,1,1.429,1.192,1.529,1.529,0,0,0-.4.236,1.5,1.5,0,0,0-.176.4c.049.088.1.192.154.3-.143.418-.533.742-.462,1.236Z" transform="translate(-221.322 -73.304)" fill="#f4eeec"/><path d="M237.154,115.306c-.291-.071-.44.154-.549.33a20.934,20.934,0,0,0-1.923,3.66c-.22.577-.4,1.17-.566,1.764a3.02,3.02,0,0,0-.055.593h-1.05a2.61,2.61,0,0,1,.1-1.137,16.758,16.758,0,0,1,1.154-2.835,14.13,14.13,0,0,1,1.709-2.533c.484-.588,1.011-1.121,1.533-1.67a.451.451,0,0,1,.588-.115,11.516,11.516,0,0,1-.791,1.637c-.044.016-.088.033-.126.049l.126.1-.154.154Z" transform="translate(-217.792 -87.782)" fill="#a6d78e"/><path d="M249.36,97.011A9.073,9.073,0,0,0,250.519,97a7.349,7.349,0,0,0,1.044-.28,4.554,4.554,0,0,1,.423,2.39c-.648,1.253-1.275,1.517-2.731,1.137-.154-.181-.33-.4-.506-.61.1-.357.473,0,.632-.253-.379-.549.022-1.247-.291-1.857.088-.148.357-.236.28-.517Z" transform="translate(-224.893 -80.312)" fill="#f5efed"/><path d="M217.909,77.83c-.044.313-.379.275-.533.456a4.628,4.628,0,0,0-1.17,1.9,4.063,4.063,0,0,0,1.17,4.154c.17.17.495.143.538.451a2.843,2.843,0,0,1-1.973-.813,3.6,3.6,0,0,1-.593-.6,3.442,3.442,0,0,1-.665-2.561,3.1,3.1,0,0,1,.769-1.676,4.993,4.993,0,0,1,1.143-.962,2.7,2.7,0,0,1,1.319-.346Z" transform="translate(-209.526 -71.802)" fill="#f8cc59"/><path d="M241.316,91.365a2.314,2.314,0,0,1,1.368-.286,2.564,2.564,0,0,0,.407,1.352,14.442,14.442,0,0,0,.962,1.187,5.536,5.536,0,0,1-1.341,1.2,1.51,1.51,0,0,1-.813.247c-.181.011-.462.192-.582-.137a1.163,1.163,0,0,0-.22-.758,1.882,1.882,0,0,1,.005-1.879,1.547,1.547,0,0,0,.214-.918Z" transform="translate(-221.333 -77.76)" fill="#f5efed"/><path d="M226.8,117.86c1.006.423.648.027,3.072,2.495.115.6-.236,1.088-.368,1.626-.1.44-.28.863-.385,1.3s-.269.511-.786.2A10.694,10.694,0,0,0,226.8,117.86Z" transform="translate(-215.005 -89.836)" fill="#a6d78e"/><path d="M245.354,86.432c-.066-.495.324-.819.462-1.236.3.3.588.1.868-.027a3.62,3.62,0,0,0,.538-.374,1.309,1.309,0,0,1,.912-.22c-.214.429-.637.681-.9,1.093a4.134,4.134,0,0,0-.456,1.2,1.569,1.569,0,0,0,.1,1.324c-.038.758.533,1.225.879,1.8.121.2.489.148.533.462a2.892,2.892,0,0,1-2.324-1.539,2.094,2.094,0,0,1-.313-1.187c.027-.357.005-.714.005-1.088-.1-.071-.209-.137-.308-.209Z" transform="translate(-223.36 -74.837)" fill="#f9cd5a"/><path d="M208.928,85.99a1.4,1.4,0,0,1-.258.813,3.085,3.085,0,0,0-.368,1.533,6.22,6.22,0,0,0,.242.9c.06.269.225.544-.077.775H208.1a2.182,2.182,0,0,1-.995-2.253A2.21,2.21,0,0,1,208.928,86Z" transform="translate(-206.112 -75.478)" fill="#ece3e0"/><path d="M218.6,69.1c.258.027.181.253.143.346a9.311,9.311,0,0,1-.451.857V71.71a3.785,3.785,0,0,0,.121.632c.027.159-.148.4-.121.621a.91.91,0,0,1-.7.148,4.441,4.441,0,0,1-.357-2.594,1.963,1.963,0,0,1,.451-.874,3.834,3.834,0,0,1,.533-.544h.385Z" transform="translate(-210.678 -67.869)" fill="#eae2de"/><path d="M218.289,92.031c0,.484.022.967,0,1.451a3.448,3.448,0,0,0,.258,1.676,2.99,2.99,0,0,1,.055.742h-.385c-1.269-1.225-.973-.984-1.011-2.412a4.775,4.775,0,0,1,.363-1.637C217.827,91.916,218.058,91.976,218.289,92.031Z" transform="translate(-210.68 -78.118)" fill="#ebe3df"/><path d="M240.531,91.615a1.471,1.471,0,0,1-.214.918,1.882,1.882,0,0,0-.005,1.879,1.163,1.163,0,0,1,.22.758,1.489,1.489,0,0,1-1.093-.7,1.844,1.844,0,0,1-.132-1.9,1.574,1.574,0,0,1,1.225-.967Z" transform="translate(-220.548 -78.01)" fill="#eae2de"/><path d="M240.524,81.48c-.005.3.077.621-.264.808-.016.412-.335.819-.176,1.209.148.374.088.819.407,1.132.088.082.077.242-.121.253h-.313a1.823,1.823,0,0,1-.89-2.187A1.62,1.62,0,0,1,240.524,81.48Z" transform="translate(-220.542 -73.447)" fill="#eee6e2"/><path d="M249.095,97.114c.077.28-.192.374-.28.517.313.61-.088,1.308.291,1.857-.159.258-.527-.1-.632.253a.379.379,0,0,1-.308-.462h.253c.071-.808.143-1.566.209-2.319.154.06.39-.143.462.154Z" transform="translate(-224.628 -80.415)" fill="#eae2de"/><path d="M248.47,96.96c-.066.758-.137,1.511-.209,2.319h-.253a.948.948,0,0,1-.121-.989c.187-.335.038-.643.154-.995.121-.093.275-.214.434-.335Z" transform="translate(-224.465 -80.42)" fill="#f5efed"/><path d="M248.45,82.61l.154.154Z" transform="translate(-224.758 -73.956)" fill="#e5deda"/><path d="M250.574,84.3l-.154.154Z" transform="translate(-225.646 -74.717)" fill="#f9cd5a"/><path d="M240.746,116.534l-.126-.1c.044-.016.088-.033.126-.049Z" transform="translate(-221.231 -89.169)" fill="#bde3ab"/><path d="M224.767,82.4h-.56c-.077-.143-.159-.291-.236-.44.066-.148.137-.3.22-.489.269.049.621-.137.808.2a.492.492,0,0,1-.225.731Z" transform="translate(-213.73 -73.44)" fill="#141109"/><path d="M222.03,80.365v-.659c.17-.077.324-.143.517-.225.121.143.253.291.39.445.027.247.049.549-.231.643a.515.515,0,0,1-.67-.2Z" transform="translate(-212.856 -72.545)" fill="#0f0d07"/><path d="M222.635,82.753c.016.33-.11.484-.407.5-.33.022-.495-.1-.522-.385-.033-.363.1-.533.445-.538S222.618,82.445,222.635,82.753Z" transform="translate(-212.708 -73.829)" fill="#080704"/><path d="M253.071,86.769c-.038-.033-.093-.082-.148-.126l-.253-.2a.736.736,0,0,1,.467-.753c.247-.06.467.154.637.659C253.588,86.522,253.472,86.829,253.071,86.769Z" transform="translate(-226.659 -75.34)" fill="#0f0d07"/><path d="M254.04,88.662c.209-.2.335-.489.736-.412l.368.412a.684.684,0,0,1-.467.659C254.43,89.382,254.216,89.173,254.04,88.662Z" transform="translate(-227.277 -76.491)" fill="#141109"/><path d="M252.032,89.17c-.33.006-.467-.115-.484-.423-.016-.33.11-.484.407-.5.368-.027.522.11.522.462C252.477,89.033,252.351,89.165,252.032,89.17Z" transform="translate(-226.154 -76.494)" fill="#080704"/></svg>