<svg version="1.2" xmlns="http://www.w3.org/2000/svg" viewBox="0 0 170 169" width="515" height="512"><defs><linearGradient id="P" gradientUnits="userSpaceOnUse"/><radialGradient id="g1" cx="95.2" cy="39.4" r="18.3" href="#P"><stop stop-color="#fff"/><stop offset="1" stop-color="#faaf40"/></radialGradient><radialGradient id="g2" cx="65.2" cy="56.6" r="23.2" href="#P"><stop stop-color="#fff"/><stop offset="1" stop-color="#faaf40"/></radialGradient><radialGradient id="g3" cx="96.2" cy="72.5" r="19.3" href="#P"><stop stop-color="#fff"/><stop offset="1" stop-color="#faaf40"/></radialGradient><radialGradient id="g4" cx="168.4" cy="33.4" r="18.3" href="#P"><stop stop-color="#fff"/><stop offset="1" stop-color="#faaf40"/></radialGradient><radialGradient id="g5" cx="138.3" cy="50.6" r="23.2" href="#P"><stop stop-color="#fff"/><stop offset="1" stop-color="#faaf40"/></radialGradient><radialGradient id="g6" cx="169.3" cy="66.6" r="19.3" href="#P"><stop stop-color="#fff"/><stop offset="1" stop-color="#faaf40"/></radialGradient><radialGradient id="g7" cx="135.3" cy="100.6" r="18.3" href="#P"><stop stop-color="#fff"/><stop offset="1" stop-color="#faaf40"/></radialGradient><radialGradient id="g8" cx="105.2" cy="117.8" r="23.2" href="#P"><stop stop-color="#fff"/><stop offset="1" stop-color="#faaf40"/></radialGradient><radialGradient id="g9" cx="136.2" cy="133.7" r="19.3" href="#P"><stop stop-color="#fff"/><stop offset="1" stop-color="#faaf40"/></radialGradient><radialGradient id="g10" cx="208.8" cy="96.1" r="18.3" href="#P"><stop stop-color="#fff"/><stop offset="1" stop-color="#faaf40"/></radialGradient><radialGradient id="g11" cx="178.7" cy="113.3" r="23.2" href="#P"><stop stop-color="#fff"/><stop offset="1" stop-color="#faaf40"/></radialGradient><radialGradient id="g12" cx="209.7" cy="129.3" r="19.3" href="#P"><stop stop-color="#fff"/><stop offset="1" stop-color="#faaf40"/></radialGradient><radialGradient id="g13" cx="61.8" cy="105" r="18.3" href="#P"><stop stop-color="#fff"/><stop offset="1" stop-color="#faaf40"/></radialGradient><radialGradient id="g14" cx="31.8" cy="122.1" r="23.2" href="#P"><stop stop-color="#fff"/><stop offset="1" stop-color="#faaf40"/></radialGradient><radialGradient id="g15" cx="62.7" cy="138.1" r="19.3" href="#P"><stop stop-color="#fff"/><stop offset="1" stop-color="#faaf40"/></radialGradient></defs><style>.a{fill:url(#g1)}.b{fill:url(#g2)}.c{fill:url(#g3)}.d{fill:url(#g4)}.e{fill:url(#g5)}.f{fill:url(#g6)}.g{fill:url(#g7)}.h{fill:url(#g8)}.i{fill:url(#g9)}.j{fill:url(#g10)}.k{fill:url(#g11)}.l{fill:url(#g12)}.m{fill:url(#g13)}.n{fill:url(#g14)}.o{fill:url(#g15)}</style><path class="a" d="m74.9 37q0.1 0.2 0.3 0.4 0.1 0.2 0.3 0.4 0.1 0.2 0.2 0.4 0.2 0.2 0.3 0.4 0.1 0.2 0.2 0.3 0.1 0.2 0.2 0.3 0.1 0.2 0.2 0.3 0.1 0.2 0.3 0.3 0.3 0.1 0.5 0.1 0.3 0 0.6-0.1 0.3-0.1 0.5-0.2 0.3-0.2 0.4-0.5 0-0.4 0.1-0.8-1.2-1.8-2.3-3.5l8.9-17.4c0.9 0 1.8 0 2.7 0 1.1-0.1 2.3 0 3.4-0.1 2.2-0.2 4.4-0.2 6.5-0.3 1.8-0.2 3.6-0.1 5.4-0.2 0.8 1.3 1.7 2.4 2.5 3.7 0.7 1.1 1.7 2.2 2.4 3.3 1.2 2.1 2.7 4.1 4 6.1 0.4 0.7 0.8 1.3 1.3 2l-8.9 17.3q-0.3 0.1-0.6 0.1-0.3 0-0.5 0-0.3 0-0.5 0-0.2 0-0.5 0-0.2 0-0.5 0c-1.5 0.2-3.1 0.1-4.7 0.2q-0.3-0.1-0.6-0.1-0.3 0.1-0.6 0.1-0.4 0.1-0.7 0.1-0.3 0.1-0.6 0.3-0.1 0.2-0.2 0.4-0.1 0.3-0.2 0.5 0 0.3 0 0.5 0 0.3 0.1 0.6 0 0.1 0 0.2 0 0.1 0 0.2 0 0.2 0 0.3 0 0.1 0 0.2 0 0.3 0 0.5 0.1 0.2 0.1 0.4 0 0.3 0 0.5 0 0.2 0 0.5c-0.1 0.8 0.2 1.6-0.2 2.4q-0.1 0-0.1 0-0.1-0.1-0.2-0.1 0 0-0.1 0-0.1 0-0.1 0c-2.1 0.1-4.1 0.2-6.2 0.2q-0.3 0-0.5 0-0.3 0-0.6 0.1-0.3 0-0.6 0.1-0.2 0.1-0.5 0.2l-2.3 4.5c-0.2 0.5-0.6 1-0.3 1.6q0.1 0.3 0.3 0.5 0.2 0.1 0.4 0.3 0.3 0.1 0.5 0.1 0.3 0 0.6-0.1 0.2-0.2 0.4-0.4 0.2-0.3 0.4-0.6 0.2-0.2 0.3-0.5 0.1-0.3 0.2-0.6c0.5-0.8 0.9-1.7 1.3-2.5 3.1-0.2 6.3-0.3 9.3-0.4 0.3-0.3 0.5-0.5 0.7-0.7-0.1-2.2-0.1-4.4-0.2-6.6q1.3-0.1 2.5-0.2 2.4-0.1 4.8-0.1c0.8 0 1.6 0 2.1-0.6l9.9-19.3q-0.1-0.2-0.1-0.4-0.1-0.1-0.2-0.3 0-0.1-0.1-0.3-0.1-0.1-0.1-0.3-2-2.9-4-5.9-1.2-1.7-2.4-3.5c-0.5-0.7-1-1.4-1.4-2.1q-1.4-2.2-3-4.3-0.1-0.2-0.2-0.4-0.2-0.1-0.4-0.2-0.1-0.1-0.3-0.1-0.2 0-0.4 0-0.5 0-1 0-0.5 0-1 0-0.6 0-1.1 0-0.5 0-1 0.1c-1.5 0.2-3 0.1-4.5 0.2-1.2 0.1-2.5-0.1-3.7 0.1-2 0.2-3.9 0.1-5.9 0.3q-0.3 0-0.6 0-0.3 0-0.6 0-0.2 0.1-0.5 0.2-0.3 0-0.6 0.1l-9.8 19.3q0 0.4 0.1 0.7 0.1 0.3 0.2 0.6 0.2 0.4 0.3 0.6 0.2 0.3 0.4 0.6z"/><path class="b" d="m38.7 58.9c0.3 1 1.1 1.6 1.5 2.4 0.6 1.2 1.5 2.1 2.2 3.3 0.5 1 1.4 1.9 2 2.9 0.8 1.4 1.8 2.6 2.6 4q0.3 0.4 0.6 0.8 0.3 0.4 0.6 0.8 0.2 0.5 0.5 0.9 0.2 0.4 0.5 0.8 0.1 0.3 0.3 0.5 0.2 0.2 0.4 0.4 0.3 0.1 0.6 0.1 0.3 0 0.5-0.1 0.2 0 0.4 0 0.1 0 0.3 0 0.2 0 0.4 0 0.1 0 0.3 0 2 0 3.9-0.2c1.5 0 3 0 4.4-0.2 1.1-0.1 2.2 0 3.2 0q2.4-0.2 4.8-0.2 0.3 0 0.6-0.1 0.3 0 0.6 0 0.3-0.1 0.6-0.1 0.3-0.1 0.6-0.1l2.7-5.4c-0.1-0.5-0.2-1-0.3-1.3l-0.6-0.3c-0.6 0.1-1 0.2-1.4 0.3l-2.2 4.3c-1.8 0.1-3.6 0.2-5.4 0.2-2 0.1-4.1 0.1-6.1 0.2q-3.3 0.1-6.5 0.2-0.4-0.3-0.7-0.8-0.3-0.4-0.6-0.8-0.3-0.4-0.5-0.8-0.3-0.4-0.6-0.9c-1.2-2.1-2.7-3.9-4-6-0.7-1.2-1.7-2.2-2.4-3.4q-0.2-0.3-0.3-0.6-0.2-0.3-0.4-0.5-0.2-0.3-0.4-0.6-0.1-0.3-0.3-0.6l8.8-17.3c2.1-0.1 4-0.3 6-0.3 1.8-0.1 3.6-0.2 5.4-0.2 2.3 0 4.5-0.3 6.7-0.2q0.2 0.2 0.3 0.4 0.2 0.2 0.4 0.4 0.1 0.2 0.2 0.4 0.2 0.2 0.3 0.4 0.3 0.5 0.6 1 0.3 0.5 0.7 1 0.3 0.5 0.6 1 0.3 0.4 0.7 0.9 0.2 0.3 0.4 0.5 0.1 0.3 0.3 0.5 0.2 0.3 0.3 0.6 0.2 0.2 0.3 0.5 0 0.1 0.1 0.3 0.1 0.1 0.2 0.2 0.1 0.1 0.2 0.1 0.2 0.1 0.3 0.1 0.2 0.1 0.3 0.1 0.2 0 0.3 0 0.2 0 0.3-0.1 0.2 0 0.3-0.1c0.8-0.5 1.6-1 2.3-1.6q1.4-0.9 2.8-1.8 2.6 3.9 5.1 7.6c0.6 0 1.1 0.1 1.7 0.1q1.7-0.1 3.5-0.1 0.3 0 0.5-0.1 0.3 0 0.5-0.2 0.2-0.1 0.4-0.3 0.2-0.2 0.3-0.4c-0.1-0.5-0.2-0.9-0.4-1.4-1.7-0.6-3.4 0-5.1-0.2-1.8-2.7-3.6-5.4-5.4-8.1q-0.3 0-0.6 0-0.3 0-0.5 0-0.3 0.1-0.5 0.2-0.3 0.1-0.5 0.3c-1.2 0.9-2.4 1.7-3.6 2.5q-0.4 0.3-0.9 0.6c0-0.2 0-0.3-0.1-0.4-0.9-1.3-2-2.6-2.8-3.9q-0.3-0.5-0.5-0.9-0.3-0.5-0.6-0.9-0.3-0.4-0.6-0.9-0.4-0.4-0.7-0.8-0.1 0-0.3-0.1-0.1 0-0.3 0-0.1 0-0.2-0.1-0.2 0-0.3 0c-2.4 0.2-4.7 0.2-7 0.3q-1.6 0-3.2 0.1c-1.3 0.1-2.7 0.1-4 0.2-1.3 0.2-2.7 0-4.1 0.1q-0.3 0-0.5 0-0.2 0.1-0.5 0.1-0.2 0-0.4 0.1-0.2 0-0.5 0.1l-10 19.6c0.3 0.3 0.1 0.8 0.5 1z"/><path class="c" d="m100.3 57.7c0.2 0.5 0.3 0.9 0.4 1.4 1.7 0.6 3.4-0.1 5.1 0.2 0.8 1.1 1.6 2.1 2.3 3.2 1.2 2 2.6 3.9 3.9 5.9 0.8 1.2 1.6 2.3 2.4 3.5q0.8 1.2 1.5 2.4l-8.9 17.3q-1.5 0.1-2.9 0.2c-1.3 0-2.5-0.1-3.7 0.1-2.1 0.2-4.2 0-6.3 0.3-1.7 0.1-3.4 0-5.1 0.1-1-1.4-2.1-2.8-3-4.3-0.9-1.5-1.9-2.9-2.9-4.4-0.1-0.1-0.2-0.1-0.3-0.2q-0.2-0.4-0.4-0.8-0.2-0.4-0.5-0.7-0.2-0.4-0.4-0.7-0.3-0.4-0.5-0.8-1.2-1.6-2.2-3.2c1.4-2.8 2.8-5.4 4.1-8.1q0.2-0.2 0.3-0.4 0-0.2 0.1-0.4 0-0.3 0.1-0.5 0-0.2-0.1-0.5c-0.3-0.2-0.7-0.5-1.1-0.8-0.7-0.3-1.3-0.6-1.9-0.9l-3.5-1.8 3.9-7.8q0.1-0.2 0.2-0.4 0.1-0.3 0.1-0.6-0.1-0.2-0.1-0.5-0.1-0.2-0.3-0.4c-0.8-1.4-1.8-2.6-2.5-4q-0.9 0.1-1.6 0.2-0.2 0.3-0.3 0.6-0.1 0.3-0.1 0.6 0 0.3 0.1 0.6 0.2 0.3 0.4 0.5c0.6 0.8 1.1 1.7 1.6 2.5l-4.1 8q-0.1 0.2-0.2 0.5-0.1 0.2-0.2 0.4 0 0.2-0.1 0.5 0 0.2 0.1 0.5 0.1 0.1 0.2 0.2 0.2 0.1 0.3 0.2 0.2 0.1 0.3 0.2 0.2 0.1 0.3 0.2c1.8 0.9 3.6 1.8 5.4 2.7l-4.3 8.6c0.2 1.3 1.1 2.2 1.7 3.1 1.1 1.7 2.3 3.3 3.4 5 1 1.5 2 3 3 4.5 1.1 1.8 2.4 3.5 3.6 5.2q0.3 0 0.6-0.1c1.9 0 3.8 0.1 5.7 0 1.6-0.1 3.1-0.1 4.6-0.2 1.2-0.1 2.5 0.1 3.7-0.1 1.5-0.2 3.1-0.1 4.7-0.2q0.3 0 0.6 0 0.3-0.1 0.5-0.1 0.3-0.1 0.6-0.3 0.3-0.2 0.5-0.4l9.4-18.4c0-0.1 0.1-0.2 0.1-0.3q0.1-0.2 0.1-0.3 0-0.2-0.1-0.3 0-0.2 0-0.3 0-0.2-0.1-0.3-0.1-0.2-0.2-0.4-0.1-0.2-0.2-0.4-0.1-0.1-0.2-0.3-0.2-0.2-0.3-0.4-1.6-2.2-3-4.5c-1.2-1.7-2.4-3.4-3.6-5.1q-1.7-2.6-3.5-5.3-0.2-0.1-0.5-0.3-0.3-0.1-0.6-0.2-0.2 0-0.5 0-0.3-0.1-0.6 0c-0.9 0-1.8 0-2.7 0.1-0.9 0.1-1.9 0-2.3 0.9z"/><path class="d" d="m148 31.1q0.2 0.1 0.3 0.3 0.2 0.2 0.3 0.4 0.2 0.3 0.3 0.5 0.1 0.2 0.2 0.4 0.1 0.2 0.2 0.3 0.1 0.2 0.2 0.3 0.1 0.2 0.3 0.3 0.1 0.2 0.2 0.3 0.3 0.1 0.6 0.1 0.3 0 0.6-0.1 0.2-0.1 0.5-0.2 0.2-0.2 0.4-0.5 0-0.5 0-0.8-1.2-1.8-2.3-3.5l8.9-17.4c0.9 0 1.8 0 2.7 0 1.2-0.1 2.3-0.1 3.5-0.2 2.1-0.1 4.3-0.1 6.5-0.3 1.8-0.1 3.6 0 5.3-0.1 0.9 1.3 1.8 2.4 2.5 3.6 0.7 1.2 1.7 2.2 2.4 3.4 1.3 2.1 2.7 4 4 6.1 0.4 0.7 0.9 1.3 1.3 1.9l-8.9 17.4q-0.3 0.1-0.6 0.1-0.2 0-0.5 0-0.2-0.1-0.5-0.1-0.2 0-0.5 0-0.2 0.1-0.4 0.1c-1.6 0.2-3.2 0.1-4.7 0.2q-0.3-0.1-0.7-0.1-0.3 0-0.6 0.1-0.3 0-0.6 0.1-0.3 0.1-0.6 0.3-0.2 0.2-0.3 0.4-0.1 0.2-0.2 0.5 0 0.3 0 0.5 0 0.3 0.1 0.5 0 0.2 0 0.3 0.1 0.1 0.1 0.2 0 0.1-0.1 0.3 0 0.1 0 0.2 0.1 0.2 0.1 0.5 0 0.2 0 0.4 0 0.3 0 0.5 0 0.2 0 0.5c0 0.8 0.3 1.6-0.2 2.4q0-0.1-0.1-0.1-0.1 0-0.1 0-0.1 0-0.2 0 0 0-0.1 0c-2.1 0.1-4.1 0.2-6.1 0.2q-0.3 0-0.6 0-0.3 0-0.6 0.1-0.2 0-0.5 0.1-0.3 0.1-0.5 0.2l-2.3 4.5c-0.3 0.5-0.6 1-0.4 1.6q0.1 0.3 0.3 0.4 0.2 0.2 0.5 0.3 0.2 0.1 0.5 0.2 0.2 0 0.5-0.1 0.2-0.2 0.4-0.5 0.3-0.2 0.4-0.5 0.2-0.2 0.3-0.5 0.2-0.3 0.3-0.6c0.4-0.8 0.8-1.7 1.3-2.6 3.1-0.1 6.2-0.2 9.3-0.3 0.2-0.3 0.4-0.5 0.6-0.8 0-2.1-0.1-4.3-0.2-6.5q1.3-0.1 2.5-0.2 2.4-0.1 4.8-0.1c0.8 0 1.6 0 2.1-0.6l9.9-19.4q0-0.1-0.1-0.3 0-0.1-0.1-0.3-0.1-0.1-0.1-0.3-0.1-0.1-0.2-0.3-2-3-4-5.9-1.2-1.8-2.4-3.6c-0.4-0.7-1-1.3-1.4-2q-1.4-2.2-2.9-4.4-0.1-0.2-0.3-0.3-0.1-0.1-0.3-0.2-0.2-0.1-0.4-0.1-0.2-0.1-0.4-0.1-0.5 0-1 0-0.5 0-1 0-0.5 0-1 0.1-0.5 0-1 0c-1.5 0.2-3.1 0.1-4.6 0.3-1.2 0.1-2.4-0.1-3.7 0-1.9 0.3-3.9 0.2-5.9 0.3q-0.3 0-0.5 0-0.3 0.1-0.6 0.1-0.3 0.1-0.6 0.1-0.2 0.1-0.5 0.2l-9.9 19.3q0.1 0.3 0.2 0.7 0.1 0.3 0.2 0.6 0.1 0.3 0.3 0.6 0.2 0.3 0.4 0.6z"/><path class="e" d="m111.8 53c0.3 0.9 1.1 1.5 1.5 2.4 0.6 1.2 1.6 2.1 2.2 3.3 0.6 1 1.4 1.9 2 2.9 0.9 1.4 1.9 2.6 2.7 4q0.3 0.4 0.5 0.8 0.3 0.4 0.6 0.8 0.3 0.4 0.5 0.9 0.3 0.4 0.5 0.8 0.1 0.3 0.3 0.5 0.2 0.2 0.5 0.3 0.2 0.2 0.5 0.2 0.3 0 0.6-0.1 0.1 0 0.3 0 0.2 0 0.3 0 0.2-0.1 0.4-0.1 0.1 0 0.3 0 2 0 3.9-0.1c1.5-0.1 3-0.1 4.5-0.2 1-0.1 2.1 0 3.2-0.1q2.4-0.1 4.7-0.1 0.3 0 0.6-0.1 0.3 0 0.6 0 0.3-0.1 0.6-0.1 0.3-0.1 0.6-0.1l2.7-5.4c-0.1-0.6-0.2-1-0.3-1.3l-0.5-0.3c-0.6 0.1-1.1 0.2-1.5 0.3l-2.1 4.3c-1.9 0.1-3.7 0.2-5.5 0.2-2 0.1-4.1 0.1-6.1 0.2q-3.3 0.1-6.5 0.2-0.3-0.4-0.6-0.8-0.3-0.4-0.6-0.8-0.3-0.4-0.6-0.8-0.3-0.4-0.6-0.9c-1.2-2.1-2.7-4-4-6.1-0.7-1.1-1.7-2.2-2.3-3.4q-0.2-0.2-0.4-0.5-0.2-0.3-0.4-0.6-0.2-0.2-0.3-0.5-0.2-0.3-0.4-0.6l8.9-17.3c2-0.2 4-0.3 5.9-0.3 1.8-0.1 3.6-0.2 5.4-0.2 2.3 0 4.5-0.3 6.8-0.2q0.1 0.2 0.3 0.4 0.1 0.2 0.3 0.4 0.1 0.2 0.3 0.4 0.1 0.2 0.3 0.4 0.2 0.5 0.6 1 0.3 0.5 0.6 1 0.3 0.5 0.6 0.9 0.4 0.5 0.7 1 0.2 0.2 0.4 0.5 0.2 0.2 0.3 0.5 0.2 0.3 0.3 0.5 0.2 0.3 0.3 0.6 0.1 0.1 0.2 0.2 0 0.2 0.1 0.3 0.1 0.1 0.3 0.1 0.1 0.1 0.2 0.1 0.2 0.1 0.3 0.1 0.2 0 0.4 0 0.1-0.1 0.3-0.1 0.1 0 0.2-0.1c0.9-0.5 1.6-1.1 2.4-1.6q1.4-0.9 2.7-1.8 2.6 3.8 5.1 7.5c0.6 0.1 1.2 0.1 1.7 0.1q1.8 0 3.5 0 0.3 0 0.6-0.1 0.2 0 0.4-0.2 0.3-0.1 0.4-0.3 0.2-0.2 0.3-0.4c-0.1-0.5-0.2-0.9-0.3-1.4-1.7-0.6-3.5 0-5.2-0.2-1.8-2.7-3.6-5.4-5.4-8.1q-0.3-0.1-0.5-0.1-0.3 0-0.6 0.1-0.3 0.1-0.5 0.2-0.3 0.1-0.5 0.3c-1.1 0.9-2.4 1.7-3.6 2.5q-0.4 0.3-0.8 0.6 0-0.1-0.1-0.1 0-0.1 0-0.1 0-0.1 0-0.1-0.1-0.1-0.1-0.1c-0.9-1.3-1.9-2.6-2.8-3.9q-0.2-0.5-0.5-0.9-0.3-0.5-0.6-0.9-0.3-0.5-0.6-0.9-0.3-0.4-0.7-0.8-0.1 0-0.2-0.1-0.2 0-0.3 0-0.2-0.1-0.3-0.1-0.2 0-0.3 0c-2.3 0.2-4.7 0.2-7 0.3q-1.6 0-3.2 0.1c-1.3 0.1-2.6 0.1-3.9 0.2-1.4 0.2-2.8 0-4.2 0.1q-0.2 0-0.5 0-0.2 0-0.4 0.1-0.3 0-0.5 0.1-0.2 0-0.4 0.1l-10.1 19.6c0.3 0.3 0.1 0.8 0.6 1z"/><path class="f" d="m173.5 51.8c0.1 0.5 0.2 0.9 0.3 1.4 1.7 0.6 3.4-0.1 5.1 0.2 0.8 1.1 1.6 2.1 2.3 3.2 1.2 2 2.6 3.9 3.9 5.8 0.8 1.2 1.6 2.4 2.4 3.6q0.8 1.2 1.5 2.3l-8.8 17.4q-1.5 0.1-3 0.1c-1.2 0.1-2.5 0-3.7 0.1-2.1 0.3-4.2 0.1-6.3 0.3-1.7 0.2-3.4 0.1-5.1 0.1-1-1.4-2.1-2.7-3-4.2-0.9-1.5-1.9-2.9-2.9-4.4 0-0.1-0.2-0.2-0.2-0.3q-0.2-0.3-0.5-0.7-0.2-0.4-0.4-0.7-0.3-0.4-0.5-0.8-0.2-0.3-0.5-0.7-1.1-1.6-2.1-3.2c1.4-2.8 2.7-5.4 4.1-8.1q0.1-0.2 0.2-0.4 0.1-0.2 0.1-0.5 0.1-0.2 0.1-0.4 0-0.2 0-0.5c-0.4-0.2-0.8-0.5-1.2-0.8-0.6-0.3-1.3-0.6-1.9-1l-3.5-1.7 3.9-7.8q0.2-0.2 0.2-0.5 0.1-0.2 0.1-0.5 0-0.2-0.1-0.5-0.1-0.2-0.2-0.5c-0.8-1.3-1.8-2.5-2.6-3.9q-0.9 0.1-1.6 0.2-0.2 0.3-0.3 0.6-0.1 0.3 0 0.6 0 0.3 0.1 0.6 0.1 0.3 0.3 0.5c0.6 0.8 1.1 1.7 1.7 2.5l-4.1 8q-0.2 0.2-0.3 0.4-0.1 0.3-0.1 0.5-0.1 0.2-0.1 0.5 0 0.2 0 0.4 0.2 0.1 0.3 0.2 0.1 0.2 0.3 0.3 0.1 0.1 0.3 0.1 0.1 0.1 0.3 0.2c1.8 1 3.5 1.9 5.4 2.8l-4.4 8.5c0.2 1.4 1.1 2.2 1.8 3.2 1.1 1.7 2.2 3.3 3.3 5 1 1.5 2 3 3 4.5 1.2 1.8 2.5 3.5 3.7 5.2q0.3-0.1 0.5-0.1c1.9 0 3.9 0.1 5.8 0 1.5-0.1 3-0.2 4.5-0.2 1.3-0.1 2.5 0.1 3.7-0.1 1.6-0.2 3.1-0.2 4.7-0.2q0.3 0 0.6 0 0.3-0.1 0.6-0.2 0.3-0.1 0.5-0.2 0.3-0.2 0.5-0.4l9.4-18.4c0.1-0.1 0.2-0.2 0.2-0.3q0-0.2 0-0.3 0-0.2 0-0.3 0-0.2 0-0.3-0.1-0.2-0.1-0.3-0.1-0.2-0.2-0.4-0.1-0.2-0.3-0.4-0.1-0.2-0.2-0.3-0.1-0.2-0.3-0.4-1.5-2.2-3-4.5c-1.1-1.7-2.4-3.4-3.5-5.1q-1.8-2.6-3.6-5.3-0.2-0.2-0.5-0.3-0.2-0.1-0.5-0.2-0.3 0-0.6-0.1-0.3 0-0.6 0.1c-0.9 0-1.8 0-2.7 0.1-0.9 0-1.8 0-2.2 0.9z"/><path class="g" d="m144.7 113.1c0.8 0 1.6 0 2.2-0.6l9.8-19.4q0-0.1-0.1-0.3 0-0.1-0.1-0.3-0.1-0.1-0.1-0.3-0.1-0.1-0.2-0.3-2-2.9-4-5.9-1.2-1.8-2.3-3.6c-0.5-0.6-1-1.3-1.5-2q-1.3-2.2-2.9-4.4-0.1-0.1-0.3-0.3-0.1-0.1-0.3-0.2-0.2-0.1-0.4-0.1-0.2 0-0.4 0-0.5 0-1 0-0.5-0.1-1 0-0.5 0-1 0-0.5 0-1 0c-1.5 0.2-3 0.2-4.6 0.3-1.2 0.1-2.4-0.1-3.6 0.1-2 0.2-4 0.1-6 0.2q-0.2 0-0.5 0.1-0.3 0-0.6 0-0.3 0.1-0.5 0.2-0.3 0-0.6 0.1l-9.8 19.3q0 0.4 0.1 0.7 0.1 0.3 0.2 0.6 0.1 0.4 0.3 0.6 0.2 0.3 0.4 0.6 0.2 0.2 0.3 0.4 0.2 0.2 0.3 0.4 0.2 0.2 0.3 0.4 0.1 0.2 0.2 0.4 0.1 0.2 0.2 0.4 0.1 0.1 0.2 0.3 0.1 0.1 0.3 0.2 0.1 0.2 0.2 0.3 0.3 0.1 0.6 0.1 0.3 0 0.6-0.1 0.2 0 0.5-0.2 0.2-0.2 0.4-0.4 0-0.5 0-0.9-1.2-1.8-2.3-3.5l8.9-17.3c0.9-0.1 1.8-0.1 2.7-0.1 1.2-0.1 2.3 0 3.5-0.1 2.1-0.2 4.3-0.2 6.5-0.3 1.8-0.1 3.6-0.1 5.3-0.1 0.9 1.2 1.8 2.3 2.5 3.6 0.7 1.1 1.7 2.2 2.4 3.4 1.3 2 2.7 4 4 6 0.4 0.7 0.9 1.3 1.3 2l-8.9 17.4q-0.3 0-0.6 0-0.2 0-0.5 0-0.2 0-0.5 0-0.2 0-0.4 0-0.3 0-0.5 0c-1.6 0.2-3.1 0.2-4.7 0.2q-0.3 0-0.7 0-0.3 0-0.6 0-0.3 0.1-0.6 0.2-0.3 0.1-0.6 0.2-0.2 0.2-0.3 0.4-0.1 0.3-0.1 0.5-0.1 0.3-0.1 0.6 0 0.2 0.1 0.5 0 0.1 0 0.2 0.1 0.1 0.1 0.2 0 0.2 0 0.3-0.1 0.1-0.1 0.2 0.1 0.3 0.1 0.5 0 0.2 0 0.5 0 0.2 0 0.4 0.1 0.3 0.1 0.5c-0.1 0.8 0.2 1.6-0.3 2.4q0 0-0.1 0-0.1 0-0.1 0-0.1-0.1-0.2-0.1 0 0-0.1 0c-2 0.1-4.1 0.2-6.1 0.2q-0.3 0-0.6 0-0.3 0.1-0.6 0.1-0.2 0.1-0.5 0.1-0.3 0.1-0.5 0.2l-2.3 4.5c-0.3 0.5-0.6 1-0.4 1.6q0.1 0.3 0.3 0.5 0.2 0.2 0.5 0.3 0.2 0.1 0.5 0.1 0.2 0 0.5-0.1 0.2-0.2 0.4-0.4 0.3-0.3 0.4-0.5 0.2-0.3 0.4-0.6 0.1-0.3 0.2-0.6c0.4-0.8 0.8-1.6 1.3-2.5 3.1-0.1 6.2-0.3 9.3-0.4 0.2-0.3 0.4-0.5 0.6-0.7 0-2.2-0.1-4.3-0.2-6.6q1.3-0.1 2.5-0.2 2.4 0 4.8-0.1z"/><path class="h" d="m113 129c-0.6 0.1-1 0.2-1.4 0.3l-2.2 4.3c-1.8 0.1-3.6 0.2-5.4 0.3-2.1 0-4.1 0-6.2 0.1q-3.2 0.1-6.5 0.3-0.3-0.4-0.6-0.8-0.3-0.5-0.6-0.9-0.3-0.4-0.6-0.8-0.2-0.4-0.5-0.9c-1.2-2.1-2.8-3.9-4-6-0.7-1.2-1.7-2.2-2.4-3.4q-0.2-0.3-0.4-0.6-0.2-0.3-0.3-0.5-0.2-0.3-0.4-0.6-0.2-0.3-0.3-0.6l8.8-17.3c2-0.1 4-0.2 6-0.3 1.8-0.1 3.6-0.2 5.4-0.2 2.2 0 4.5-0.3 6.7-0.2q0.2 0.2 0.3 0.4 0.2 0.2 0.3 0.4 0.2 0.2 0.3 0.4 0.2 0.2 0.3 0.4 0.3 0.5 0.6 1 0.3 0.5 0.6 1 0.4 0.5 0.7 1 0.3 0.5 0.7 0.9 0.2 0.3 0.3 0.5 0.2 0.3 0.4 0.5 0.1 0.3 0.3 0.6 0.1 0.2 0.3 0.5 0 0.1 0.1 0.3 0.1 0.1 0.2 0.2 0.1 0.1 0.2 0.1 0.1 0.1 0.3 0.2 0.1 0 0.3 0 0.1 0 0.3 0 0.2 0 0.3-0.1 0.2 0 0.3-0.1c0.8-0.5 1.5-1 2.3-1.6q1.4-0.9 2.7-1.8 2.7 3.9 5.2 7.6c0.6 0 1.1 0.1 1.6 0.1q1.8-0.1 3.6-0.1 0.3 0 0.5-0.1 0.3 0 0.5-0.1 0.2-0.2 0.4-0.4 0.2-0.2 0.3-0.4c-0.1-0.5-0.3-0.9-0.4-1.4-1.7-0.6-3.4 0-5.1-0.1-1.8-2.8-3.6-5.4-5.5-8.2q-0.2 0-0.5 0-0.3 0-0.5 0-0.3 0.1-0.6 0.2-0.2 0.1-0.4 0.3c-1.2 0.9-2.4 1.7-3.6 2.6q-0.4 0.2-0.9 0.5c0-0.2-0.1-0.3-0.1-0.4-1-1.3-2-2.5-2.8-3.9q-0.3-0.5-0.6-0.9-0.2-0.5-0.5-0.9-0.3-0.4-0.7-0.9-0.3-0.4-0.6-0.8-0.2 0-0.3-0.1-0.1 0-0.3 0-0.1 0-0.3-0.1-0.1 0-0.3 0c-2.3 0.2-4.6 0.2-7 0.3q-1.6 0-3.1 0.1c-1.4 0.1-2.7 0.1-4 0.2-1.4 0.2-2.8 0-4.2 0.1q-0.2 0-0.4 0-0.2 0.1-0.5 0.1-0.2 0-0.4 0.1-0.3 0-0.5 0.1l-10 19.7c0.3 0.2 0.1 0.7 0.5 0.9 0.3 1 1.2 1.5 1.6 2.4 0.6 1.2 1.5 2.1 2.1 3.3 0.6 1 1.5 1.9 2.1 2.9 0.8 1.4 1.8 2.6 2.6 4q0.3 0.4 0.6 0.8 0.2 0.4 0.5 0.8 0.3 0.5 0.5 0.9 0.3 0.4 0.5 0.8 0.1 0.3 0.3 0.5 0.2 0.2 0.5 0.3 0.2 0.2 0.5 0.2 0.3 0 0.6-0.1 0.2 0 0.3 0 0.2 0 0.4 0 0.1 0 0.3 0 0.2 0 0.3 0 2-0.1 4-0.2c1.4-0.1 2.9 0 4.4-0.2 1.1-0.1 2.1 0 3.2-0.1q2.4-0.1 4.8-0.1 0.3 0 0.6-0.1 0.3 0 0.6 0 0.2-0.1 0.5-0.1 0.3-0.1 0.6-0.1l2.8-5.4c-0.2-0.6-0.3-1-0.4-1.3 0 0-0.5-0.3-0.5-0.3z"/><path class="i" d="m158.6 134.7q-0.1-0.2-0.2-0.3-0.1-0.2-0.2-0.4-0.2-0.2-0.3-0.4-0.1-0.1-0.3-0.3-1.5-2.2-3-4.5c-1.1-1.7-2.3-3.4-3.5-5.1q-1.8-2.6-3.6-5.3-0.2-0.2-0.5-0.3-0.2-0.1-0.5-0.2-0.3-0.1-0.6-0.1-0.3 0-0.6 0c-0.9 0.1-1.8 0.1-2.7 0.2-0.9 0-1.8 0-2.2 0.9 0.1 0.5 0.2 1 0.3 1.4 1.7 0.7 3.4-0.1 5.1 0.2 0.8 1.1 1.6 2.1 2.3 3.2 1.2 2.1 2.6 3.9 3.9 5.9 0.8 1.2 1.6 2.4 2.4 3.6q0.8 1.2 1.5 2.3l-8.8 17.3q-1.5 0.1-3 0.2c-1.2 0-2.5-0.1-3.7 0.1-2.1 0.2-4.2 0.1-6.3 0.3-1.7 0.2-3.4 0.1-5.1 0.1-1-1.4-2.1-2.8-3-4.2-0.9-1.5-1.9-3-2.9-4.5 0-0.1-0.2-0.1-0.2-0.2q-0.2-0.4-0.5-0.8-0.2-0.3-0.4-0.7-0.2-0.4-0.5-0.7-0.2-0.4-0.5-0.7-1.1-1.7-2.1-3.2c1.4-2.8 2.7-5.5 4.1-8.2q0.1-0.2 0.2-0.4 0.1-0.2 0.1-0.4 0.1-0.2 0.1-0.5 0-0.2 0-0.4c-0.4-0.3-0.8-0.6-1.2-0.9-0.6-0.3-1.3-0.6-1.9-0.9l-3.5-1.8 3.9-7.7q0.2-0.3 0.3-0.5 0-0.3 0-0.5 0-0.3-0.1-0.6-0.1-0.2-0.2-0.4c-0.8-1.4-1.8-2.6-2.6-4q-0.9 0.2-1.6 0.3-0.2 0.2-0.3 0.5 0 0.3 0 0.6 0 0.3 0.1 0.6 0.1 0.3 0.3 0.6c0.6 0.8 1.1 1.6 1.7 2.4l-4.1 8.1q-0.2 0.2-0.3 0.4-0.1 0.2-0.1 0.4-0.1 0.3-0.1 0.5 0 0.2 0 0.5 0.2 0.1 0.3 0.2 0.1 0.1 0.3 0.2 0.1 0.1 0.3 0.2 0.1 0.1 0.3 0.2c1.8 0.9 3.6 1.8 5.4 2.7l-4.4 8.6c0.2 1.3 1.1 2.2 1.8 3.1 1.1 1.7 2.2 3.4 3.3 5 1 1.5 2 3 3 4.5 1.2 1.8 2.5 3.5 3.7 5.2q0.3 0 0.5 0c2-0.1 3.9 0 5.8-0.1 1.5-0.1 3-0.1 4.5-0.2 1.3-0.1 2.5 0.1 3.7-0.1 1.6-0.2 3.1-0.1 4.7-0.2q0.3 0 0.6 0 0.3 0 0.6-0.1 0.3-0.1 0.5-0.3 0.3-0.1 0.5-0.3l9.4-18.4c0.1-0.2 0.2-0.3 0.2-0.4q0-0.1 0-0.3 0-0.1 0-0.3 0-0.2 0-0.3-0.1-0.2-0.1-0.3z"/><path class="j" d="m188.4 93.7q0.2 0.2 0.4 0.4 0.1 0.2 0.2 0.4 0.2 0.2 0.3 0.4 0.1 0.3 0.2 0.5 0.1 0.1 0.2 0.3 0.1 0.2 0.3 0.3 0.1 0.1 0.2 0.3 0.1 0.1 0.3 0.3 0.2 0.1 0.5 0.1 0.3 0 0.6-0.1 0.3-0.1 0.5-0.3 0.2-0.2 0.4-0.4 0-0.5 0-0.8-1.2-1.8-2.2-3.5l8.8-17.4c0.9 0 1.9 0 2.8-0.1 1.1 0 2.2 0 3.4-0.1 2.2-0.2 4.3-0.1 6.5-0.3 1.8-0.1 3.6-0.1 5.4-0.1 0.8 1.2 1.7 2.4 2.4 3.6 0.8 1.2 1.7 2.2 2.4 3.4 1.3 2.1 2.8 4 4 6.1 0.4 0.6 0.9 1.3 1.3 1.9l-8.8 17.4q-0.3 0-0.7 0.1-0.2-0.1-0.4-0.1-0.3 0-0.5 0-0.3 0-0.5 0-0.3 0-0.5 0c-1.6 0.2-3.1 0.2-4.7 0.2q-0.3 0-0.6 0-0.4 0-0.7 0.1-0.3 0-0.6 0.1-0.3 0.1-0.6 0.2-0.2 0.2-0.3 0.5-0.1 0.2-0.1 0.5-0.1 0.2 0 0.5 0 0.3 0.1 0.5 0 0.1 0 0.2 0 0.2 0 0.3 0 0.1 0 0.2 0 0.2 0 0.3 0 0.2 0 0.4 0 0.3 0.1 0.5 0 0.2 0 0.5 0 0.2 0 0.4c-0.1 0.8 0.2 1.7-0.2 2.4q-0.1 0-0.2 0 0 0-0.1 0-0.1 0-0.1 0-0.1 0-0.2 0c-2 0.1-4.1 0.2-6.1 0.2q-0.3 0-0.6 0-0.3 0-0.5 0-0.3 0.1-0.6 0.2-0.2 0.1-0.5 0.2l-2.3 4.4c-0.3 0.6-0.6 1.1-0.4 1.7q0.2 0.2 0.4 0.4 0.1 0.2 0.4 0.3 0.2 0.1 0.5 0.1 0.3 0.1 0.5 0 0.3-0.2 0.5-0.5 0.2-0.2 0.4-0.5 0.1-0.3 0.3-0.6 0.1-0.3 0.2-0.6c0.5-0.8 0.9-1.6 1.3-2.5 3.1-0.1 6.2-0.2 9.3-0.3 0.3-0.3 0.5-0.6 0.7-0.8-0.1-2.1-0.2-4.3-0.3-6.6q1.3-0.1 2.5-0.1 2.4-0.1 4.8-0.2c0.8 0 1.6 0.1 2.2-0.5l9.8-19.4q0-0.1-0.1-0.3 0-0.2-0.1-0.3-0.1-0.2-0.1-0.3-0.1-0.2-0.2-0.3-2-3-4-5.9-1.2-1.8-2.3-3.6c-0.5-0.7-1-1.3-1.5-2q-1.3-2.3-2.9-4.4-0.1-0.2-0.3-0.3-0.1-0.1-0.3-0.2-0.2-0.1-0.4-0.2-0.2 0-0.4 0-0.5 0-1 0-0.5 0-1 0-0.5 0-1 0-0.5 0.1-1 0.1c-1.5 0.2-3 0.1-4.6 0.3-1.2 0.1-2.4-0.1-3.6 0-2 0.3-4 0.2-6 0.3q-0.2 0-0.5 0-0.3 0.1-0.6 0.1-0.3 0-0.5 0.1-0.3 0.1-0.6 0.2l-9.8 19.3q0 0.3 0.1 0.7 0.1 0.3 0.2 0.6 0.1 0.3 0.3 0.6 0.2 0.3 0.4 0.5z"/><path class="k" d="m186.5 124.5c-0.6 0.2-1 0.3-1.4 0.4l-2.2 4.2c-1.8 0.1-3.6 0.2-5.4 0.3-2.1 0.1-4.1 0.1-6.2 0.1q-3.2 0.2-6.5 0.3-0.3-0.4-0.6-0.8-0.3-0.4-0.6-0.8-0.3-0.4-0.6-0.9-0.2-0.4-0.5-0.8c-1.2-2.1-2.8-4-4-6.1-0.7-1.2-1.7-2.2-2.4-3.4q-0.2-0.3-0.4-0.5-0.2-0.3-0.3-0.6-0.2-0.3-0.4-0.6-0.1-0.3-0.3-0.5l8.8-17.4c2-0.1 4-0.2 6-0.3 1.8 0 3.6-0.1 5.4-0.1 2.2 0 4.5-0.4 6.7-0.2q0.2 0.2 0.3 0.4 0.2 0.2 0.3 0.4 0.2 0.1 0.3 0.4 0.2 0.2 0.3 0.4 0.3 0.5 0.6 1 0.3 0.5 0.6 0.9 0.4 0.5 0.7 1 0.3 0.5 0.7 1 0.2 0.2 0.3 0.5 0.2 0.2 0.4 0.5 0.1 0.2 0.3 0.5 0.2 0.3 0.3 0.5 0 0.2 0.1 0.3 0.1 0.1 0.2 0.2 0.1 0.1 0.2 0.2 0.1 0.1 0.3 0.1 0.1 0 0.3 0 0.1 0 0.3 0 0.2 0 0.3 0 0.2-0.1 0.3-0.1c0.8-0.5 1.5-1.1 2.3-1.6q1.4-1 2.7-1.9 2.7 3.9 5.2 7.6c0.6 0.1 1.1 0.1 1.6 0.1q1.8 0 3.6-0.1 0.3 0 0.5 0 0.3-0.1 0.5-0.2 0.2-0.1 0.4-0.3 0.2-0.2 0.3-0.4c-0.1-0.5-0.3-1-0.4-1.4-1.7-0.6-3.4 0-5.1-0.2-1.8-2.7-3.6-5.4-5.4-8.1q-0.3-0.1-0.6-0.1-0.3 0-0.5 0.1-0.3 0-0.6 0.1-0.2 0.2-0.4 0.3c-1.2 0.9-2.4 1.8-3.6 2.6q-0.4 0.3-0.9 0.5 0 0 0-0.1 0 0 0-0.1-0.1 0-0.1-0.1 0 0 0-0.1c-1-1.3-2-2.5-2.8-3.8q-0.3-0.5-0.6-1-0.2-0.4-0.5-0.8-0.3-0.5-0.7-0.9-0.3-0.4-0.6-0.8-0.2-0.1-0.3-0.1-0.1 0-0.3-0.1-0.1 0-0.3 0-0.1 0-0.2 0c-2.4 0.2-4.7 0.2-7.1 0.2q-1.6 0.1-3.1 0.2c-1.4 0.1-2.7 0-4 0.2-1.4 0.1-2.8 0-4.1 0q-0.3 0-0.5 0.1-0.2 0-0.5 0.1-0.2 0-0.4 0-0.3 0.1-0.5 0.1l-10 19.7c0.3 0.2 0.1 0.8 0.5 1 0.3 0.9 1.2 1.5 1.6 2.3 0.6 1.2 1.5 2.2 2.1 3.3 0.6 1.1 1.5 1.9 2.1 2.9 0.8 1.4 1.8 2.7 2.6 4.1q0.3 0.4 0.6 0.8 0.2 0.4 0.5 0.8 0.3 0.4 0.5 0.8 0.3 0.4 0.5 0.9 0.1 0.2 0.3 0.5 0.2 0.2 0.5 0.3 0.2 0.1 0.5 0.1 0.3 0.1 0.6 0 0.2-0.1 0.3-0.1 0.2 0 0.4 0 0.1 0 0.3 0 0.2 0 0.3 0 2 0 4-0.1c1.4-0.1 2.9-0.1 4.4-0.2 1.1-0.1 2.1-0.1 3.2-0.1q2.4-0.2 4.8-0.2 0.3 0 0.6 0 0.3 0 0.6-0.1 0.3 0 0.5-0.1 0.3 0 0.6-0.1l2.8-5.3c-0.2-0.6-0.3-1-0.4-1.4 0 0-0.5-0.3-0.5-0.3z"/><path class="l" d="m232.2 131.5q0-0.1 0-0.3 0-0.1 0-0.3 0-0.2 0-0.3-0.1-0.2-0.1-0.3-0.1-0.2-0.2-0.4-0.1-0.2-0.2-0.3-0.2-0.2-0.3-0.4-0.1-0.2-0.2-0.3-1.6-2.3-3.1-4.5c-1.1-1.8-2.3-3.5-3.5-5.2q-1.8-2.6-3.5-5.2-0.3-0.2-0.5-0.3-0.3-0.2-0.6-0.2-0.3-0.1-0.6-0.1-0.3 0-0.5 0c-0.9 0.1-1.8 0.1-2.8 0.1-0.9 0.1-1.8 0-2.2 0.9 0.1 0.6 0.2 1 0.3 1.5 1.7 0.6 3.4-0.1 5.1 0.2 0.8 1.1 1.7 2.1 2.3 3.2 1.2 2 2.6 3.9 3.9 5.8 0.8 1.2 1.6 2.4 2.4 3.6q0.8 1.2 1.5 2.3l-8.8 17.4q-1.5 0.1-3 0.1c-1.2 0.1-2.4 0-3.7 0.1-2 0.3-4.2 0.1-6.2 0.3-1.7 0.2-3.5 0.1-5.2 0.1-1-1.4-2.1-2.7-3-4.2-0.9-1.5-1.9-2.9-2.9-4.4 0-0.1-0.2-0.2-0.2-0.3q-0.2-0.3-0.4-0.7-0.3-0.4-0.5-0.7-0.2-0.4-0.5-0.8-0.2-0.3-0.5-0.7-1.1-1.6-2.1-3.2c1.4-2.8 2.7-5.4 4.1-8.1q0.1-0.2 0.2-0.4 0.1-0.2 0.2-0.5 0-0.2 0-0.4 0-0.2 0-0.5c-0.4-0.2-0.8-0.6-1.2-0.8-0.6-0.3-1.2-0.6-1.9-1l-3.5-1.7 4-7.8q0.1-0.2 0.2-0.5 0-0.2 0-0.5 0-0.2-0.1-0.5-0.1-0.2-0.2-0.5c-0.8-1.3-1.8-2.5-2.6-3.9q-0.9 0.1-1.6 0.2-0.2 0.3-0.2 0.6-0.1 0.3-0.1 0.6 0 0.3 0.1 0.6 0.1 0.3 0.3 0.5c0.6 0.8 1.1 1.7 1.7 2.4l-4.1 8.1q-0.2 0.2-0.3 0.4-0.1 0.3-0.1 0.5-0.1 0.2-0.1 0.5 0 0.2 0 0.4 0.2 0.1 0.3 0.2 0.1 0.1 0.3 0.2 0.1 0.1 0.3 0.2 0.1 0.1 0.3 0.2c1.8 1 3.6 1.9 5.4 2.8l-4.3 8.5c0.1 1.4 1 2.2 1.7 3.2 1.1 1.7 2.2 3.3 3.3 5 1 1.5 2.1 3 3 4.5 1.2 1.8 2.5 3.5 3.7 5.2q0.3-0.1 0.5-0.1c2 0 3.9 0.1 5.8 0 1.5-0.1 3-0.2 4.6-0.2 1.2-0.1 2.4 0 3.6-0.1 1.6-0.2 3.2-0.2 4.7-0.2q0.3 0 0.6 0 0.3-0.1 0.6-0.2 0.3-0.1 0.6-0.2 0.2-0.2 0.4-0.4l9.4-18.4c0.1-0.1 0.2-0.2 0.2-0.3z"/><path class="m" d="m71.3 117.5c0.7-0.1 1.5 0 2.1-0.6l9.9-19.4q-0.1-0.1-0.1-0.3-0.1-0.1-0.2-0.3 0-0.1-0.1-0.3-0.1-0.1-0.1-0.3-2-2.9-4-5.9-1.2-1.8-2.4-3.6c-0.5-0.7-1-1.3-1.4-2q-1.4-2.2-3-4.4-0.1-0.1-0.2-0.3-0.2-0.1-0.4-0.2-0.1-0.1-0.3-0.1-0.2-0.1-0.4 0-0.5-0.1-1-0.1-0.5 0-1.1 0-0.5 0-1 0.1-0.5 0-1 0c-1.5 0.2-3 0.1-4.5 0.3-1.3 0.1-2.5-0.1-3.7 0-2 0.3-4 0.2-5.9 0.3q-0.3 0-0.6 0.1-0.3 0-0.6 0-0.2 0.1-0.5 0.1-0.3 0.1-0.6 0.2l-9.8 19.3q0 0.3 0.1 0.7 0.1 0.3 0.2 0.6 0.2 0.3 0.3 0.6 0.2 0.3 0.4 0.6 0.2 0.1 0.4 0.3 0.1 0.2 0.2 0.4 0.2 0.3 0.3 0.5 0.1 0.2 0.2 0.4 0.1 0.2 0.2 0.3 0.1 0.2 0.2 0.3 0.2 0.2 0.3 0.3 0.1 0.2 0.2 0.3 0.3 0.1 0.6 0.1 0.3 0 0.6-0.1 0.3-0.1 0.5-0.2 0.2-0.2 0.4-0.5 0-0.5 0-0.8-1.2-1.8-2.2-3.5l8.8-17.4c0.9 0 1.8 0 2.7 0 1.2-0.1 2.3 0 3.5-0.1 2.2-0.2 4.3-0.2 6.5-0.3 1.8-0.2 3.6-0.1 5.4-0.2 0.8 1.3 1.7 2.4 2.4 3.6 0.7 1.2 1.7 2.2 2.4 3.4 1.3 2.1 2.8 4 4 6.1 0.4 0.7 0.9 1.3 1.3 1.9l-8.8 17.4q-0.3 0.1-0.7 0.1-0.2 0-0.5 0-0.2 0-0.4 0-0.3 0-0.5 0-0.3 0-0.5 0c-1.6 0.2-3.1 0.1-4.7 0.2q-0.3-0.1-0.6-0.1-0.4 0-0.7 0.1-0.3 0-0.6 0.1-0.3 0.1-0.6 0.3-0.2 0.2-0.3 0.4-0.1 0.3-0.1 0.5-0.1 0.3-0.1 0.5 0.1 0.3 0.1 0.5 0.1 0.2 0.1 0.3 0 0.1 0 0.2 0 0.2 0 0.3 0 0.1 0 0.2 0 0.2 0 0.5 0 0.2 0 0.4 0.1 0.3 0.1 0.5 0 0.2 0 0.5c-0.1 0.8 0.2 1.6-0.2 2.4q-0.1 0-0.2-0.1 0 0-0.1 0-0.1 0-0.1 0-0.1 0-0.2 0c-2 0.1-4.1 0.2-6.1 0.2q-0.3 0-0.6 0-0.3 0-0.5 0.1-0.3 0-0.6 0.1-0.3 0.1-0.5 0.2l-2.3 4.5c-0.3 0.5-0.6 1-0.4 1.6q0.2 0.3 0.3 0.5 0.2 0.1 0.5 0.2 0.2 0.2 0.5 0.2 0.3 0 0.5-0.1 0.3-0.2 0.5-0.4 0.2-0.3 0.4-0.6 0.1-0.2 0.3-0.5 0.1-0.3 0.2-0.6c0.5-0.8 0.8-1.7 1.3-2.5 3.1-0.2 6.2-0.3 9.3-0.4 0.2-0.3 0.5-0.5 0.7-0.8-0.1-2.1-0.2-4.3-0.3-6.5q1.3-0.1 2.5-0.2 2.4-0.1 4.8-0.1z"/><path class="n" d="m39.5 133.4c-0.6 0.1-1 0.2-1.4 0.3l-2.2 4.3c-1.8 0.1-3.6 0.2-5.4 0.2-2 0.1-4.1 0.1-6.1 0.2q-3.3 0.1-6.5 0.2-0.3-0.4-0.7-0.8-0.3-0.4-0.6-0.8-0.3-0.4-0.5-0.8-0.3-0.4-0.6-0.9c-1.2-2.1-2.7-4-4-6.1-0.7-1.1-1.7-2.2-2.4-3.4q-0.2-0.2-0.3-0.5-0.2-0.3-0.4-0.6-0.2-0.2-0.4-0.5-0.1-0.3-0.3-0.6l8.8-17.3c2.1-0.2 4-0.3 6-0.3 1.8-0.1 3.6-0.2 5.4-0.2 2.3 0 4.5-0.3 6.7-0.2q0.2 0.2 0.4 0.4 0.1 0.2 0.3 0.4 0.1 0.2 0.2 0.4 0.2 0.2 0.3 0.4 0.3 0.5 0.6 1 0.3 0.5 0.7 1 0.3 0.5 0.6 0.9 0.3 0.5 0.7 1 0.2 0.2 0.4 0.5 0.1 0.2 0.3 0.5 0.2 0.3 0.3 0.5 0.2 0.3 0.3 0.6 0.1 0.1 0.1 0.2 0.1 0.2 0.2 0.3 0.1 0.1 0.2 0.1 0.2 0.1 0.3 0.1 0.2 0.1 0.3 0.1 0.2 0 0.3 0 0.2-0.1 0.3-0.1 0.2 0 0.3-0.1c0.8-0.5 1.6-1.1 2.3-1.6q1.4-1 2.8-1.8 2.6 3.8 5.1 7.5c0.6 0.1 1.1 0.1 1.7 0.1q1.7 0 3.5 0 0.3 0 0.5-0.1 0.3 0 0.5-0.2 0.2-0.1 0.4-0.3 0.2-0.2 0.3-0.4c-0.1-0.5-0.2-0.9-0.4-1.4-1.7-0.6-3.4 0-5.1-0.2-1.8-2.7-3.6-5.4-5.4-8.1q-0.3-0.1-0.6-0.1-0.2 0-0.5 0.1-0.3 0.1-0.5 0.2-0.3 0.1-0.5 0.3c-1.2 0.9-2.4 1.7-3.6 2.5q-0.4 0.3-0.8 0.6-0.1-0.1-0.1-0.1 0-0.1 0-0.1 0-0.1-0.1-0.1 0-0.1 0-0.1c-0.9-1.3-1.9-2.6-2.8-3.9q-0.3-0.5-0.5-0.9-0.3-0.5-0.6-0.9-0.3-0.5-0.6-0.9-0.4-0.4-0.7-0.8-0.1 0-0.3-0.1-0.1 0-0.3 0-0.1-0.1-0.2-0.1-0.2 0-0.3 0c-2.4 0.2-4.7 0.2-7 0.3q-1.6 0-3.2 0.1c-1.3 0.1-2.7 0.1-4 0.2-1.3 0.2-2.7 0-4.1 0q-0.3 0.1-0.5 0.1-0.2 0-0.5 0.1-0.2 0-0.4 0.1-0.2 0-0.5 0.1l-10 19.6c0.3 0.3 0.1 0.8 0.6 1 0.2 0.9 1.1 1.5 1.5 2.3 0.6 1.2 1.5 2.2 2.1 3.4 0.6 1 1.5 1.9 2.1 2.9 0.8 1.4 1.8 2.6 2.6 4q0.3 0.4 0.6 0.8 0.3 0.4 0.5 0.8 0.3 0.4 0.6 0.8 0.2 0.5 0.5 0.9 0.1 0.3 0.3 0.5 0.1 0.2 0.4 0.3 0.3 0.1 0.5 0.2 0.3 0 0.6-0.1 0.2 0 0.3 0 0.2-0.1 0.4-0.1 0.2 0 0.3 0 0.2 0 0.4 0 1.9 0 3.9-0.1c1.5-0.1 2.9-0.1 4.4-0.2 1.1-0.1 2.1 0 3.2-0.1q2.4-0.1 4.8-0.1 0.3-0.1 0.6-0.1 0.3 0 0.6-0.1 0.3 0 0.6 0 0.3-0.1 0.6-0.1l2.7-5.4c-0.2-0.6-0.3-1-0.3-1.4 0 0-0.6-0.2-0.6-0.2z"/><path class="o" d="m85.1 139.1q-0.1-0.2-0.2-0.4-0.1-0.1-0.2-0.3-0.1-0.2-0.3-0.4-0.1-0.1-0.2-0.3-1.6-2.2-3.1-4.5c-1.1-1.8-2.3-3.4-3.5-5.2q-1.7-2.5-3.5-5.2-0.3-0.2-0.5-0.3-0.3-0.1-0.6-0.2-0.3-0.1-0.6-0.1-0.2 0-0.5 0c-0.9 0.1-1.8 0.1-2.7 0.1-0.9 0.1-1.9 0-2.3 1 0.1 0.5 0.2 0.9 0.4 1.4 1.6 0.6 3.3-0.1 5.1 0.2 0.7 1.1 1.6 2.1 2.2 3.2 1.2 2 2.7 3.9 3.9 5.9 0.8 1.2 1.6 2.3 2.4 3.5q0.8 1.2 1.6 2.4l-8.9 17.3q-1.5 0.1-3 0.2c-1.2 0-2.4-0.1-3.7 0.1-2 0.2-4.1 0-6.2 0.3-1.7 0.1-3.5 0-5.2 0.1-1-1.4-2.1-2.8-2.9-4.3-1-1.5-2-2.9-3-4.4 0-0.1-0.1-0.1-0.2-0.2q-0.2-0.4-0.4-0.8-0.3-0.4-0.5-0.7-0.2-0.4-0.5-0.7-0.2-0.4-0.5-0.8-1.1-1.6-2.1-3.2c1.4-2.8 2.7-5.4 4.1-8.1q0.1-0.2 0.2-0.4 0.1-0.2 0.2-0.4 0-0.3 0-0.5 0-0.2 0-0.5c-0.4-0.2-0.7-0.5-1.2-0.8-0.6-0.3-1.2-0.6-1.9-0.9l-3.5-1.8 4-7.8q0.1-0.2 0.2-0.4 0-0.3 0-0.6 0-0.2-0.1-0.5-0.1-0.2-0.2-0.4c-0.8-1.4-1.8-2.6-2.6-4q-0.9 0.1-1.6 0.3-0.1 0.2-0.2 0.5-0.1 0.3-0.1 0.6 0 0.3 0.1 0.6 0.1 0.3 0.3 0.5c0.6 0.8 1.1 1.7 1.7 2.5l-4.1 8q-0.2 0.2-0.3 0.5-0.1 0.2-0.1 0.4-0.1 0.2-0.1 0.5 0 0.2 0 0.4 0.2 0.2 0.3 0.3 0.2 0.1 0.3 0.2 0.1 0.1 0.3 0.2 0.1 0.1 0.3 0.1c1.8 1 3.6 1.9 5.4 2.8l-4.3 8.6c0.1 1.3 1 2.1 1.7 3.1 1.1 1.7 2.2 3.3 3.3 5 1 1.5 2.1 3 3 4.5 1.2 1.8 2.5 3.5 3.7 5.2q0.3 0 0.6-0.1c1.9 0 3.8 0.1 5.7 0 1.5-0.1 3.1-0.1 4.6-0.2 1.2-0.1 2.4 0.1 3.6-0.1 1.6-0.2 3.2-0.2 4.7-0.2q0.3 0 0.6 0 0.3-0.1 0.6-0.2 0.3-0.1 0.6-0.2 0.2-0.2 0.5-0.4l9.3-18.4c0.1-0.1 0.2-0.2 0.2-0.3q0-0.2 0-0.3 0-0.2 0-0.3 0-0.2 0-0.3 0-0.2-0.1-0.3z"/></svg>