<svg xmlns="http://www.w3.org/2000/svg" width="64.143" height="64.748" viewBox="0 0 64.143 64.748"><g transform="translate(-942 -529.838)"><path d="M987.964,582.412c-1.162-.686-2.27-1.354-3.386-2a5.4,5.4,0,0,1-2.086-7.011,5.9,5.9,0,0,1,2.475-2.521c1.873-1.1,3.763-2.153,5.644-3.232,1.062-.61,2.12-1.229,3.14-1.818V551.488L981.308,544.3l-2.32,1.342c-1.986,1.15-3.963,2.316-5.961,3.436a6.575,6.575,0,0,1-4.624.97,6.441,6.441,0,0,1-5.192-6.154c.067-2.237.013-4.477.013-6.718v-.97c-.176-.109-.309-.2-.447-.276q-2.182-1.273-4.36-2.538c-1.656-.953-3.319-1.885-4.971-2.847a1.175,1.175,0,0,0-1.359.021c-.569.368-1.154.707-1.739,1.045-1.459.84-2.926,1.664-4.381,2.508-1.166.677-2.324,1.375-3.466,2.053v12.044q5.186,3,10.343,5.978c1.81-1.062,3.587-2.115,5.38-3.148a15.844,15.844,0,0,1,2.149-1.112,6.374,6.374,0,0,1,4.649.054,5.971,5.971,0,0,1,2.517,1.927,6.9,6.9,0,0,1,1.392,4.448v9.444a1.865,1.865,0,0,0,.234.209c2.3,1.325,4.6,2.638,6.9,3.972.865.5,1.739,1.008,2.558,1.576a4.669,4.669,0,0,1,1.568,1.936,5.357,5.357,0,0,1,.443,2.943,5.158,5.158,0,0,1-2.115,3.679c-.681.485-1.442.861-2.17,1.288-.581.343-1.158.69-1.739,1.033,0,2.408.008,4.778,0,7.145a.891.891,0,0,0,.51.853c2.049,1.171,4.093,2.349,6.208,3.57,2.216-1.283,4.444-2.575,6.647-3.854V582.4Zm9.469-44.264v4.77c1.237.736,2.433,1.438,3.616,2.161a.841.841,0,0,0,.987,0c.46-.293.949-.543,1.417-.824.74-.447,1.476-.9,2.191-1.338v-4.787c-1.229-.727-2.425-1.426-3.608-2.14a.861.861,0,0,0-.991,0c-1.183.719-2.379,1.426-3.612,2.161ZM966,578.645c0-1.484,0-2.939,0-4.394a.724.724,0,0,0-.4-.707c-1.229-.7-2.446-1.426-3.683-2.149-1.233.723-2.429,1.426-3.629,2.115-.268.155-.481.3-.477.656.008,1.484,0,2.972,0,4.436,1.392.807,2.726,1.58,4.089,2.366,1.359-.769,2.671-1.518,4.089-2.324Zm33.988-8.14c-.915-.539-1.827-1.074-2.717-1.6-.932.552-1.789,1.058-2.646,1.568,0,.916,0,1.756,0,2.6a.653.653,0,0,0,.339.644c.782.451,1.551.92,2.324,1.38q1.43-.865,2.7-1.635V570.51Z" transform="translate(0 0)" fill="none" stroke="#fff" stroke-miterlimit="10" stroke-width="1"/></g></svg>