<svg xmlns="http://www.w3.org/2000/svg" width="33.556" height="33.556" viewBox="0 0 33.556 33.556"><path d="M238.988,46.18a1.977,1.977,0,1,0,1.977,1.977A1.968,1.968,0,0,0,238.988,46.18Z" transform="translate(-213.322 -40.189)" fill="#fff"/><path d="M237.6,47.47a8.262,8.262,0,1,0,8.262,8.262A8.263,8.263,0,0,0,237.6,47.47Zm0,13.567a5.286,5.286,0,1,1,5.286-5.286A5.289,5.289,0,0,1,237.6,61.037Z" transform="translate(-220.687 -38.954)" fill="#fff"/><path d="M248.393,76.676H235A10.093,10.093,0,0,1,224.92,66.593V53.2A10.093,10.093,0,0,1,235,43.12h13.391A10.093,10.093,0,0,1,258.476,53.2V66.593A10.093,10.093,0,0,1,248.393,76.676ZM235,46.272a6.943,6.943,0,0,0-6.93,6.93V66.593a6.943,6.943,0,0,0,6.93,6.93h13.391a6.943,6.943,0,0,0,6.93-6.93V53.2a6.943,6.943,0,0,0-6.93-6.93Z" transform="translate(-224.92 -43.12)" fill="#fff"/></svg>