<svg xmlns="http://www.w3.org/2000/svg" width="43.268" height="43.268" viewBox="0 0 43.268 43.268"><g transform="translate(-578.23 -212.52)"><circle cx="21.634" cy="21.634" r="21.634" transform="translate(578.23 212.52)"/><g transform="translate(585.433 223.062)"><path d="M585.889,221.434l10.028,11.386a3,3,0,0,0,4.5,0l9.857-11.178a1.175,1.175,0,0,1,.281-.22,3.372,3.372,0,0,0-1.357-.281h-22.05a3.564,3.564,0,0,0-1.309.257c.012.012.037.024.049.049Z" transform="translate(-583.737 -221.14)" fill="#fff"/><path d="M612.468,222.43a1.308,1.308,0,0,1-.2.33l-9.857,11.178a5.144,5.144,0,0,1-7.729,0l-10.028-11.386a.719.719,0,0,1-.049-.073,3.429,3.429,0,0,0-.489,1.761v15.409a3.413,3.413,0,0,0,3.412,3.412h22.05a3.413,3.413,0,0,0,3.412-3.412V224.24a3.4,3.4,0,0,0-.526-1.81Z" transform="translate(-584.12 -220.852)" fill="#fff"/></g></g></svg>