<svg xmlns="http://www.w3.org/2000/svg" width="28.488" height="24.001" viewBox="0 0 28.488 24.001"><path d="M250.576,363.244,224.519,373.4a.949.949,0,0,0,.079,1.8l6.62,1.957,2.47,7.84a1.137,1.137,0,0,0,1.895.455l3.423-3.5,6.715,4.93a1.4,1.4,0,0,0,2.2-.843l4.448-21.269a1.34,1.34,0,0,0-1.8-1.523h0Zm-3.266,4.721-12.1,10.7a.64.64,0,0,0-.215.413l-.466,4.14a.126.126,0,0,1-.246.021l-1.921-6.176a.644.644,0,0,1,.277-.743l14.293-8.866a.315.315,0,0,1,.377.5h0Z" transform="translate(-223.913 -363.15)" fill="#fff"/></svg>