<svg xmlns="http://www.w3.org/2000/svg" width="31.18" height="25.726" viewBox="0 0 31.18 25.726"><path d="M299.265,48.21a12.861,12.861,0,0,1-3.152.9c.509-.078,1.253-1,1.547-1.37a5.934,5.934,0,0,0,1.057-1.919c.02-.059.039-.117,0-.157a.532.532,0,0,0-.176,0,16.028,16.028,0,0,1-3.739,1.429.268.268,0,0,1-.255-.059c-.117-.117-.215-.235-.333-.333a6.4,6.4,0,0,0-4.6-1.566,6.606,6.606,0,0,0-2.643.744,6.8,6.8,0,0,0-2.134,1.742,6.636,6.636,0,0,0-1.273,2.545,6.875,6.875,0,0,0-.059,2.682c.02.157,0,.176-.137.157-5.149-.764-9.4-2.6-12.862-6.539-.157-.176-.235-.176-.352,0-1.507,2.271-.783,5.912,1.116,7.713.255.235.509.47.783.7a6.625,6.625,0,0,1-2.486-.7c-.157-.1-.235-.039-.235.137a4.86,4.86,0,0,0,.039.744,6.632,6.632,0,0,0,4.072,5.266,4,4,0,0,0,.822.255,6.9,6.9,0,0,1-2.428.078c-.176-.039-.255.059-.176.215a6.905,6.905,0,0,0,5.11,4.287c.235.039.47.039.7.1,0,.02-.02.02-.039.039-.568.881-2.565,1.527-3.485,1.86a12.536,12.536,0,0,1-5.305.685c-.294-.039-.352-.039-.431,0s0,.117.078.2a12.368,12.368,0,0,0,1.1.646,16.72,16.72,0,0,0,3.543,1.41c6.382,1.762,13.548.47,18.344-4.287,3.759-3.739,5.07-8.888,5.07-14.037,0-.2.235-.313.372-.411a12.074,12.074,0,0,0,2.486-2.6.787.787,0,0,0,.157-.489h0c0-.117,0-.078-.137-.02Z" transform="translate(-268.183 -45.124)" fill="#fff"/></svg>